<svg xmlns="http://www.w3.org/2000/svg" xmlns:xlink="http://www.w3.org/1999/xlink" width="400" height="329.333" viewBox="0 0 400 329.333">
  <defs>
    <clipPath id="clip-path">
      <rect id="Rectángulo_403165" data-name="Rectángulo 403165" width="310.873" height="7.272" fill="none"/>
    </clipPath>
    <clipPath id="clip-path-2">
      <rect id="Rectángulo_403169" data-name="Rectángulo 403169" width="44.865" height="106.73" fill="none"/>
    </clipPath>
    <clipPath id="clip-path-3">
      <rect id="Rectángulo_403170" data-name="Rectángulo 403170" width="36.106" height="80.069" fill="none"/>
    </clipPath>
    <clipPath id="clip-path-4">
      <rect id="Rectángulo_403171" data-name="Rectángulo 403171" width="24.987" height="8.174" fill="none"/>
    </clipPath>
  </defs>
  <g id="Grupo_1101821" data-name="Grupo 1101821" transform="translate(-1020.051 -1369.667)">
    <rect id="Rectángulo_403159" data-name="Rectángulo 403159" width="400" height="316" rx="20" transform="translate(1020.051 1383)" fill="#ebf6ea"/>
    <g id="Grupo_1101420" data-name="Grupo 1101420" transform="translate(1053.051 1369)">
      <g id="Grupo_1101421" data-name="Grupo 1101421">
        <g id="Grupo_1101418" data-name="Grupo 1101418">
          <g id="Grupo_1101422" data-name="Grupo 1101422">
            <path id="Trazado_912291" data-name="Trazado 912291" d="M15.544,365.011a171.88,171.88,0,1,1,312.671,0Z" transform="translate(0 -35.011)" fill="#d7eed6"/>
            <g id="Grupo_1101425" data-name="Grupo 1101425">
              <path id="Trazado_912292" data-name="Trazado 912292" d="M204.9,150.695h-7.021a7.2,7.2,0,0,1-7.19-7.19V127.257a7.2,7.2,0,0,1,7.19-7.19h31.953a7.2,7.2,0,0,1,7.19,7.19V143.5a7.2,7.2,0,0,1-7.19,7.19h-5.476l7.644,14.1Zm-7.021-29.848a6.418,6.418,0,0,0-6.411,6.411V143.5a6.417,6.417,0,0,0,6.411,6.41h7.211l25.01,13.013-7.055-13.013h6.786a6.417,6.417,0,0,0,6.41-6.41V127.257a6.417,6.417,0,0,0-6.41-6.411Z" transform="translate(-58.32 -25.772)" fill="#3ba935"/>
              <rect id="Rectángulo_403160" data-name="Rectángulo 403160" width="26.61" height="0.78" transform="translate(147.058 100.206)" fill="#3ba935"/>
              <rect id="Rectángulo_403161" data-name="Rectángulo 403161" width="35.967" height="0.78" transform="translate(137.701 104.982)" fill="#3ba935"/>
              <rect id="Rectángulo_403162" data-name="Rectángulo 403162" width="35.967" height="0.78" transform="translate(137.701 109.172)" fill="#3ba935"/>
              <rect id="Rectángulo_403163" data-name="Rectángulo 403163" width="35.967" height="0.78" transform="translate(137.701 113.362)" fill="#3ba935"/>
              <rect id="Rectángulo_403164" data-name="Rectángulo 403164" width="35.967" height="0.78" transform="translate(137.701 117.552)" fill="#3ba935"/>
            </g>
            <g id="Grupo_1101407" data-name="Grupo 1101407" transform="translate(16.443 319.965)" style="mix-blend-mode: multiply;isolation: isolate">
              <g id="Grupo_1101406" data-name="Grupo 1101406" transform="translate(0 0)">
                <g id="Grupo_1101405" data-name="Grupo 1101405" clip-path="url(#clip-path)">
                  <path id="Trazado_912293" data-name="Trazado 912293" d="M42.026,413.1c0,2.009,3.256,3.636,7.271,3.636H345.628c4.015,0,7.271-1.627,7.271-3.636s-3.256-3.635-7.271-3.635H49.3c-4.015,0-7.271,1.628-7.271,3.635" transform="translate(-42.026 -409.469)" fill="#c9c9c9"/>
                </g>
              </g>
            </g>
            <rect id="Rectángulo_403166" data-name="Rectángulo 403166" width="8.334" height="67.777" transform="translate(215.485 245.676)" fill="#515151"/>
            <path id="Trazado_912294" data-name="Trazado 912294" d="M327.135,406.038c0-.107.012-.211.012-.32,0-3.571-31.48-13.062-34.176-12.708-9.037,1.188-34.176,9.137-34.176,12.708,0,.108.009.213.012.32Z" transform="translate(-73.319 -85.878)" fill="#727272"/>
            <rect id="Rectángulo_403167" data-name="Rectángulo 403167" width="15.273" height="17.265" transform="translate(212.016 241.754)" fill="#2d2d2d"/>
            <rect id="Rectángulo_403168" data-name="Rectángulo 403168" width="51.725" height="3.875" transform="translate(162.956 241.091)" fill="#ff740d"/>
            <path id="Trazado_912295" data-name="Trazado 912295" d="M312.156,175.036h47.22s-.206,8.957-1.083,26.274-8.422,60.043-13.093,66.281-15.27,18.13-50.323,12.866c-9.517-15.791,17.28-105.422,17.28-105.422" transform="translate(-80.814 -37.878)" fill="#ff740d"/>
            <g id="Grupo_1101410" data-name="Grupo 1101410" transform="translate(212.017 137.158)" style="mix-blend-mode: multiply;isolation: isolate">
              <g id="Grupo_1101409" data-name="Grupo 1101409" transform="translate(0 0)">
                <g id="Grupo_1101408" data-name="Grupo 1101408" clip-path="url(#clip-path-2)">
                  <path id="Trazado_912296" data-name="Trazado 912296" d="M312.156,175.036H336.68c1.3,7.541,2.021,14.939-2.1,21.125-12.477,21.054-7.018,43.668-.78,63.942a22.751,22.751,0,0,1-.59,17.449c-7.583,3.579-19.378,5.751-38.331,2.905-9.517-15.791,17.28-105.422,17.28-105.422" transform="translate(-292.831 -175.036)" fill="#efdeb9"/>
                </g>
              </g>
            </g>
            <path id="Trazado_912297" data-name="Trazado 912297" d="M358.99,175.036c-.061.48-6.159,49.994-9.6,70.327-3.669,21.692-9.581,29.99-22.595,31.7-7.739,1.019-23.863,1.142-35.716,1.075v4.685c1.683.011,3.451.016,5.273.016,11.11,0,24.12-.225,31.054-1.138,17.531-2.308,23.174-15.32,26.6-35.562,3.453-20.426,9.563-68.31,9.624-68.791Z" transform="translate(-80.429 -37.878)" fill="#ff9810"/>
            <path id="Trazado_912298" data-name="Trazado 912298" d="M190.48,228.12s-6.628-2.6-10.4-4.029-12.216,9.357-12.216,9.357l24.3,1.237Z" transform="translate(-53.295 -48.653)" fill="#ffc88d"/>
            <path id="Trazado_912299" data-name="Trazado 912299" d="M257.021,120.537c-.619,4.27,1.656,8.475,5.082,9.392s6.705-1.8,7.326-6.069-1.657-8.475-5.082-9.392-6.706,1.8-7.326,6.069" transform="translate(-72.906 -24.501)" fill="#692cb7"/>
            <path id="Trazado_912300" data-name="Trazado 912300" d="M259.451,120.67c-.619,4.27,1.656,8.475,5.082,9.392s6.705-1.8,7.326-6.07-1.657-8.475-5.082-9.392-6.706,1.8-7.326,6.07" transform="translate(-73.441 -24.53)" fill="#c3aae2"/>
            <path id="Trazado_912301" data-name="Trazado 912301" d="M309.15,75.227c-3.229,4.457-2.569,10.442,1.472,13.368s9.933,1.69,13.161-2.767,2.569-10.44-1.473-13.368-9.933-1.688-13.16,2.767" transform="translate(-83.957 -14.94)" fill="#7c3212"/>
            <path id="Trazado_912302" data-name="Trazado 912302" d="M299.6,81.1c-3.228,4.456-2.736,12.782,1.3,15.709s11.125,2.393,14.353-2.063.775-10.457-2.665-14.074c-4.415-4.641-9.765-4.028-12.993.427" transform="translate(-81.84 -16.391)" fill="#692cb7"/>
            <path id="Trazado_912303" data-name="Trazado 912303" d="M284.073,139.835v7.942l-11.374,4.81s8.213,17.054,20.44,17.192,17.3-1.648,16.207-5.5-2.462-11.241-2.462-11.241-6.875-2.832-8.323-5.266c-1.863-3.133-1.039-14.066-1.039-14.066Z" transform="translate(-76.381 -28.777)" fill="#ffc384"/>
            <path id="Trazado_912304" data-name="Trazado 912304" d="M263.158,122.039s-1.464-1.935-2.771-1.4-.675,6.333,1.818,8.6,3.864,1.649,3.974.8-3.022-8.006-3.022-8.006" transform="translate(-73.524 -25.879)" fill="#f7b274"/>
            <path id="Trazado_912305" data-name="Trazado 912305" d="M260.346,112.2c.7,9.869,4.874,29.632,15.082,27.844,11.57-.157,19.2-13.321,19.2-13.321s4.534-.625,5-6.1-1.719-7.193-3.125-5.317c.469-4.534-2.249-13.347-2.249-13.347s-26.952-2.922-30.236-3.235-4,8.876-3.672,13.472" transform="translate(-73.644 -21.072)" fill="#ffc384"/>
            <path id="Trazado_912306" data-name="Trazado 912306" d="M260.346,112.2c.7,9.869,4.874,29.632,15.082,27.844,11.57-.157,19.2-13.321,19.2-13.321s4.534-.625,5-6.1-1.719-7.193-3.125-5.317c.469-4.534-2.249-13.347-2.249-13.347s-26.952-2.922-30.236-3.235-4,8.876-3.672,13.472" transform="translate(-73.644 -21.072)" fill="#ffc384"/>
            <path id="Trazado_912307" data-name="Trazado 912307" d="M278.384,137.815a47.024,47.024,0,0,1-5.946,1.545,30.375,30.375,0,0,1-3.73-.261s4.143,9.665,9.676-1.284" transform="translate(-75.502 -29.682)" fill="#fff"/>
            <path id="Trazado_912308" data-name="Trazado 912308" d="M282.387,97.877s-13.528,1-16.766-.585-3.824-.937-4.548.39.755,5.993-.488,8.305c-1.494,2.783.324,5.566.195,8.231-4.646-14.336-3.173-30.27,10.873-34.613s27.629-4.419,34.091,12.714c2.665,7.066-.58,24.013-8.989,28.492,0,0,3.856-5.267,2.085-9.234-.709-1.587-3.829-1.209-4.253.662a48.5,48.5,0,0,1-2.1,5.751,62.227,62.227,0,0,0-.292-7.6c-.361-1.569-2.766-5.17-2.21-7.116,1.3-4.549-2.469-6.238-7.6-5.394" transform="translate(-73.234 -16.325)" fill="#934016"/>
            <path id="Trazado_912309" data-name="Trazado 912309" d="M280.911,83.006a11.087,11.087,0,0,1,1.135-.879c-.365.292-.747.585-1.135.879" transform="translate(-78.189 -17.418)" fill="#a0451d"/>
            <path id="Trazado_912310" data-name="Trazado 912310" d="M271.462,82.5a17.5,17.5,0,0,0-3.979,11.329c1.414-4.947,6.027-7.972,9.782-10.818-3.677,3.2-4.46,8.109-5.883,12.377,2.339-3.9,3.9-7.8,7.018-10.137-2.339,3.119-1.56,7.018-2.339,10.137A21.666,21.666,0,0,1,290.1,82.128c-4.679,3.119-10.917,7.8-9.357,14.816,2.171-6.51,9.038-15.026,16.867-12.491.153.14.31.271.459.415a10.168,10.168,0,0,0-4.85.379c-5.386,2.308-10,6.9-10.125,13.765-2.662.17-13.333.756-16.159-.626a8.456,8.456,0,0,0-2.576-.909A18.49,18.49,0,0,1,271.462,82.5" transform="translate(-74.544 -17.419)" fill="#a0451d"/>
            <path id="Trazado_912311" data-name="Trazado 912311" d="M271.654,80.129c.7-.217,1.4-.409,2.085-.583-6.246,3.388-10.693,9.067-10.693,17.363-1.093-.122-1.507.445-1.972,1.3-.725,1.326.754,5.992-.488,8.305-1.494,2.783.324,5.566.195,8.23-4.646-14.335-3.174-30.269,10.873-34.613" transform="translate(-73.235 -16.849)" fill="#a85720"/>
            <path id="Trazado_912312" data-name="Trazado 912312" d="M289.779,157.565s-23.133,15.6-34.05,0c-8.578,8.837-10.917,9.357-12.737,15.076s-11.7,34.051-12.476,36.13-34.831,2.6-34.831,2.6v10.4s41.523,1.234,42.759,0,12.346-29.112,12.346-29.112-2.945,9.6,1.864,14.28,6.194,20.42,6.194,20.42l36.13-1.04s.076-17.841,1.246-24.275,15.986-23.568,6.067-36.407c-3.825-3.78-12.512-8.068-12.512-8.068" transform="translate(-59.421 -34.031)" fill="#259d1e"/>
            <path id="Trazado_912313" data-name="Trazado 912313" d="M265.925,192.66c1.55-9.573,1.733-19.146-1.588-28.719,1.655-1.568,3.761-3.544,6.51-6.376,10.917,15.6,34.05,0,34.05,0s8.686,4.289,12.511,8.068c9.919,12.84-4.9,29.974-6.067,36.407s-1.245,24.275-1.245,24.275l-36.13,1.04s-1.386-15.741-6.195-20.42c-4.319-4.2-2.384-12.37-1.945-13.992Z" transform="translate(-74.539 -34.031)" fill="#3ba935"/>
            <g id="Grupo_1101413" data-name="Grupo 1101413" transform="translate(210.086 111.209)" style="mix-blend-mode: multiply;isolation: isolate">
              <g id="Grupo_1101412" data-name="Grupo 1101412" transform="translate(0 0)">
                <g id="Grupo_1101411" data-name="Grupo 1101411" clip-path="url(#clip-path-3)">
                  <path id="Trazado_912314" data-name="Trazado 912314" d="M293.34,169.115l1.742-.048-1.728-.247s-3.9-15.726-1.241-26.9c10.876-1.953,10.468,14.816,8.908,18.325-1.158,2.6-.312,6.707.2,8.652l2.658-.074c1.3,12.124.853,19.76-.117,24.484,3.154-6.538,7.19-15.6,8.8-18.7,2.459-4.755,10.076-12.729,13.622-4.386a12.915,12.915,0,0,1,.223,4.347c-1.068,9.813-8.517,19.509-9.332,24-.253,1.392-.455,3.32-.615,5.483-4.444,9.911-5.532,11.419-6.6,12.54-1.351,1.419-13.1,14.939-18.936-7.994-2.127-19.375,2.417-39.473,2.417-39.473" transform="translate(-290.355 -141.759)" fill="#efdeb9"/>
                </g>
              </g>
            </g>
            <path id="Trazado_912315" data-name="Trazado 912315" d="M301.759,108.739c0-.877-.126-21.554-12.216-28.439-7.105-4.047-12.965-3.632-18.212-1.193a20.091,20.091,0,0,0-8.309,7.457c4.249-4.918,14.049-10.676,25.364-4.231,10.905,6.211,11.034,26.2,11.034,26.406Z" transform="translate(-74.25 -16.346)" fill="#a0a0a0"/>
            <g id="Grupo_1101416" data-name="Grupo 1101416" transform="translate(195.998 108.485)" style="mix-blend-mode: multiply;isolation: isolate">
              <g id="Grupo_1101415" data-name="Grupo 1101415" transform="translate(0 0)">
                <g id="Grupo_1101414" data-name="Grupo 1101414" clip-path="url(#clip-path-4)">
                  <path id="Trazado_912316" data-name="Trazado 912316" d="M273.87,142.991a1.727,1.727,0,0,1,1.866,1.576,1.7,1.7,0,0,1,0,.252c10.72,2.735,17.958-2.707,21.544-6.554l-.028,1.156a22.5,22.5,0,0,1-14.036,6.861,23.07,23.07,0,0,1-7.7-.708,1.726,1.726,0,1,1-1.64-2.582" transform="translate(-272.289 -138.265)" fill="#efdeb9"/>
                </g>
              </g>
            </g>
            <path id="Trazado_912317" data-name="Trazado 912317" d="M282.386,143.362c11.436,0,18.136-9.375,18.217-9.49l-.639-.447c-.1.137-9.769,13.648-25.665,7.592l-.278.728a23.375,23.375,0,0,0,8.365,1.617" transform="translate(-76.672 -28.715)" fill="#4f4f4f"/>
            <path id="Trazado_912318" data-name="Trazado 912318" d="M270.949,142.687a1.727,1.727,0,1,0,1.726-1.726,1.726,1.726,0,0,0-1.726,1.726" transform="translate(-75.996 -30.374)" fill="#692cb7"/>
            <path id="Trazado_912319" data-name="Trazado 912319" d="M301.746,122.462c-1.032,4.442.763,8.653,4.01,9.408s6.715-2.235,7.746-6.676-.763-8.653-4.01-9.407-6.716,2.235-7.747,6.676" transform="translate(-82.714 -24.805)" fill="#c3aae2"/>
            <path id="Trazado_912320" data-name="Trazado 912320" d="M303.579,122.462c-1.032,4.442.763,8.653,4.01,9.408s6.716-2.235,7.747-6.676-.763-8.653-4.01-9.407-6.716,2.235-7.747,6.676" transform="translate(-83.117 -24.805)" fill="#692cb7"/>
            <path id="Trazado_912321" data-name="Trazado 912321" d="M287.444,165.432s.59-6.742-.183-8.677-2.643-5.123-1.517-6.54-1.509-5.328-1.509-5.328c-.191-2.273,5.17-6.669,10.049-3.238s2.452,11.945,2.1,14.9-1.673,8.966-1.673,8.966Z" transform="translate(-78.92 -30.247)" fill="#ffcea1"/>
            <path id="Trazado_912322" data-name="Trazado 912322" d="M325.116,171.224s2.793,7.512-7.217,23.68-12.281,21.317-13.63,22.737-11.913,12.867-17.746-10.066a195.585,195.585,0,0,1-.218-37.284l10.37-.633c3.022,28.2,2.75,32.334,2.23,31.672,1.948-2.19,10.127-20.965,12.586-25.72s10.076-12.728,13.623-4.386" transform="translate(-79.204 -36.238)" fill="#259d1e"/>
            <path id="Trazado_912323" data-name="Trazado 912323" d="M282.59,121.822a4.945,4.945,0,0,1,3.582-1.579,5.126,5.126,0,0,1,3.25,1.556l.582-.519a5.869,5.869,0,0,0-3.8-1.816,5.662,5.662,0,0,0-4.151,1.793Z" transform="translate(-78.441 -25.639)" fill="#934016"/>
            <path id="Trazado_912324" data-name="Trazado 912324" d="M262.656,121.716c.662-1.084,1.315-1.62,1.974-1.6,1.06.037,1.879,1.56,1.886,1.575l.692-.359c-.041-.08-1.025-1.942-2.551-2-.939-.03-1.847.629-2.667,1.972Z" transform="translate(-74.023 -25.612)" fill="#934016"/>
            <path id="Trazado_912325" data-name="Trazado 912325" d="M292.466,117.342a4.773,4.773,0,0,0-.306-.449,10.531,10.531,0,0,0-.94-1.089c-.207-.216-.454-.427-.712-.654a9.237,9.237,0,0,0-.88-.639,6.543,6.543,0,0,0-1.029-.565,7.815,7.815,0,0,0-1.156-.416,6.528,6.528,0,0,0-1.237-.146,3.937,3.937,0,0,0-1.2.158c-.189.055-.381.094-.556.16l-.487.259c-.155.087-.312.161-.451.25l-.362.313a4,4,0,0,0-.594.572l-.378.505c-.206.28-.312.443-.312.443s.161-.122.423-.341l.465-.395a6.629,6.629,0,0,1,.656-.42l.371-.232.431-.172.449-.179.492-.1a3.982,3.982,0,0,1,1.035-.076,5.893,5.893,0,0,1,1.069.151,6.878,6.878,0,0,1,1.043.349,8.222,8.222,0,0,1,.978.462c.316.159.6.358.887.519.266.192.534.353.766.526.943.673,1.535,1.2,1.535,1.2" transform="translate(-78.4 -24.3)" fill="#934016"/>
            <path id="Trazado_912326" data-name="Trazado 912326" d="M266.765,115.321a1.914,1.914,0,0,0-.695-.716,2.292,2.292,0,0,0-.448-.232,2.191,2.191,0,0,0-.561-.131,2.451,2.451,0,0,0-.627.007,3.305,3.305,0,0,0-.617.185,3.038,3.038,0,0,0-.992.71,2.62,2.62,0,0,0-.349.418c-.1.14-.18.279-.255.407a3.934,3.934,0,0,0-.281.653c-.056.162-.08.257-.08.257s.081-.062.21-.172.295-.28.5-.462c.108-.089.221-.184.333-.292s.253-.188.375-.3a2.928,2.928,0,0,1,.409-.279,2.146,2.146,0,0,1,.435-.228,2.563,2.563,0,0,1,.449-.162,3.223,3.223,0,0,1,.457-.061,2.759,2.759,0,0,1,.856.085,4.509,4.509,0,0,1,.876.309" transform="translate(-73.994 -24.486)" fill="#934016"/>
            <path id="Trazado_912327" data-name="Trazado 912327" d="M273.918,134.665a42.992,42.992,0,0,0-4.557-1.462c-1.17-.195-1.122,1.627-1.122,1.627Z" transform="translate(-75.399 -28.662)" fill="#f2aa68"/>
            <path id="Trazado_912328" data-name="Trazado 912328" d="M212.81,406.8h17.416c1.949,0,6.758-8.967,6.758-8.967V406.8h2.6s3.925-14.98-1.871-18.537c-5.407,7.23-17.544,11.729-17.544,11.729Z" transform="translate(-63.192 -84.833)" fill="#161616"/>
            <path id="Trazado_912329" data-name="Trazado 912329" d="M231.2,372.729s1.56,10.851,1.3,12.931-8.707,9.227-10.527,10.787c4.679,1.69,6.759,1.689,9.747,0s8.317-8.188,8.838-9.357a43.064,43.064,0,0,1-1.949-7.537,67.667,67.667,0,0,1-.65-8.188Z" transform="translate(-65.211 -81.113)" fill="#f9b87d"/>
            <path id="Trazado_912330" data-name="Trazado 912330" d="M280.385,270.723s18.975,29.587-6.368,29-44.643.009-44.643.009,6.563,12.468,7.213,25.2,0,30.152,0,30.152l-8.122,2.079s-10.2-35.09-15.663-47.826-6.5-26.772,10.4-28.332,57.185-10.288,57.185-10.288" transform="translate(-62.405 -58.95)" fill="#07335b"/>
            <path id="Trazado_912331" data-name="Trazado 912331" d="M223.2,281.012c16.895-1.56,57.185-10.288,57.185-10.288s18.975,29.586-6.368,29-44.643.009-44.643.009.151.286.406.807c-3.4-3.153-7.308-5.1-12.644-3.77A13.021,13.021,0,0,0,210.5,302.9c-3-10.643-1.365-20.589,12.7-21.888" transform="translate(-62.406 -58.95)" fill="#062e4c"/>
            <path id="Trazado_912332" data-name="Trazado 912332" d="M235.81,407.769h17.416c1.949,0,6.758-8.967,6.758-8.967v8.967h2.6s3.925-14.98-1.871-18.536c-5.407,7.229-17.544,11.729-17.544,11.729Z" transform="translate(-68.257 -85.048)" fill="#282828"/>
            <path id="Trazado_912333" data-name="Trazado 912333" d="M254.2,373.7s1.56,10.851,1.3,12.931-8.707,9.227-10.527,10.787c4.679,1.69,6.759,1.689,9.747,0s8.317-8.188,8.838-9.357a43.064,43.064,0,0,1-1.949-7.537,67.669,67.669,0,0,1-.65-8.188Z" transform="translate(-70.276 -81.327)" fill="#ffc88d"/>
            <path id="Trazado_912334" data-name="Trazado 912334" d="M309.492,274.639s12.866,27.292-12.477,26.708-44.643.009-44.643.009,6.563,12.468,7.213,25.2,0,30.152,0,30.152l-8.122,2.079s-10.2-35.09-15.663-47.826-6.5-26.772,10.4-28.332,63.293-7.994,63.293-7.994" transform="translate(-67.47 -59.812)" fill="#0a3a78"/>
            <path id="Trazado_912335" data-name="Trazado 912335" d="M232.507,293.535c.9-5.764,4.821-10.077,13.753-10.9,16.895-1.56,63.293-7.994,63.293-7.994s12.866,27.292-12.477,26.708-44.643.009-44.643.009.268.512.7,1.422c-5.536-6.974-12.522-12.066-20.625-9.244" transform="translate(-67.53 -59.813)" fill="#083566"/>
            <path id="Trazado_912336" data-name="Trazado 912336" d="M398.068,377.58H335.685V245.065h62.383ZM338.8,374.461h56.144V248.184H338.8Z" transform="translate(-90.252 -53.3)" fill="#2d2d2d"/>
            <rect id="Rectángulo_403172" data-name="Rectángulo 403172" width="60.055" height="3.119" transform="translate(246.994 232.363)" fill="#2d2d2d"/>
            <rect id="Rectángulo_403173" data-name="Rectángulo 403173" width="60.056" height="3.119" transform="translate(40.838 232.363)" fill="#2d2d2d"/>
            <path id="Trazado_912337" data-name="Trazado 912337" d="M134.4,373.469H72.018v-128.4H134.4Zm-59.263-3.119h56.144V248.184H75.137Z" transform="translate(-32.188 -53.3)" fill="#2d2d2d"/>
            <rect id="Rectángulo_403174" data-name="Rectángulo 403174" width="208.722" height="25.862" transform="translate(38.272 193.325)" fill="#8e4b1e"/>
            <rect id="Rectángulo_403175" data-name="Rectángulo 403175" width="74.972" height="25.862" transform="translate(239.473 193.325)" fill="#a55621"/>
            <rect id="Rectángulo_403176" data-name="Rectángulo 403176" width="286.948" height="10.397" transform="translate(32.825 188.127)" fill="#b77e21"/>
            <rect id="Rectángulo_403177" data-name="Rectángulo 403177" width="76.419" height="10.397" transform="translate(243.355 188.127)" fill="#db9633"/>
            <rect id="Rectángulo_403178" data-name="Rectángulo 403178" width="35.036" height="78.772" transform="translate(41.391 241.388)" fill="#444"/>
            <rect id="Rectángulo_403179" data-name="Rectángulo 403179" width="54.521" height="78.772" transform="translate(76.426 241.388)" fill="#6d6d6d"/>
            <rect id="Rectángulo_403180" data-name="Rectángulo 403180" width="33.726" height="0.975" transform="translate(89.813 253.585)" fill="#444"/>
            <rect id="Rectángulo_403181" data-name="Rectángulo 403181" width="33.726" height="0.975" transform="translate(89.813 256.038)" fill="#444"/>
            <rect id="Rectángulo_403182" data-name="Rectángulo 403182" width="33.726" height="0.975" transform="translate(89.813 258.491)" fill="#444"/>
            <rect id="Rectángulo_403183" data-name="Rectángulo 403183" width="33.726" height="0.975" transform="translate(89.813 260.944)" fill="#444"/>
            <rect id="Rectángulo_403184" data-name="Rectángulo 403184" width="33.726" height="0.975" transform="translate(89.813 263.396)" fill="#444"/>
            <rect id="Rectángulo_403185" data-name="Rectángulo 403185" width="33.726" height="0.975" transform="translate(89.813 265.85)" fill="#444"/>
            <rect id="Rectángulo_403186" data-name="Rectángulo 403186" width="33.726" height="0.975" transform="translate(89.813 268.302)" fill="#444"/>
            <rect id="Rectángulo_403187" data-name="Rectángulo 403187" width="33.726" height="0.975" transform="translate(89.813 270.755)" fill="#444"/>
            <rect id="Rectángulo_403188" data-name="Rectángulo 403188" width="33.726" height="0.975" transform="translate(89.813 273.207)" fill="#444"/>
            <rect id="Rectángulo_403189" data-name="Rectángulo 403189" width="27.574" height="0.975" transform="translate(44.285 250.645)" fill="#333"/>
            <rect id="Rectángulo_403190" data-name="Rectángulo 403190" width="27.574" height="0.975" transform="translate(44.285 253.097)" fill="#333"/>
            <rect id="Rectángulo_403191" data-name="Rectángulo 403191" width="27.574" height="0.975" transform="translate(44.285 255.551)" fill="#333"/>
            <rect id="Rectángulo_403192" data-name="Rectángulo 403192" width="27.574" height="0.975" transform="translate(44.285 258.003)" fill="#333"/>
            <rect id="Rectángulo_403193" data-name="Rectángulo 403193" width="27.574" height="0.975" transform="translate(44.285 260.456)" fill="#333"/>
            <rect id="Rectángulo_403194" data-name="Rectángulo 403194" width="27.574" height="0.975" transform="translate(44.285 275.382)" fill="#333"/>
            <rect id="Rectángulo_403195" data-name="Rectángulo 403195" width="27.574" height="0.975" transform="translate(44.285 277.835)" fill="#333"/>
            <rect id="Rectángulo_403196" data-name="Rectángulo 403196" width="27.574" height="0.975" transform="translate(44.285 280.287)" fill="#333"/>
            <rect id="Rectángulo_403197" data-name="Rectángulo 403197" width="27.574" height="0.975" transform="translate(44.285 282.74)" fill="#333"/>
            <rect id="Rectángulo_403198" data-name="Rectángulo 403198" width="27.574" height="0.975" transform="translate(44.285 285.192)" fill="#333"/>
            <rect id="Rectángulo_403199" data-name="Rectángulo 403199" width="27.574" height="0.975" transform="translate(44.285 300.119)" fill="#333"/>
            <rect id="Rectángulo_403200" data-name="Rectángulo 403200" width="27.574" height="0.975" transform="translate(44.285 302.572)" fill="#333"/>
            <rect id="Rectángulo_403201" data-name="Rectángulo 403201" width="27.574" height="0.975" transform="translate(44.285 305.024)" fill="#333"/>
            <rect id="Rectángulo_403202" data-name="Rectángulo 403202" width="27.574" height="0.975" transform="translate(44.285 307.477)" fill="#333"/>
            <rect id="Rectángulo_403203" data-name="Rectángulo 403203" width="27.574" height="0.975" transform="translate(44.285 309.93)" fill="#333"/>
            <rect id="Rectángulo_403204" data-name="Rectángulo 403204" width="33.726" height="0.975" transform="translate(89.813 286.119)" fill="#444"/>
            <rect id="Rectángulo_403205" data-name="Rectángulo 403205" width="33.726" height="0.975" transform="translate(89.813 288.571)" fill="#444"/>
            <rect id="Rectángulo_403206" data-name="Rectángulo 403206" width="33.726" height="0.975" transform="translate(89.813 291.024)" fill="#444"/>
            <rect id="Rectángulo_403207" data-name="Rectángulo 403207" width="33.726" height="0.975" transform="translate(89.813 293.477)" fill="#444"/>
            <rect id="Rectángulo_403208" data-name="Rectángulo 403208" width="33.726" height="0.975" transform="translate(89.813 295.93)" fill="#444"/>
            <rect id="Rectángulo_403209" data-name="Rectángulo 403209" width="33.726" height="0.975" transform="translate(89.813 298.382)" fill="#444"/>
            <rect id="Rectángulo_403210" data-name="Rectángulo 403210" width="33.726" height="0.975" transform="translate(89.813 300.836)" fill="#444"/>
            <rect id="Rectángulo_403211" data-name="Rectángulo 403211" width="33.726" height="0.975" transform="translate(89.813 303.288)" fill="#444"/>
            <rect id="Rectángulo_403212" data-name="Rectángulo 403212" width="33.726" height="0.975" transform="translate(89.813 305.741)" fill="#444"/>
            <rect id="Rectángulo_403213" data-name="Rectángulo 403213" width="77.199" height="4.019" transform="translate(71.462 184.023)" fill="#424242"/>
            <rect id="Rectángulo_403214" data-name="Rectángulo 403214" width="14.144" height="4.019" transform="translate(148.46 184.023)" fill="#6d6d6d"/>
            <path id="Trazado_912338" data-name="Trazado 912338" d="M173.706,203.96c.3,1.588-2.116,5.69-3.7,5.69L92.89,206.837a3.624,3.624,0,0,1-3.41-2.877L78.39,156.886c-.3-1.588,2.662-5.136,4.251-5.136h78.473a3.625,3.625,0,0,1,3.412,2.877Z" transform="translate(-33.586 -32.749)" fill="#6d6d6d"/>
            <path id="Trazado_912339" data-name="Trazado 912339" d="M171.85,207.628a2.322,2.322,0,0,1-2.341,2.876H91.036a3.625,3.625,0,0,1-3.412-2.876l-9.18-49.335a2.322,2.322,0,0,1,2.341-2.876h78.473a3.625,3.625,0,0,1,3.412,2.876Z" transform="translate(-33.592 -33.557)" fill="#424242"/>
            <path id="Trazado_912340" data-name="Trazado 912340" d="M122.674,189.015s-2.729,19.1-3.314,26.123-1.755,13.841,6.628,13.841h18.325l-4.424-2.123-1.876-4.484,2.9-33.467Z" transform="translate(-42.523 -40.932)" fill="#6d6d6d"/>
            <path id="Trazado_912341" data-name="Trazado 912341" d="M168.622,228.979H150.3c-2.739,0-4.7-.685-5.989-2.1-2.307-2.521-1.931-6.77-1.531-11.269l.115-1.319c.58-6.961,3.178-25.2,3.206-25.389l1.051,3.739c-.027.191-2.126,14.864-2.7,21.779l-.114,1.326c-.369,4.148-.716,8.065,1.128,10.079.979,1.071,2.562,1.59,4.837,1.59h18.325Z" transform="translate(-47.704 -40.932)" fill="#898989"/>
            <path id="Trazado_912342" data-name="Trazado 912342" d="M95.543,327.053a2.488,2.488,0,0,1-1.57-.591c-7.222-5.761-6.641-57.036-6.361-81.677l.035-3.148c.259-24.444,22.74-30.914,22.967-30.978l.207.751c-.222.062-22.142,6.39-22.395,30.234l-.035,3.15c-.256,22.6-.856,75.535,6.067,81.058a1.637,1.637,0,0,0,1.479.374l.181.758a2.4,2.4,0,0,1-.575.07" transform="translate(-35.59 -45.723)" fill="#c6c6c6"/>
            <path id="Trazado_912343" data-name="Trazado 912343" d="M87.08,327.053a2.492,2.492,0,0,1-1.572-.591c-7.22-5.761-6.64-57.036-6.361-81.678l.035-3.148c.26-24.451,24.972-30.918,25.22-30.98l.19.756c-.243.061-24.376,6.391-24.63,30.231l-.035,3.15c-.256,22.6-.855,75.535,6.067,81.058a1.637,1.637,0,0,0,1.479.374l.182.758a2.42,2.42,0,0,1-.575.07" transform="translate(-33.726 -45.723)" fill="#c6c6c6"/>
            <g id="Grupo_1101426" data-name="Grupo 1101426">
              <path id="Trazado_912344" data-name="Trazado 912344" d="M372.61,141.07a37.5,37.5,0,0,1-3.188-3.063,2.39,2.39,0,0,1-.172-3.581c.558-.607,3.925-4.07,5.076-5.221a2.339,2.339,0,0,1,3.539.012c.236.257.65.686,1.089,1.142.64.666,1.3,1.354,1.606,1.7.4.461.675.5,1.152.1a81.679,81.679,0,0,0,8.073-8.137c1.061-1.261.813-1.592.614-1.858-.031-.042-.062-.083-.088-.122a11.032,11.032,0,0,0-1.067-1.1c-.379-.368-.864-.84-1.477-1.453-2-2-.8-3.422-.406-3.888.554-.654,3.472-3.667,4.919-5.113,1.334-1.334,2.638-1.347,3.833.019.671.767,2.682,2.971,2.682,2.971l.048.065c3.019,5.126-2.45,14.587-6.048,18.512-2.906,3.169-7.883,7.2-12.454,9.074a11.148,11.148,0,0,1-4.2.9,5.868,5.868,0,0,1-3.531-.956m22.917-30.054c-.912-1.043-1.684-.993-2.695.02-1.578,1.577-4.367,4.464-4.875,5.065-.588.695-.951,1.52.363,2.833.61.61,1.092,1.078,1.47,1.445a10.116,10.116,0,0,1,1.171,1.23l.065.089c.394.529.7,1.226-.643,2.827a81.119,81.119,0,0,1-8.185,8.246,1.431,1.431,0,0,1-2.223-.2c-.289-.33-.975-1.042-1.581-1.67-.443-.46-.861-.894-1.1-1.154a1.73,1.73,0,0,0-1.208-.565,1.712,1.712,0,0,0-1.206.576c-1.145,1.146-4.5,4.6-5.053,5.2-.509.554-.952,1.34.164,2.516a37.636,37.636,0,0,0,3.1,2.986,5.125,5.125,0,0,0,3.05.791,10.365,10.365,0,0,0,3.906-.844,38.476,38.476,0,0,0,12.175-8.879c3.454-3.769,8.738-12.77,5.971-17.554-.245-.269-2.038-2.236-2.665-2.952" transform="translate(-97.481 -23.441)" fill="#3ba935"/>
              <path id="Trazado_912345" data-name="Trazado 912345" d="M362.151,142.929a1.17,1.17,0,1,0,1.17-1.17,1.169,1.169,0,0,0-1.17,1.17" transform="translate(-96.08 -30.55)" fill="#3ba935"/>
              <path id="Trazado_912346" data-name="Trazado 912346" d="M356.4,142.929a1.17,1.17,0,1,0,1.17-1.17,1.169,1.169,0,0,0-1.17,1.17" transform="translate(-94.814 -30.55)" fill="#3ba935"/>
              <path id="Trazado_912347" data-name="Trazado 912347" d="M350.651,142.929a1.17,1.17,0,1,0,1.17-1.17,1.169,1.169,0,0,0-1.17,1.17" transform="translate(-93.547 -30.55)" fill="#3ba935"/>
              <path id="Trazado_912348" data-name="Trazado 912348" d="M344.9,142.929a1.17,1.17,0,1,0,1.17-1.17,1.169,1.169,0,0,0-1.17,1.17" transform="translate(-92.281 -30.55)" fill="#3ba935"/>
              <path id="Trazado_912349" data-name="Trazado 912349" d="M339.151,142.929a1.17,1.17,0,1,0,1.17-1.17,1.169,1.169,0,0,0-1.17,1.17" transform="translate(-91.015 -30.55)" fill="#3ba935"/>
              <path id="Trazado_912350" data-name="Trazado 912350" d="M333.4,142.929a1.17,1.17,0,1,0,1.17-1.17,1.169,1.169,0,0,0-1.17,1.17" transform="translate(-89.749 -30.55)" fill="#3ba935"/>
              <path id="Trazado_912351" data-name="Trazado 912351" d="M327.651,142.929a1.17,1.17,0,1,0,1.17-1.17,1.169,1.169,0,0,0-1.17,1.17" transform="translate(-88.482 -30.55)" fill="#3ba935"/>
              <path id="Trazado_912352" data-name="Trazado 912352" d="M321.9,142.929a1.17,1.17,0,1,0,1.17-1.17,1.169,1.169,0,0,0-1.17,1.17" transform="translate(-87.216 -30.55)" fill="#3ba935"/>
              <path id="Trazado_912353" data-name="Trazado 912353" d="M316.151,142.929a1.17,1.17,0,1,0,1.17-1.17,1.169,1.169,0,0,0-1.17,1.17" transform="translate(-85.95 -30.55)" fill="#3ba935"/>
              <path id="Trazado_912354" data-name="Trazado 912354" d="M310.4,142.929a1.17,1.17,0,1,0,1.17-1.17,1.169,1.169,0,0,0-1.17,1.17" transform="translate(-84.684 -30.55)" fill="#3ba935"/>
            </g>
            <g id="Grupo_1101423" data-name="Grupo 1101423">
              <path id="Trazado_912365" data-name="Trazado 912365" d="M231.348,76.994a24.191,24.191,0,1,1,12.408-21.126,23.923,23.923,0,0,1-5.154,14.92l3.61,14.118Zm-35.2-21.126a23.408,23.408,0,0,0,35.03,20.324l.218-.126L240.92,83l-3.17-12.394.121-.152a23.157,23.157,0,0,0,5.105-14.586,23.413,23.413,0,1,0-46.825,0" transform="translate(-59.352 -6.308)" fill="#3ba935"/>
              <path id="Trazado_912366" data-name="Trazado 912366" d="M230.586,74.063a11.145,11.145,0,0,1-4.2-.9c-4.571-1.87-9.548-5.905-12.454-9.074-3.6-3.925-9.067-13.386-6.048-18.512l.048-.065s2.012-2.2,2.683-2.97c1.194-1.366,2.5-1.354,3.832-.019,1.447,1.446,4.365,4.458,4.92,5.112.395.466,1.6,1.887-.407,3.888-.612.613-1.1,1.085-1.477,1.454a11.168,11.168,0,0,0-1.067,1.1c-.026.04-.056.081-.088.123-.2.266-.445.6.615,1.858a81.843,81.843,0,0,0,8.073,8.137c.476.395.75.359,1.152-.1.3-.345.965-1.032,1.606-1.7.438-.455.853-.885,1.089-1.142a2.337,2.337,0,0,1,3.539-.011c1.15,1.15,4.519,4.613,5.076,5.22a2.39,2.39,0,0,1-.172,3.581,37.486,37.486,0,0,1-3.188,3.063,5.87,5.87,0,0,1-3.531.956M208.535,46c-2.767,4.784,2.516,13.787,5.971,17.554a38.465,38.465,0,0,0,12.175,8.879,10.365,10.365,0,0,0,3.906.845,5.131,5.131,0,0,0,3.049-.79,37.484,37.484,0,0,0,3.1-2.986c1.116-1.176.673-1.962.164-2.516-.554-.6-3.907-4.05-5.054-5.2a1.708,1.708,0,0,0-1.206-.576,1.728,1.728,0,0,0-1.208.565c-.24.26-.658.694-1.1,1.154-.606.629-1.292,1.34-1.581,1.67a1.431,1.431,0,0,1-2.223.2,81.113,81.113,0,0,1-8.185-8.246c-1.347-1.6-1.037-2.3-.643-2.826l.064-.09a10.173,10.173,0,0,1,1.172-1.23c.377-.367.86-.836,1.469-1.446,1.315-1.313.951-2.138.363-2.833-.508-.6-3.3-3.486-4.875-5.065-1.011-1.012-1.783-1.062-2.694-.02-.628.717-2.42,2.683-2.665,2.952" transform="translate(-61.915 -8.475)" fill="#3ba935"/>
            </g>
            <path id="Trazado_912367" data-name="Trazado 912367" d="M313.559,15.005c0,8.288-7.078,15.006-15.809,15.006s-15.809-6.719-15.809-15.006S289.019,0,297.75,0s15.809,6.719,15.809,15.006" transform="translate(-79.219 0.668)" fill="#3ba935"/>
            <path id="Trazado_912368" data-name="Trazado 912368" d="M299.846,8.978c2.071,0,2.7,1.22,2.7,3.011,0,3.11-4.036,4.478-3.775,9.379h1.809c.288-4.876,4.665-4.552,4.665-9.528,0-2.886-1.415-5.126-5.4-5.126-4.351,0-5.609,2.737-5.609,6.718v.323h2.674c0-3.035.655-4.777,2.935-4.777m1.337,14.6h-2.988v2.836h2.988Z" transform="translate(-81.008 -0.81)" fill="#fff"/>
          </g>
        </g>
      </g>
    </g>
  </g>
</svg>
