<svg xmlns="http://www.w3.org/2000/svg" xmlns:xlink="http://www.w3.org/1999/xlink" width="295" height="247.05" viewBox="0 0 295 247.05">
  <defs>
    <clipPath id="clip-path">
      <rect id="Rectángulo_403112" data-name="Rectángulo 403112" width="237.231" height="218.1" fill="none"/>
    </clipPath>
    <clipPath id="clip-path-3">
      <rect id="Rectángulo_403098" data-name="Rectángulo 403098" width="20.583" height="11.883" fill="none"/>
    </clipPath>
    <clipPath id="clip-path-5">
      <rect id="Rectángulo_403100" data-name="Rectángulo 403100" width="216.041" height="124.697" fill="none"/>
    </clipPath>
    <clipPath id="clip-path-6">
      <rect id="Rectángulo_403101" data-name="Rectángulo 403101" width="42.744" height="19.458" fill="none"/>
    </clipPath>
    <clipPath id="clip-path-7">
      <path id="Trazado_873707" data-name="Trazado 873707" d="M21.829,67.2l19.715,73.675L148.505,79.123,128.791,5.447Z" transform="translate(-21.829 -5.447)" fill="none"/>
    </clipPath>
    <clipPath id="clip-path-8">
      <rect id="Rectángulo_403103" data-name="Rectángulo 403103" width="10.981" height="67.902" fill="none"/>
    </clipPath>
    <clipPath id="clip-path-9">
      <rect id="Rectángulo_403104" data-name="Rectángulo 403104" width="11.955" height="100.942" fill="none"/>
    </clipPath>
    <clipPath id="clip-path-10">
      <rect id="Rectángulo_403105" data-name="Rectángulo 403105" width="7.607" height="12.869" fill="none"/>
    </clipPath>
    <clipPath id="clip-path-11">
      <rect id="Rectángulo_403106" data-name="Rectángulo 403106" width="49.135" height="33.273" fill="none"/>
    </clipPath>
    <clipPath id="clip-path-13">
      <rect id="Rectángulo_403107" data-name="Rectángulo 403107" width="66.82" height="37.002" fill="none"/>
    </clipPath>
    <clipPath id="clip-path-14">
      <rect id="Rectángulo_403108" data-name="Rectángulo 403108" width="17.501" height="33.495" fill="none"/>
    </clipPath>
    <clipPath id="clip-path-15">
      <rect id="Rectángulo_403109" data-name="Rectángulo 403109" width="12.915" height="27.544" fill="none"/>
    </clipPath>
    <clipPath id="clip-path-16">
      <rect id="Rectángulo_403110" data-name="Rectángulo 403110" width="20.582" height="11.883" fill="none"/>
    </clipPath>
  </defs>
  <g id="Grupo_1101587" data-name="Grupo 1101587" transform="translate(-600 -2732)">
    <rect id="Rectángulo_402941" data-name="Rectángulo 402941" width="295" height="163" rx="10" transform="translate(600 2816.05)" fill="#d7eed6"/>
    <g id="Grupo_1101046" data-name="Grupo 1101046" transform="translate(628.885 2732)">
      <g id="Grupo_1101045" data-name="Grupo 1101045" clip-path="url(#clip-path)">
        <g id="Grupo_1101008" data-name="Grupo 1101008">
          <g id="Grupo_1101007" data-name="Grupo 1101007" clip-path="url(#clip-path)">
            <g id="Grupo_1101006" data-name="Grupo 1101006" transform="translate(162.419 81.062)" opacity="0.3" style="mix-blend-mode: multiply;isolation: isolate">
              <g id="Grupo_1101005" data-name="Grupo 1101005">
                <g id="Grupo_1101004" data-name="Grupo 1101004" clip-path="url(#clip-path-3)">
                  <path id="Trazado_873528" data-name="Trazado 873528" d="M127.426,68.154l11.056,6.383a4.674,4.674,0,0,0,4.232,0l3.542-2.045a1.29,1.29,0,0,0,0-2.444L135.2,63.666a4.674,4.674,0,0,0-4.232,0l-3.542,2.046a1.289,1.289,0,0,0,0,2.442" transform="translate(-126.549 -63.16)" fill="#4694b8"/>
                </g>
              </g>
            </g>
          </g>
        </g>
        <path id="Trazado_873529" data-name="Trazado 873529" d="M135.288,146.166l-.019,6.782-1.3,2.671.019-6.782Z" transform="translate(37.972 41.43)" fill="#114f6b"/>
        <path id="Trazado_873530" data-name="Trazado 873530" d="M116.326,148.836l-.019,6.78-1.331-2.668.019-6.782Z" transform="translate(32.589 41.43)" fill="#114f6b"/>
        <path id="Trazado_873531" data-name="Trazado 873531" d="M141.652,150.182l-.019,6.782-3.438,1.93.019-6.782Z" transform="translate(39.171 42.569)" fill="#114f6b"/>
        <path id="Trazado_873532" data-name="Trazado 873532" d="M112.6,152.113l-.019,6.78-3.458-1.932.019-6.78Z" transform="translate(30.931 42.568)" fill="#114f6b"/>
        <path id="Trazado_873533" data-name="Trazado 873533" d="M107.529,160.458l.015,2.161.019-6.782-.015-2.16Z" transform="translate(30.479 43.559)" fill="#36a1d4"/>
        <path id="Trazado_873534" data-name="Trazado 873534" d="M143.565,155.36l-.019,6.78-4.65.675.019-6.78Z" transform="translate(39.37 44.036)" fill="#114f6b"/>
        <path id="Trazado_873535" data-name="Trazado 873535" d="M112.212,156.035l-.019,6.78-4.651-.674.019-6.782Z" transform="translate(30.482 44.036)" fill="#114f6b"/>
        <path id="Trazado_873536" data-name="Trazado 873536" d="M138.248,157.765l-.019,6.782.857-1.88.019-6.78Z" transform="translate(39.18 44.185)" fill="#114f6b"/>
        <path id="Trazado_873537" data-name="Trazado 873537" d="M111.165,162.667l.884,1.879.019-6.782-.884-1.879Z" transform="translate(31.509 44.185)" fill="#114f6b"/>
        <path id="Trazado_873538" data-name="Trazado 873538" d="M140.514,160.48l-.019,6.782-4.613-.762.019-6.782Z" transform="translate(38.515 45.271)" fill="#114f6b"/>
        <path id="Trazado_873539" data-name="Trazado 873539" d="M141.351,158.855l-.019,6.782-1.856,1.869.019-6.782Z" transform="translate(39.534 45.027)" fill="#114f6b"/>
        <path id="Trazado_873540" data-name="Trazado 873540" d="M115.264,159.718l-.019,6.78-4.606.764.019-6.78Z" transform="translate(31.36 45.272)" fill="#114f6b"/>
        <path id="Trazado_873541" data-name="Trazado 873541" d="M111.071,160.727l-.019,6.782-1.876-1.873.019-6.782Z" transform="translate(30.945 45.027)" fill="#114f6b"/>
        <path id="Trazado_873542" data-name="Trazado 873542" d="M136.425,159.718l-.019,6.78-2.369,1.377.019-6.78Z" transform="translate(37.992 45.272)" fill="#114f6b"/>
        <path id="Trazado_873543" data-name="Trazado 873543" d="M116.628,161.094l-.019,6.782-2.382-1.376.019-6.782Z" transform="translate(32.377 45.271)" fill="#114f6b"/>
        <path id="Trazado_873544" data-name="Trazado 873544" d="M130.692,162.158l-.019,6.78-3.242.5.019-6.78Z" transform="translate(36.12 45.963)" fill="#114f6b"/>
        <path id="Trazado_873545" data-name="Trazado 873545" d="M123.446,162.662l-.019,6.782-3.248-.507.019-6.78Z" transform="translate(34.064 45.963)" fill="#114f6b"/>
        <path id="Trazado_873546" data-name="Trazado 873546" d="M132.583,163.952l-.019,6.78,3.22-1.081.019-6.78Z" transform="translate(37.575 46.165)" fill="#114f6b"/>
        <path id="Trazado_873547" data-name="Trazado 873547" d="M129.956,168.938l3.346,2,.021-6.78-3.347-2Z" transform="translate(36.836 45.963)" fill="#114f6b"/>
        <path id="Trazado_873548" data-name="Trazado 873548" d="M115.068,169.652l3.238,1.079.019-6.779-3.238-1.082Z" transform="translate(32.616 46.165)" fill="#114f6b"/>
        <path id="Trazado_873549" data-name="Trazado 873549" d="M117.61,164.154l-.019,6.78,3.322-2,.019-6.782Z" transform="translate(33.331 45.963)" fill="#114f6b"/>
        <path id="Trazado_873550" data-name="Trazado 873550" d="M126.553,165.244l-.018,6.782,1.149-2.7.019-6.78Z" transform="translate(35.866 46.074)" fill="#114f6b"/>
        <path id="Trazado_873551" data-name="Trazado 873551" d="M111.534,164.827l-1.876-1.873,3.438-1.93-.884-1.879-4.652-.675-.014-2.16,4.65-.675.857-1.879-3.458-1.933,1.856-1.869,4.613.762,2.369-1.377-1.331-2.67,3.22-1.081,3.347,2,3.242-.5,1.15-2.7,3.73,0,1.177,2.693,3.251.506,3.32-2,3.238,1.081-1.3,2.671,2.382,1.376,4.606-.764,1.878,1.871-3.438,1.932.88,1.88,4.655.674.015,2.16-4.65.675-.857,1.879,3.456,1.932-1.855,1.87-4.613-.762-2.369,1.377,1.33,2.67-3.22,1.081-3.346-2-3.243.5-1.149,2.7h-3.73l-1.179-2.693-3.248-.506-3.322,2-3.238-1.081,1.3-2.671-2.382-1.376Z" transform="translate(30.483 40.926)" fill="#73c8e2"/>
        <path id="Trazado_873552" data-name="Trazado 873552" d="M122.709,169.332l1.181,2.693.019-6.782-1.181-2.693Z" transform="translate(34.781 46.074)" fill="#114f6b"/>
        <path id="Trazado_873553" data-name="Trazado 873553" d="M123.629,171.43h3.73l.018-6.782h-3.728Z" transform="translate(35.042 46.669)" fill="#114f6b"/>
        <g id="Grupo_1101016" data-name="Grupo 1101016">
          <g id="Grupo_1101015" data-name="Grupo 1101015" clip-path="url(#clip-path)">
            <path id="Trazado_873554" data-name="Trazado 873554" d="M121.635,153.267c1.947-1.473,5.632-1.778,8.228-.68s3.124,3.18,1.177,4.652-5.632,1.778-8.228.68-3.124-3.179-1.177-4.653" transform="translate(34.144 43.063)" fill="#114f6b"/>
            <path id="Trazado_873555" data-name="Trazado 873555" d="M144.2,6.295c-5.133-2.963-9.477-3.807-12.089-3.569l-6.336,3.682,2.431,10.483c1.887-.4,4.783.263,7.172,1.643,3.615,2.259,5.275,5.134,5.267,8.036-.008,2.824-1.9,4.4-4.215,6.236-3.274,2.6-4.515,6.221-4.309,10.582l.063,2.2,5.135,2.965-5.2,3.023a2.89,2.89,0,0,1,.517-.19c-1.459.506-2.36,2.073-2.368,4.593a13.634,13.634,0,0,0,6.42,11.292c1.944,1.123,3.562,1.253,4.7.574-.022.019,6.316-3.664,6.316-3.664,1.172-.68,1.844-2.211,1.851-4.406A13.805,13.805,0,0,0,144.6,49.525l3.549-2.061.005-1.491c-.059-3.786,1.041-6.4,3.726-8.262,2.754-1.912,6.176-4.1,6.194-10.419.019-6.9-4.3-15.476-13.868-21" transform="translate(35.651 0.762)" fill="#1d531a"/>
            <path id="Trazado_873556" data-name="Trazado 873556" d="M135.742,41.431a13.625,13.625,0,0,1,6.489,11.319c-.013,4.328-2.617,6.075-6.533,3.814a13.641,13.641,0,0,1-6.42-11.292c.013-4.407,2.7-6.016,6.463-3.841" transform="translate(36.644 11.471)" fill="#3ba935"/>
            <path id="Trazado_873557" data-name="Trazado 873557" d="M137.867,9.164c9.563,5.523,13.886,14.1,13.866,21-.017,6.32-3.438,8.507-6.194,10.419-2.685,1.858-3.784,4.475-3.726,8.262l-.005,1.491-9.622-5.556-.063-2.2c-.2-4.361,1.036-7.98,4.309-10.583,2.317-1.834,4.207-3.411,4.217-6.235.006-2.9-1.653-5.777-5.269-8.037-2.388-1.378-5.284-2.046-7.171-1.643L125.777,5.594c2.613-.237,6.956.606,12.09,3.569" transform="translate(35.651 1.575)" fill="#3ba935"/>
            <path id="Trazado_873558" data-name="Trazado 873558" d="M6.372,121.973,2.6,119.783.84,81.729,12.754,74.85l6.564,3.814-1.613,40-5.022,2.9,5.615,3.264a2.994,2.994,0,0,0-.539-.2c1.517.524,2.446,2.148,2.454,4.753a14.151,14.151,0,0,1-6.72,11.735c-2,1.154-3.65,1.28-4.814.578.036.031-6.526-3.784-6.526-3.784-1.217-.706-1.908-2.308-1.915-4.6a14.189,14.189,0,0,1,6.135-11.343" transform="translate(0.067 21.216)" fill="#bf681d"/>
            <path id="Trazado_873559" data-name="Trazado 873559" d="M12,114.489A14.124,14.124,0,0,0,5.35,126.183c.013,4.482,2.65,6.326,6.693,3.992a14.148,14.148,0,0,0,6.719-11.735c-.013-4.564-2.793-6.244-6.764-3.95" transform="translate(1.516 32.162)" fill="#fac22d"/>
            <path id="Trazado_873560" data-name="Trazado 873560" d="M7.584,122.754l8.537-4.928,1.613-40L5.821,84.7Z" transform="translate(1.65 22.058)" fill="#fac22d"/>
            <g id="Grupo_1101011" data-name="Grupo 1101011" transform="translate(21.19 72.714)" opacity="0.3" style="mix-blend-mode: multiply;isolation: isolate">
              <g id="Grupo_1101010" data-name="Grupo 1101010">
                <g id="Grupo_1101009" data-name="Grupo 1101009" clip-path="url(#clip-path-5)">
                  <path id="Trazado_873561" data-name="Trazado 873561" d="M232.552,113.353l-118.13,68-97.912-56.7,118.13-68Z" transform="translate(-16.51 -56.655)" fill="#4694b8"/>
                </g>
              </g>
            </g>
            <g id="Grupo_1101014" data-name="Grupo 1101014" transform="translate(183.796 170.961)" opacity="0.3" style="mix-blend-mode: multiply;isolation: isolate">
              <g id="Grupo_1101013" data-name="Grupo 1101013">
                <g id="Grupo_1101012" data-name="Grupo 1101012" clip-path="url(#clip-path-6)">
                  <path id="Trazado_873562" data-name="Trazado 873562" d="M177.768,150.021l-17.461,2.494c-6.53.871-13.821-2.154-16.286-6.755s.833-9.039,7.364-9.911l17.461-2.494c6.53-.871,13.821,2.154,16.284,6.755s-.833,9.039-7.363,9.911" transform="translate(-143.205 -133.205)" fill="#4694b8"/>
                </g>
              </g>
            </g>
            <path id="Trazado_873563" data-name="Trazado 873563" d="M222.435,109.416,108.061,175.451l-72.3-41.742V129.7L150.138,67.675l72.3,37.732Z" transform="translate(10.137 19.182)"/>
            <path id="Trazado_873564" data-name="Trazado 873564" d="M222.435,106.292,108.061,172.327l-72.3-41.74L150.138,64.552Z" transform="translate(10.137 18.297)" fill="#666"/>
            <path id="Trazado_873565" data-name="Trazado 873565" d="M48.958,124.677,139.849,72.2l41.7,24.076L90.657,148.75Z" transform="translate(13.877 20.465)" fill="#fff"/>
            <path id="Trazado_873566" data-name="Trazado 873566" d="M50.643,113.983l7.023-4.054,5.358,3.093L56,117.076Z" transform="translate(14.355 31.159)" fill="#4d4d4d"/>
            <path id="Trazado_873567" data-name="Trazado 873567" d="M57.009,110.307l7.022-4.054,5.358,3.093L62.367,113.4Z" transform="translate(16.159 30.117)" fill="#4d4d4d"/>
            <path id="Trazado_873568" data-name="Trazado 873568" d="M63.375,106.632l7.024-4.054,5.357,3.093-7.023,4.054Z" transform="translate(17.963 29.075)" fill="#4d4d4d"/>
            <path id="Trazado_873569" data-name="Trazado 873569" d="M69.741,102.957,76.764,98.9,82.122,102,75.1,106.05Z" transform="translate(19.768 28.033)" fill="#4d4d4d"/>
            <path id="Trazado_873570" data-name="Trazado 873570" d="M76.107,99.281l7.023-4.054,5.357,3.093-7.022,4.054Z" transform="translate(21.572 26.992)" fill="#4d4d4d"/>
            <path id="Trazado_873571" data-name="Trazado 873571" d="M82.473,95.605,89.5,91.551l5.358,3.093L87.831,98.7Z" transform="translate(23.377 25.95)" fill="#4d4d4d"/>
            <path id="Trazado_873572" data-name="Trazado 873572" d="M88.839,91.93l7.023-4.054,5.358,3.093L94.2,95.023Z" transform="translate(25.181 24.908)" fill="#4d4d4d"/>
            <path id="Trazado_873573" data-name="Trazado 873573" d="M95.205,88.255l7.023-4.054,5.358,3.093-7.023,4.054Z" transform="translate(26.986 23.866)" fill="#4d4d4d"/>
            <path id="Trazado_873574" data-name="Trazado 873574" d="M101.571,84.58l7.023-4.056,5.358,3.094-7.023,4.054Z" transform="translate(28.79 22.824)" fill="#4d4d4d"/>
            <path id="Trazado_873575" data-name="Trazado 873575" d="M107.937,80.9l7.023-4.054,5.358,3.093L113.3,84Z" transform="translate(30.594 21.783)" fill="#4d4d4d"/>
            <path id="Trazado_873576" data-name="Trazado 873576" d="M114.3,77.229l7.023-4.056,5.358,3.094-7.023,4.056Z" transform="translate(32.399 20.741)" fill="#4d4d4d"/>
            <path id="Trazado_873577" data-name="Trazado 873577" d="M58.128,118.3l7.023-4.054,5.358,3.093L63.486,121.4Z" transform="translate(16.476 32.384)" fill="#4d4d4d"/>
            <path id="Trazado_873578" data-name="Trazado 873578" d="M64.494,114.629l7.023-4.056,5.357,3.094-7.022,4.054Z" transform="translate(18.281 31.342)" fill="#4d4d4d"/>
            <path id="Trazado_873579" data-name="Trazado 873579" d="M70.86,110.953l7.023-4.054,5.358,3.093-7.023,4.056Z" transform="translate(20.085 30.3)" fill="#4d4d4d"/>
            <path id="Trazado_873580" data-name="Trazado 873580" d="M77.226,107.278l7.023-4.054,5.358,3.093-7.023,4.056Z" transform="translate(21.889 29.258)" fill="#4d4d4d"/>
            <path id="Trazado_873581" data-name="Trazado 873581" d="M83.592,103.6l7.023-4.054,5.358,3.093L88.951,106.7Z" transform="translate(23.694 28.217)" fill="#4d4d4d"/>
            <path id="Trazado_873582" data-name="Trazado 873582" d="M89.958,99.927l7.023-4.054,5.358,3.093-7.023,4.054Z" transform="translate(25.498 27.175)" fill="#4d4d4d"/>
            <path id="Trazado_873583" data-name="Trazado 873583" d="M96.324,96.251l7.023-4.054,5.358,3.093-7.023,4.056Z" transform="translate(27.303 26.133)" fill="#4d4d4d"/>
            <path id="Trazado_873584" data-name="Trazado 873584" d="M102.69,92.576l7.023-4.054,5.358,3.093-7.023,4.056Z" transform="translate(29.107 25.091)" fill="#4d4d4d"/>
            <path id="Trazado_873585" data-name="Trazado 873585" d="M109.056,88.9l7.023-4.054,5.358,3.093-7.023,4.056Z" transform="translate(30.911 24.049)" fill="#4d4d4d"/>
            <path id="Trazado_873586" data-name="Trazado 873586" d="M115.422,85.225l7.023-4.054,5.358,3.093-7.023,4.054Z" transform="translate(32.716 23.008)" fill="#4d4d4d"/>
            <path id="Trazado_873587" data-name="Trazado 873587" d="M121.788,81.55l7.023-4.054,5.358,3.093-7.023,4.056Z" transform="translate(34.52 21.966)" fill="#4d4d4d"/>
            <path id="Trazado_873588" data-name="Trazado 873588" d="M62.914,121.067l7.023-4.054,5.358,3.093-7.023,4.056Z" transform="translate(17.833 33.167)" fill="#4d4d4d"/>
            <path id="Trazado_873589" data-name="Trazado 873589" d="M69.28,117.392l7.023-4.056,5.358,3.094-7.023,4.054Z" transform="translate(19.637 32.125)" fill="#4d4d4d"/>
            <path id="Trazado_873590" data-name="Trazado 873590" d="M75.646,113.717l7.023-4.054,5.358,3.093L81,116.81Z" transform="translate(21.442 31.083)" fill="#4d4d4d"/>
            <path id="Trazado_873591" data-name="Trazado 873591" d="M82.012,110.041l7.023-4.054,5.358,3.093-7.023,4.056Z" transform="translate(23.246 30.042)" fill="#4d4d4d"/>
            <path id="Trazado_873592" data-name="Trazado 873592" d="M88.378,106.366l7.023-4.054,5.358,3.093-7.023,4.056Z" transform="translate(25.05 29)" fill="#4d4d4d"/>
            <path id="Trazado_873593" data-name="Trazado 873593" d="M94.744,102.69l7.022-4.054,5.36,3.093-7.023,4.054Z" transform="translate(26.855 27.958)" fill="#4d4d4d"/>
            <path id="Trazado_873594" data-name="Trazado 873594" d="M101.111,99.015l7.023-4.056,5.358,3.094-7.023,4.054Z" transform="translate(28.659 26.916)" fill="#4d4d4d"/>
            <path id="Trazado_873595" data-name="Trazado 873595" d="M107.476,95.339l7.023-4.054,5.358,3.093-7.023,4.056Z" transform="translate(30.464 25.874)" fill="#4d4d4d"/>
            <path id="Trazado_873596" data-name="Trazado 873596" d="M113.842,91.664l7.023-4.054,5.358,3.093L119.2,94.758Z" transform="translate(32.268 24.833)" fill="#4d4d4d"/>
            <path id="Trazado_873597" data-name="Trazado 873597" d="M120.209,87.988l7.023-4.054,5.358,3.093-7.024,4.054Z" transform="translate(34.073 23.791)" fill="#4d4d4d"/>
            <path id="Trazado_873598" data-name="Trazado 873598" d="M67.7,123.831l7.023-4.054,5.358,3.093-7.023,4.056Z" transform="translate(19.189 33.95)" fill="#4d4d4d"/>
            <path id="Trazado_873599" data-name="Trazado 873599" d="M74.066,120.155l7.023-4.054,5.358,3.093-7.023,4.056Z" transform="translate(20.994 32.908)" fill="#4d4d4d"/>
            <path id="Trazado_873600" data-name="Trazado 873600" d="M80.432,116.48l7.023-4.054,5.358,3.093-7.023,4.054Z" transform="translate(22.798 31.867)" fill="#4d4d4d"/>
            <path id="Trazado_873601" data-name="Trazado 873601" d="M86.8,112.8l7.023-4.054,5.358,3.093L92.157,115.9Z" transform="translate(24.603 30.825)" fill="#4d4d4d"/>
            <path id="Trazado_873602" data-name="Trazado 873602" d="M93.164,109.129l7.023-4.054,5.358,3.093-7.023,4.056Z" transform="translate(26.407 29.783)" fill="#4d4d4d"/>
            <path id="Trazado_873603" data-name="Trazado 873603" d="M99.53,105.454l7.023-4.054,5.358,3.093-7.023,4.054Z" transform="translate(28.212 28.741)" fill="#4d4d4d"/>
            <path id="Trazado_873604" data-name="Trazado 873604" d="M105.9,101.779l7.023-4.056,5.358,3.094-7.023,4.054Z" transform="translate(30.016 27.699)" fill="#4d4d4d"/>
            <path id="Trazado_873605" data-name="Trazado 873605" d="M112.263,98.1l7.022-4.054,5.36,3.093-7.023,4.054Z" transform="translate(31.82 26.658)" fill="#4d4d4d"/>
            <path id="Trazado_873606" data-name="Trazado 873606" d="M118.629,94.428l7.023-4.054,5.358,3.093-7.024,4.054Z" transform="translate(33.625 25.616)" fill="#4d4d4d"/>
            <path id="Trazado_873607" data-name="Trazado 873607" d="M127.022,84.314l6.143,3.546-8.17,4.717,5.358,3.094,8.17-4.718,2.051-1.183,4.972-2.871-4.56-2.634-.8-.459-6.143-3.547Z" transform="translate(35.429 22.749)" fill="#4d4d4d"/>
            <path id="Trazado_873608" data-name="Trazado 873608" d="M82.8,121.684l-2.14,1.235-8.17,4.718,5.358,3.093,8.17-4.718,2.14-1.235,4.884-2.82-5.358-3.093Z" transform="translate(20.546 33.692)" fill="#4d4d4d"/>
            <path id="Trazado_873609" data-name="Trazado 873609" d="M85.219,119.243l7.023-4.054,5.358,3.093-7.023,4.054Z" transform="translate(24.155 32.65)" fill="#4d4d4d"/>
            <path id="Trazado_873610" data-name="Trazado 873610" d="M91.585,115.568l7.023-4.056,5.358,3.094-7.023,4.054Z" transform="translate(25.959 31.608)" fill="#4d4d4d"/>
            <path id="Trazado_873611" data-name="Trazado 873611" d="M97.951,111.893l7.023-4.054,5.358,3.093-7.023,4.054Z" transform="translate(27.764 30.566)" fill="#4d4d4d"/>
            <path id="Trazado_873612" data-name="Trazado 873612" d="M104.317,108.217l7.023-4.054,5.358,3.093-7.023,4.054Z" transform="translate(29.568 29.525)" fill="#4d4d4d"/>
            <path id="Trazado_873613" data-name="Trazado 873613" d="M110.683,104.542l7.023-4.054,5.358,3.093-7.023,4.056Z" transform="translate(31.373 28.483)" fill="#4d4d4d"/>
            <path id="Trazado_873614" data-name="Trazado 873614" d="M117.049,100.866l7.023-4.054L129.43,99.9l-7.023,4.054Z" transform="translate(33.177 27.441)" fill="#4d4d4d"/>
            <path id="Trazado_873615" data-name="Trazado 873615" d="M123.415,97.191l7.022-4.054L135.8,96.23l-7.022,4.054Z" transform="translate(34.982 26.399)" fill="#4d4d4d"/>
            <path id="Trazado_873616" data-name="Trazado 873616" d="M136.8,90.5l-1.2.694-5.82,3.36,5.357,3.093,5.822-3.36,1.2-.693,8.17-4.718-5.357-3.093Z" transform="translate(36.786 24.316)" fill="#4d4d4d"/>
            <path id="Trazado_873617" data-name="Trazado 873617" d="M77.273,129.358,84.3,125.3l5.358,3.093-7.023,4.054Z" transform="translate(21.903 35.517)" fill="#4d4d4d"/>
            <path id="Trazado_873618" data-name="Trazado 873618" d="M83.639,125.682l7.023-4.054,5.358,3.093L89,128.775Z" transform="translate(23.707 34.475)" fill="#4d4d4d"/>
            <path id="Trazado_873619" data-name="Trazado 873619" d="M90,122.007l7.023-4.056,5.358,3.093L95.363,125.1Z" transform="translate(25.512 33.433)" fill="#4d4d4d"/>
            <path id="Trazado_873620" data-name="Trazado 873620" d="M132.564,101.6l-3.511,2.027-1.147.664-7.023,4.054-1.147.662-7.023,4.054-1.147.664-7.023,4.054-8.17,4.717,5.358,3.093,8.17-4.717,7.023-4.054,1.147-.662,7.023-4.054,1.147-.664,7.023-4.053,1.147-.664,3.511-2.027,3.512-2.028-5.358-3.094Z" transform="translate(27.316 28.224)" fill="#4d4d4d"/>
            <path id="Trazado_873621" data-name="Trazado 873621" d="M128.2,99.954l7.023-4.054,5.358,3.093-7.023,4.056Z" transform="translate(36.338 27.182)" fill="#4d4d4d"/>
            <path id="Trazado_873622" data-name="Trazado 873622" d="M134.568,96.279l7.022-4.056,5.358,3.094-7.023,4.054Z" transform="translate(38.143 26.14)" fill="#4d4d4d"/>
            <path id="Trazado_873623" data-name="Trazado 873623" d="M140.933,92.6l7.022-4.054,5.358,3.093L146.292,95.7Z" transform="translate(39.947 25.099)" fill="#4d4d4d"/>
            <path id="Trazado_873624" data-name="Trazado 873624" d="M50.643,113.359l7.023-4.054,5.358,3.093L56,116.452Z" transform="translate(14.355 30.982)" fill="#e6e6e6"/>
            <path id="Trazado_873625" data-name="Trazado 873625" d="M57.009,109.684l7.022-4.054,5.358,3.093-7.022,4.054Z" transform="translate(16.159 29.94)" fill="#b3b3b3"/>
            <path id="Trazado_873626" data-name="Trazado 873626" d="M63.375,106.008l7.024-4.054,5.357,3.093L68.733,109.1Z" transform="translate(17.963 28.898)" fill="#b3b3b3"/>
            <path id="Trazado_873627" data-name="Trazado 873627" d="M69.741,102.333l7.023-4.054,5.358,3.093L75.1,105.426Z" transform="translate(19.768 27.857)" fill="#b3b3b3"/>
            <path id="Trazado_873628" data-name="Trazado 873628" d="M76.107,98.657,83.13,94.6,88.487,97.7l-7.022,4.056Z" transform="translate(21.572 26.815)" fill="#b3b3b3"/>
            <path id="Trazado_873629" data-name="Trazado 873629" d="M82.473,94.982,89.5,90.928l5.358,3.093-7.023,4.054Z" transform="translate(23.377 25.773)" fill="#b3b3b3"/>
            <path id="Trazado_873630" data-name="Trazado 873630" d="M88.839,91.307l7.023-4.054,5.358,3.093L94.2,94.4Z" transform="translate(25.181 24.731)" fill="#b3b3b3"/>
            <path id="Trazado_873631" data-name="Trazado 873631" d="M95.205,87.631l7.023-4.054,5.358,3.093-7.023,4.054Z" transform="translate(26.986 23.69)" fill="#b3b3b3"/>
            <path id="Trazado_873632" data-name="Trazado 873632" d="M101.571,83.956l7.023-4.054,5.358,3.093-7.023,4.054Z" transform="translate(28.79 22.648)" fill="#b3b3b3"/>
            <path id="Trazado_873633" data-name="Trazado 873633" d="M107.937,80.28l7.023-4.054,5.358,3.093L113.3,83.373Z" transform="translate(30.594 21.606)" fill="#b3b3b3"/>
            <path id="Trazado_873634" data-name="Trazado 873634" d="M114.3,76.6l7.023-4.054,5.358,3.093L119.662,79.7Z" transform="translate(32.399 20.564)" fill="#b3b3b3"/>
            <path id="Trazado_873635" data-name="Trazado 873635" d="M58.128,117.681l7.023-4.054,5.358,3.093-7.023,4.054Z" transform="translate(16.476 32.207)" fill="#b3b3b3"/>
            <path id="Trazado_873636" data-name="Trazado 873636" d="M64.494,114.006l7.023-4.056,5.357,3.094L69.852,117.1Z" transform="translate(18.281 31.165)" fill="#b3b3b3"/>
            <path id="Trazado_873637" data-name="Trazado 873637" d="M70.86,110.33l7.023-4.054,5.358,3.093-7.023,4.056Z" transform="translate(20.085 30.123)" fill="#b3b3b3"/>
            <path id="Trazado_873638" data-name="Trazado 873638" d="M77.226,106.655l7.023-4.056,5.358,3.094-7.023,4.056Z" transform="translate(21.889 29.081)" fill="#b3b3b3"/>
            <path id="Trazado_873639" data-name="Trazado 873639" d="M83.592,102.979l7.023-4.056,5.358,3.094-7.023,4.054Z" transform="translate(23.694 28.04)" fill="#b3b3b3"/>
            <path id="Trazado_873640" data-name="Trazado 873640" d="M89.958,99.3l7.023-4.054,5.358,3.093L95.316,102.4Z" transform="translate(25.498 26.998)" fill="#b3b3b3"/>
            <path id="Trazado_873641" data-name="Trazado 873641" d="M96.324,95.628l7.023-4.054,5.358,3.093-7.023,4.056Z" transform="translate(27.303 25.956)" fill="#b3b3b3"/>
            <path id="Trazado_873642" data-name="Trazado 873642" d="M102.69,91.952l7.023-4.054,5.358,3.093-7.023,4.056Z" transform="translate(29.107 24.914)" fill="#b3b3b3"/>
            <path id="Trazado_873643" data-name="Trazado 873643" d="M109.056,88.277l7.023-4.054,5.358,3.094-7.023,4.054Z" transform="translate(30.911 23.873)" fill="#b3b3b3"/>
            <path id="Trazado_873644" data-name="Trazado 873644" d="M115.422,84.6l7.023-4.054L127.8,83.64l-7.023,4.054Z" transform="translate(32.716 22.831)" fill="#b3b3b3"/>
            <path id="Trazado_873645" data-name="Trazado 873645" d="M121.788,80.926l7.023-4.054,5.358,3.093-7.023,4.056Z" transform="translate(34.52 21.789)" fill="#b3b3b3"/>
            <path id="Trazado_873646" data-name="Trazado 873646" d="M62.914,120.444l7.023-4.054,5.358,3.093-7.023,4.056Z" transform="translate(17.833 32.99)" fill="#b3b3b3"/>
            <path id="Trazado_873647" data-name="Trazado 873647" d="M69.28,116.769l7.023-4.054,5.358,3.093-7.023,4.054Z" transform="translate(19.637 31.948)" fill="#b3b3b3"/>
            <path id="Trazado_873648" data-name="Trazado 873648" d="M75.646,113.094l7.023-4.056,5.358,3.094L81,116.187Z" transform="translate(21.442 30.906)" fill="#b3b3b3"/>
            <path id="Trazado_873649" data-name="Trazado 873649" d="M82.012,109.418l7.023-4.054,5.358,3.093-7.023,4.056Z" transform="translate(23.246 29.865)" fill="#b3b3b3"/>
            <path id="Trazado_873650" data-name="Trazado 873650" d="M88.378,105.742l7.023-4.054,5.358,3.093-7.023,4.056Z" transform="translate(25.05 28.823)" fill="#b3b3b3"/>
            <path id="Trazado_873651" data-name="Trazado 873651" d="M94.744,102.067l7.022-4.054,5.36,3.093L100.1,105.16Z" transform="translate(26.855 27.781)" fill="#b3b3b3"/>
            <path id="Trazado_873652" data-name="Trazado 873652" d="M101.111,98.391l7.023-4.054,5.358,3.093-7.023,4.054Z" transform="translate(28.659 26.739)" fill="#b3b3b3"/>
            <path id="Trazado_873653" data-name="Trazado 873653" d="M107.476,94.716l7.023-4.054,5.358,3.093-7.023,4.056Z" transform="translate(30.464 25.698)" fill="#b3b3b3"/>
            <path id="Trazado_873654" data-name="Trazado 873654" d="M113.842,91.04l7.023-4.054,5.358,3.094L119.2,94.135Z" transform="translate(32.268 24.656)" fill="#b3b3b3"/>
            <path id="Trazado_873655" data-name="Trazado 873655" d="M120.209,87.365l7.023-4.054L132.59,86.4l-7.024,4.054Z" transform="translate(34.073 23.614)" fill="#b3b3b3"/>
            <path id="Trazado_873656" data-name="Trazado 873656" d="M67.7,123.207l7.023-4.054,5.358,3.093L73.059,126.3Z" transform="translate(19.189 33.773)" fill="#b3b3b3"/>
            <path id="Trazado_873657" data-name="Trazado 873657" d="M74.066,119.532l7.023-4.054,5.358,3.093-7.023,4.056Z" transform="translate(20.994 32.732)" fill="#b3b3b3"/>
            <path id="Trazado_873658" data-name="Trazado 873658" d="M80.432,115.857l7.023-4.056,5.358,3.094-7.023,4.054Z" transform="translate(22.798 31.69)" fill="#b3b3b3"/>
            <path id="Trazado_873659" data-name="Trazado 873659" d="M86.8,112.181l7.023-4.054,5.358,3.093-7.023,4.054Z" transform="translate(24.603 30.648)" fill="#b3b3b3"/>
            <path id="Trazado_873660" data-name="Trazado 873660" d="M93.164,108.505l7.023-4.054,5.358,3.093L98.523,111.6Z" transform="translate(26.407 29.606)" fill="#b3b3b3"/>
            <path id="Trazado_873661" data-name="Trazado 873661" d="M99.53,104.83l7.023-4.054,5.358,3.093-7.023,4.054Z" transform="translate(28.212 28.565)" fill="#b3b3b3"/>
            <path id="Trazado_873662" data-name="Trazado 873662" d="M105.9,101.155,112.92,97.1l5.358,3.094-7.023,4.054Z" transform="translate(30.016 27.523)" fill="#b3b3b3"/>
            <path id="Trazado_873663" data-name="Trazado 873663" d="M112.263,97.48l7.022-4.054,5.36,3.093-7.023,4.054Z" transform="translate(31.82 26.481)" fill="#b3b3b3"/>
            <path id="Trazado_873664" data-name="Trazado 873664" d="M118.629,93.8l7.023-4.054,5.358,3.093L123.986,96.9Z" transform="translate(33.625 25.439)" fill="#b3b3b3"/>
            <path id="Trazado_873665" data-name="Trazado 873665" d="M127.022,83.69l6.143,3.546-8.17,4.718,5.358,3.093,8.17-4.717,2.051-1.185,4.972-2.871-4.56-2.634-.8-.459-6.143-3.546Z" transform="translate(35.429 22.572)" fill="#e6e6e6"/>
            <path id="Trazado_873666" data-name="Trazado 873666" d="M82.8,121.061l-2.14,1.235-8.17,4.718,5.358,3.093,8.17-4.718,2.14-1.235,4.884-2.82-5.358-3.093Z" transform="translate(20.546 33.515)" fill="#e6e6e6"/>
            <path id="Trazado_873667" data-name="Trazado 873667" d="M85.219,118.62l7.023-4.054,5.358,3.093-7.023,4.054Z" transform="translate(24.155 32.473)" fill="#b3b3b3"/>
            <path id="Trazado_873668" data-name="Trazado 873668" d="M91.585,114.944l7.023-4.054,5.358,3.093-7.023,4.054Z" transform="translate(25.959 31.431)" fill="#b3b3b3"/>
            <path id="Trazado_873669" data-name="Trazado 873669" d="M97.951,111.269l7.023-4.054,5.358,3.093-7.023,4.054Z" transform="translate(27.764 30.39)" fill="#b3b3b3"/>
            <path id="Trazado_873670" data-name="Trazado 873670" d="M104.317,107.594l7.023-4.054,5.358,3.093-7.023,4.054Z" transform="translate(29.568 29.348)" fill="#b3b3b3"/>
            <path id="Trazado_873671" data-name="Trazado 873671" d="M110.683,103.918l7.023-4.054,5.358,3.093-7.023,4.054Z" transform="translate(31.373 28.306)" fill="#b3b3b3"/>
            <path id="Trazado_873672" data-name="Trazado 873672" d="M117.049,100.243l7.023-4.054,5.358,3.093-7.023,4.054Z" transform="translate(33.177 27.264)" fill="#b3b3b3"/>
            <path id="Trazado_873673" data-name="Trazado 873673" d="M123.415,96.567l7.022-4.054,5.358,3.093-7.022,4.054Z" transform="translate(34.982 26.222)" fill="#b3b3b3"/>
            <path id="Trazado_873674" data-name="Trazado 873674" d="M136.8,89.879l-1.2.694-5.82,3.36,5.357,3.093,5.822-3.36,1.2-.693,8.17-4.718-5.357-3.093Z" transform="translate(36.786 24.139)" fill="#e6e6e6"/>
            <path id="Trazado_873675" data-name="Trazado 873675" d="M77.273,128.734,84.3,124.68l5.358,3.093-7.023,4.054Z" transform="translate(21.903 35.34)" fill="#e6e6e6"/>
            <path id="Trazado_873676" data-name="Trazado 873676" d="M83.639,125.059,90.662,121,96.02,124.1,89,128.152Z" transform="translate(23.707 34.298)" fill="#b3b3b3"/>
            <path id="Trazado_873677" data-name="Trazado 873677" d="M90,121.383l7.023-4.054,5.358,3.093-7.023,4.054Z" transform="translate(25.512 33.256)" fill="#b3b3b3"/>
            <path id="Trazado_873678" data-name="Trazado 873678" d="M132.564,100.979l-3.511,2.027-1.147.664-7.023,4.054-1.147.662-7.023,4.054-1.147.662-7.023,4.056-8.17,4.717,5.358,3.093,8.17-4.717,7.023-4.054,1.147-.662,7.023-4.054,1.147-.664,7.023-4.054,1.147-.662,3.511-2.028,3.512-2.027-5.358-3.094Z" transform="translate(27.316 28.047)" fill="#e6e6e6"/>
            <path id="Trazado_873679" data-name="Trazado 873679" d="M128.2,99.331l7.023-4.054,5.358,3.093-7.023,4.056Z" transform="translate(36.338 27.006)" fill="#b3b3b3"/>
            <path id="Trazado_873680" data-name="Trazado 873680" d="M134.568,95.655l7.022-4.054,5.358,3.093-7.023,4.054Z" transform="translate(38.143 25.964)" fill="#b3b3b3"/>
            <path id="Trazado_873681" data-name="Trazado 873681" d="M140.933,91.98l7.022-4.054,5.358,3.093-7.022,4.054Z" transform="translate(39.947 24.922)" fill="#e6e6e6"/>
            <path id="Trazado_873682" data-name="Trazado 873682" d="M152.5,81.8,41.3,148.883l-3.175-1.045-21.893-81.8L130.606,0l3.177,1.045Z" transform="translate(4.601 0)"/>
            <path id="Trazado_873683" data-name="Trazado 873683" d="M154.973,82.618,40.6,148.652l-21.892-81.8L133.081.813Z" transform="translate(5.302 0.231)" fill="#333"/>
            <path id="Trazado_873684" data-name="Trazado 873684" d="M150.083,79.8l-108.2,62.472-.335-1.244L21.83,67.355,128.791,5.607l1.244-.724Z" transform="translate(6.188 1.384)" fill="#fff"/>
            <path id="Trazado_873685" data-name="Trazado 873685" d="M148.5,79.123,41.544,140.871,21.83,67.194,128.791,5.448Z" transform="translate(6.188 1.544)" fill="#3ba935"/>
            <path id="Trazado_873686" data-name="Trazado 873686" d="M153.443,115.42l-27.006,15.591-16.949-9.785,27.006-15.593Z" transform="translate(31.034 29.941)" fill="#333"/>
          </g>
        </g>
        <g id="Grupo_1101030" data-name="Grupo 1101030" transform="translate(28.016 6.991)">
          <g id="Grupo_1101029" data-name="Grupo 1101029" clip-path="url(#clip-path-7)">
            <path id="Trazado_873687" data-name="Trazado 873687" d="M103.855,44.066l-.9-.083c.883,1.763.656,4.524.384,6.553l.871.4c.3-2.214.471-4.849-.352-6.872" transform="translate(1.165 5.476)" fill="#999"/>
            <path id="Trazado_873688" data-name="Trazado 873688" d="M100.151,66.28l-.28-.621a4.392,4.392,0,0,0,1.88-2.472c.679-1.811-.565-6.676-.578-6.725l.658-.171c.054.209,1.312,5.125.558,7.136a4.945,4.945,0,0,1-2.24,2.853" transform="translate(0.292 8.965)" fill="#333"/>
            <path id="Trazado_873689" data-name="Trazado 873689" d="M41.737,143.42c-1.024,3.279-1.23,4.233-.8,6.662a35.869,35.869,0,0,1,1.511,3.642c.629,2.195.533,5.863,3.8,8.057,3.894,3.075,11.42,3.216,13.788-.063a17.23,17.23,0,0,0-3.032-7.988l-3.823-7.106.244-6.657-10.977-2.41Z" transform="translate(-16.473 31.999)"/>
            <path id="Trazado_873690" data-name="Trazado 873690" d="M74.511,130.313c-.969,1.276-.966,4.229-.741,7.567.9,3.372,4.1,3.111,6.827,3.537,5.265.821,7.883,4.781,14.888,4.769,4.162-.006,6.94-.9,7.814-3.536.128-1.215-.581-2.45-2.056-3.7,0,0-9.541-4.276-9.788-4.442a49.45,49.45,0,0,1-4.606-3.618c-.082-.33-1.645-7.649-1.645-7.649H74.922Z" transform="translate(-7.142 27.941)"/>
            <path id="Trazado_873691" data-name="Trazado 873691" d="M89.623,145.184c-4.239,2.532-10.016,4.826-12.6,3.651a2.107,2.107,0,0,1-1.287-1.609c-.266-1.174-.5-2.35-.742-3.524-2.265-11.22-3.343-21.935-1.287-31.364L68.486,94.544l-.14-.476-1.162-3.986-.14-.476c-.1-10.841,4.407-14.771,12.24-13.708.448.069.9.14,1.371.237.336.056.7.14,1.05.225.5.126,1.007.266,1.539.418l1.022,6.268L88.658,110c1.287,10.436-.825,26.089.965,35.182" transform="translate(-9.013 14.474)" fill="#25435c"/>
            <g id="Grupo_1101019" data-name="Grupo 1101019" transform="translate(57.024 95.407)" opacity="0.5" style="mix-blend-mode: multiply;isolation: isolate">
              <g id="Grupo_1101018" data-name="Grupo 1101018">
                <g id="Grupo_1101017" data-name="Grupo 1101017" clip-path="url(#clip-path-8)">
                  <path id="Trazado_873692" data-name="Trazado 873692" d="M77.241,147.686a2.108,2.108,0,0,1-1.287-1.608c-.266-1.176-.5-2.351-.741-3.526-2.267-11.22-3.343-21.934-1.287-31.364L68.708,93.395l-.14-.475c-.28,1.594-.783,4.169-.992,5.329-.225,1.218-.448,2.449-.687,3.694L66.26,90.388l1.147-1.455,7.246-9.148c-.14,1.636-.225,3.273-.266,4.937A120.683,120.683,0,0,0,77.241,111.3c-2.727,9.066-1.328,22.761,0,36.386" transform="translate(-66.259 -79.784)" fill="#162b35"/>
                </g>
              </g>
            </g>
            <path id="Trazado_873693" data-name="Trazado 873693" d="M84.588,76.653a13.684,13.684,0,0,1-.624,3.841c-.932,3.227-6.2-.673-8.154,1.843-2.353,3.035-1.421,12.3-2.3,14.174-.03.2-.086.461-.135.778-.279,1.593-.778,4.176-.988,5.329-.231,1.23-.452,2.458-.692,3.707-.816,4.341-1.757,8.815-2.775,13.425-.855,3.8-1.778,7.662-2.708,11.619a165.165,165.165,0,0,0-4.389,34.55c-3.677,1.7-8,1.373-10.544-.481a5.34,5.34,0,0,1-1.978-2.563c.049-4.917.067-9.93.193-14.606.221-9.718.911-18.091,3.064-21.826l.028-38.593C50.537,80.59,50.125,67.588,54.32,64.5a1.189,1.189,0,0,1,.182-.144L71.067,68.01c5.628-.652,9.5,6.483,11.822,6.213Z" transform="translate(-14.043 11.249)" fill="#25435c"/>
            <g id="Grupo_1101022" data-name="Grupo 1101022" transform="translate(35.255 75.745)" opacity="0.5" style="mix-blend-mode: multiply;isolation: isolate">
              <g id="Grupo_1101021" data-name="Grupo 1101021">
                <g id="Grupo_1101020" data-name="Grupo 1101020" clip-path="url(#clip-path-9)">
                  <path id="Trazado_873694" data-name="Trazado 873694" d="M59.717,119.592c-5.406,8-8.238,29.768-8.441,45.814a5.351,5.351,0,0,1-1.978-2.564c.049-4.916.067-9.929.193-14.606.221-9.717.911-18.09,3.064-21.826l.028-38.593c-2.046-7.259-2.458-20.26,1.738-23.354L61.253,82.2c-.135,15.432-4.513,24.8-1.536,37.393" transform="translate(-49.298 -64.464)" fill="#162b35"/>
                </g>
              </g>
            </g>
            <path id="Trazado_873695" data-name="Trazado 873695" d="M103.314,54.923l-5.93,19.159-8.2,20.531s-7.722-2.726-7.384-3.764,3.639-18.017,3.639-18.017l3.132-12.625Z" transform="translate(-4.833 8.577)" fill="#94cdf2"/>
            <path id="Trazado_873696" data-name="Trazado 873696" d="M110.376,63.457c-2.717,5.935-5.781,11.216-10.5,13.4L89.826,80.693l.72,4.705c-.452.365-.913.72-1.373,1.047a31.228,31.228,0,0,1-9.065,4.695c-7,2.228-14,1.3-19.647-3a25.515,25.515,0,0,1-6.75-8.009c-1.373-3.764-2.258-7.538-1.047-10.784.855-2.286,2.747-4.311,6.261-5.905L73.348,55.18l18.5-10.967c18.129-3.707,18.686,7.452,18.523,19.244" transform="translate(-13.251 5.336)" fill="#fff"/>
            <path id="Trazado_873697" data-name="Trazado 873697" d="M76.549,91.143l2.794-2.625,2.287-3.266,3.556-3.932L85.394,81c2.119,1.612,4.36,3.372,5.536,5.515l-.408,5.4-1.567,5.035L87.9,99.484c-.551,1.652-1.63,1.588-1.439,0l.339-1.778-1.767,3.829c-.751,1.7-1.79,1.358-1.548,0l1.452-5.607-2.79,5.008c-1.105,1.748-2.469,1.11-1.539-.816l1.577-3.6L83.2,93.514l-.719-3.768-1.694.72-2.774,1.969c-1.864,1.461-2.985.127-1.461-1.291" transform="translate(-6.521 15.967)" fill="#ffb294"/>
            <path id="Trazado_873698" data-name="Trazado 873698" d="M90.955,49.468a7.025,7.025,0,0,0-6.6,6.167c-1.043,6.078,2.323,13.289,6.728,15.808L93.3,65.1l3.058,2.693,3.459-10.473Z" transform="translate(-4.161 7.031)" fill="#bfe6ff"/>
            <path id="Trazado_873699" data-name="Trazado 873699" d="M97.823,63.13l-5.8,2c-4.519.616-5.29-3.608-5.588-8a6.256,6.256,0,0,1,2.807-5.646l2.781-1.828Z" transform="translate(-3.521 7.086)" fill="#ffb294"/>
            <g id="Grupo_1101025" data-name="Grupo 1101025" transform="translate(86.047 63.112)" opacity="0.5" style="mix-blend-mode: multiply;isolation: isolate">
              <g id="Grupo_1101024" data-name="Grupo 1101024">
                <g id="Grupo_1101023" data-name="Grupo 1101023" clip-path="url(#clip-path-10)">
                  <path id="Trazado_873700" data-name="Trazado 873700" d="M91.328,67.329c-2.917.925-3.31-2.011-.776-12.707l5.928,2.5c-.907,2.594-2.685,8.55-5.152,10.2" transform="translate(-88.873 -54.621)" fill="#ffb294"/>
                </g>
              </g>
            </g>
            <path id="Trazado_873701" data-name="Trazado 873701" d="M109.16,54.682c-.29,1.758-.923,2.643-1.756,4.9-.184.483-.553,1.19-.789,1.8-.023.069-.054.13-.077.2-.63,1.375-4.669,10.54-9.351,8.417-1.307-.589-4.586-2.184-5.954-5.172s-.673-8.391-.673-8.391L88.7,54.75s-.3-6.107,1.276-8.851c1.987-3.455,5.647-4.513,10.042-3.451,9.1,2.209,9.682,9.016,9.147,12.234" transform="translate(-2.882 4.929)" fill="#ffb294"/>
            <path id="Trazado_873702" data-name="Trazado 873702" d="M88.459,55.535,93.5,59.7l1.272-2.332a2.147,2.147,0,0,1,2.937-1.186,10.358,10.358,0,0,0,6.63,1.346c3.282-.272,4.483-1.929,4.483-1.929,3.477-4.782-1.929-11.649-7.29-13.545-6.508-2.306-10.8.986-12.3,4.789-1.367,3.458-.769,8.69-.769,8.69" transform="translate(-2.98 4.713)"/>
            <path id="Trazado_873703" data-name="Trazado 873703" d="M92.441,51.985a1.519,1.519,0,0,0-1.693-.827,1.456,1.456,0,0,0-.809.769,3.718,3.718,0,0,0-.3,1.1c-.3,2.02.008,4.977,1.364,4.383a4.52,4.52,0,0,0,1.432-5.429" transform="translate(-2.637 7.494)" fill="#ffb294"/>
            <g id="Grupo_1101028" data-name="Grupo 1101028" transform="translate(38.841 74.689)" opacity="0.2" style="mix-blend-mode: multiply;isolation: isolate">
              <g id="Grupo_1101027" data-name="Grupo 1101027">
                <g id="Grupo_1101026" data-name="Grupo 1101026" clip-path="url(#clip-path-11)">
                  <path id="Trazado_873704" data-name="Trazado 873704" d="M101.227,85.878,93.206,96.913l-6.53-.932L80.108,85.429l-3.519,3.8-7.291.829-6.684-1.485c-3.035,1.479,2.323-2.305,0,0C60.03,86.6,55.593,77.8,53.71,74.425c-1.373-3.764-2.256-7.539-1.046-10.784,7.124,6.97,14.567,10.169,25.072,1.3l13.348,2.727,10.026,15.7Z" transform="translate(-52.092 -63.641)" fill="#227fbc"/>
                </g>
              </g>
            </g>
            <path id="Trazado_873705" data-name="Trazado 873705" d="M101.5,64.019a.726.726,0,0,0-.126-.824c-.933-.435-3.556.34-4.374,1.043-.3.95,0,1.289.439,1.523,1.552.289,3.778-.782,4.061-1.743" transform="translate(-0.555 10.886)"/>
            <path id="Trazado_873706" data-name="Trazado 873706" d="M106.531,43.346c-1.254-1.5-3.252-2.009-6.112-1.562C95,42.631,91.636,46.758,90.7,53.718l.873.4c.9-6.694,3.984-10.5,9.169-11.31,2.505-.391,4.267,0,5.24,1.159a3.471,3.471,0,0,1,.438.679l.9.085a5.141,5.141,0,0,0-.8-1.387" transform="translate(-2.307 4.809)" fill="#999"/>
          </g>
        </g>
        <g id="Grupo_1101044" data-name="Grupo 1101044">
          <g id="Grupo_1101043" data-name="Grupo 1101043" clip-path="url(#clip-path)">
            <g id="Grupo_1101033" data-name="Grupo 1101033" transform="translate(72.312 99.486)" opacity="0.3" style="mix-blend-mode: multiply;isolation: isolate">
              <g id="Grupo_1101032" data-name="Grupo 1101032">
                <g id="Grupo_1101031" data-name="Grupo 1101031" clip-path="url(#clip-path-13)">
                  <path id="Trazado_873708" data-name="Trazado 873708" d="M56.342,106.253l2.292.341.892,3.229,7.757,2.807,26.806-5.578,16.9,4.718,4.283,2.472,4.523.275,3.369-2.376-6.78-7.491-.76.611a5.572,5.572,0,0,0,1.072-8.908l-3.173-2.983-5.355-11.484-.585-3.636-1.209-.735Z" transform="translate(-56.342 -77.515)" fill="#452323"/>
                </g>
              </g>
            </g>
            <path id="Trazado_873709" data-name="Trazado 873709" d="M96.717,88.324l3.106,3.224,5.085,4.215,4.337,6.225,2.246,3.49L112.6,107.7c.927,1.794-.476,2.541-1.693.521l-1.634-2.4-2.133-2.775-.349.217,2.783,6.72c.679,1.645-.811,2.405-1.819.407l-2.283-4.665-.891-1.885.981,5.818c.28,2.084-1.245,1.957-1.715.082l-1.928-5.562-.877-.8.21,3.547c.358,2.88-1.325,2.381-1.6-.083l-.689-3.523-1.4-2.571-1.615-2.84-.2-2.548L92.77,92.671Z" transform="translate(26.295 25.035)" fill="#ffb294"/>
            <path id="Trazado_873710" data-name="Trazado 873710" d="M108.756,102.614c-2.161-.4-6.329,0-6.04,4.718-8.17-2.314-12.462-7.408-17.864-13.064C78.5,84.62,72.583,75.262,70.569,68.581c-4.234-16.314,12.251-13.153,14.679-5.136,1.828,7.127,4.133,12.68,7.565,23.2Z" transform="translate(19.806 16.121)" fill="#fff"/>
            <path id="Trazado_873711" data-name="Trazado 873711" d="M89.553,51.609l.859-.492a1.467,1.467,0,0,1,1.473.142,4.628,4.628,0,0,1,2.1,3.633,1.483,1.483,0,0,1-.621,1.368l-.859.493a1.483,1.483,0,0,0,.621-1.368,4.621,4.621,0,0,0-2.1-3.633,1.471,1.471,0,0,0-1.473-.144" transform="translate(25.383 14.45)" fill="#4d4d4d"/>
            <path id="Trazado_873712" data-name="Trazado 873712" d="M89.069,52.871c0-1.341.937-1.893,2.1-1.227a4.625,4.625,0,0,1,2.1,3.632c0,1.344-.939,1.889-2.1,1.226a4.614,4.614,0,0,1-2.1-3.631" transform="translate(25.246 14.558)" fill="#fff"/>
            <path id="Trazado_873713" data-name="Trazado 873713" d="M89.233,53.281a.934.934,0,0,1,1.5-.878,3,3,0,0,1,1.425,2.467.934.934,0,0,1-1.5.875,2.992,2.992,0,0,1-1.423-2.464" transform="translate(25.293 14.802)"/>
            <path id="Trazado_873714" data-name="Trazado 873714" d="M55.56,57.424l-.43-1.662L56.25,53.3c2.22-4.921,3.2-7.485,2.729-9.4-.332-1.285-1.239-2.057-2.925-1.073a7.252,7.252,0,0,0-2.448,2.808L52.4,44.117a9.6,9.6,0,0,1,3.583-3.8c2.856-1.67,4.764-.462,5.371,1.888.653,2.527-.445,5.515-2.086,9.154L58.416,53.1c.01.044,5.3-3.051,5.3-3.051l.585,2.261Z" transform="translate(14.851 11.207)" fill="#fff"/>
            <path id="Trazado_873715" data-name="Trazado 873715" d="M68.931,49.665l-.945-3.658-5.831,3.408L61.7,47.641l2.935-12.049,2.875-1.68L69.753,42.6l1.665-.973.534,2.062-1.666.973.945,3.658Zm-1.477-5.72-1.014-3.922c-.212-.821-.409-1.674-.567-2.551-.244,1.186-.39,2.116-.583,3.146l-1.339,5.325c-.009.055,3.5-2,3.5-2" transform="translate(17.488 9.612)" fill="#fff"/>
            <path id="Trazado_873716" data-name="Trazado 873716" d="M71.067,49.192l.685-18.9,1.7-1-.684,18.9Z" transform="translate(20.144 8.304)" fill="#fff"/>
            <path id="Trazado_873717" data-name="Trazado 873717" d="M82.558,25.485l.452,1.751L80.827,43.082,78.25,44.588l2.305-15.279c-.01-.044-6.08,3.5-6.08,3.5l-.584-2.261Z" transform="translate(20.944 7.224)" fill="#fff"/>
            <path id="Trazado_873718" data-name="Trazado 873718" d="M148.2,151.564h2.582c2.486-.1,4.279-.789,4.9-2.464a22.437,22.437,0,0,0,0-7.921c-1.8-7.517-2.673-16.891-3.08-27.2l6.865-20.33,12.321,4.928-10.826,22.531c3.446,7.5.829,17.559.177,28.428l1.027,2.786-.375,3.11-13.59,1.056-1.848-3.256Z" transform="translate(41.484 26.545)" fill="#ffb294"/>
            <path id="Trazado_873719" data-name="Trazado 873719" d="M147.022,138.774c-2.748.076-2.7,1.937-2.288,3.286a5.891,5.891,0,0,0,4.987,3.345c2.285.045,7.921.587,7.921.587a7.455,7.455,0,0,0,5.38.042c.753-2.342.922-4.482-.335-6.5-1.29,3.461-6.938,3.769-12.086,3.078-1.179-.159-2.295-1.485-1.588-2.441a3.865,3.865,0,0,1,2.291-1.4Z" transform="translate(40.966 39.335)" fill="#c1272d"/>
            <path id="Trazado_873720" data-name="Trazado 873720" d="M168.887,146.325a2.462,2.462,0,0,0-3.1.806l-.938,1.467,4.038,3.461H173l1.82-1.761-.88-4.459c1.173-12.615,6.22-21.593.88-31.333v-13.5l-7.862,2.172.938,12.791c.939,9.564,2.347,27.518.987,30.351" transform="translate(46.726 28.631)" fill="#ffb294"/>
            <path id="Trazado_873721" data-name="Trazado 873721" d="M174.981,139.93c-.571,1.262-2.961,2.083-5.353,1.643-2.174-.964-3.216-1.769-3.755-3.2a4.729,4.729,0,0,1,3.288-1.563l.327-.766-1.738-.986a2.689,2.689,0,0,0-3.813,1.115c-.631,2.544.146,4.238,1.906,5.339l2.641,2.025c1.02,2.5,2.156,3.784,4.194,3.491,2.227-.321,3.021-1.214,3.157-3.1a9.081,9.081,0,0,0-.855-4" transform="translate(46.406 38.179)" fill="#c1272d"/>
            <path id="Trazado_873722" data-name="Trazado 873722" d="M181.226,118.405c-1.186,2.486-10.822,4.486-18.951,4.619-5.942.105-11.083-.789-11.529-3.211,1.975-18.342,7.815-20.39,8.407-30.276.042-.693.06-1.422.046-2.2l15.486-5.872,5.809,4.024c4.341,8.794,2.054,19.479.733,32.917" transform="translate(42.728 23.091)" fill="#e3363d"/>
            <g id="Grupo_1101036" data-name="Grupo 1101036" transform="translate(193.473 112.628)" style="mix-blend-mode: multiply;isolation: isolate">
              <g id="Grupo_1101035" data-name="Grupo 1101035">
                <g id="Grupo_1101034" data-name="Grupo 1101034" clip-path="url(#clip-path-14)">
                  <path id="Trazado_873723" data-name="Trazado 873723" d="M162.276,121.24c-5.944.105-11.084-.788-11.531-3.211,1.974-18.342,7.815-20.39,8.407-30.274l9.093,3.251c-12.846,5.136-12.315,21.387-5.969,30.234" transform="translate(-150.745 -87.754)" fill="#e3363d"/>
                </g>
              </g>
            </g>
            <path id="Trazado_873724" data-name="Trazado 873724" d="M153.182,49.551a7,7,0,0,0-.8,2.831A15.822,15.822,0,0,0,154.27,61.6a6.5,6.5,0,0,0,1.4,1.84,3.019,3.019,0,0,0,2.131.779,4.654,4.654,0,0,0,2.808-1.793,6,6,0,0,0,1.625-2.5,5.515,5.515,0,0,0-.429-3.192,24.427,24.427,0,0,0-3.623-6.49c-.588-.755-1.44-2.152-2.446-2.363-1.028-.213-2.093.874-2.555,1.666" transform="translate(43.169 13.565)" fill="#ffb294"/>
            <path id="Trazado_873725" data-name="Trazado 873725" d="M160.006,66.813,158.389,67a6.38,6.38,0,0,1-4.129-1.317l-1.775-.642-1.72.25c-.462.017-.607-.476-.146-.629l1.831-.637-1.857-.773-1.154.023a.774.774,0,0,1-.7-.416l-.078-.151-.329.076a.425.425,0,1,1-.193-.828l.271-.063a.609.609,0,0,1,.49-.675l2.21-.406,3.753.784,3.28,1.48,1.349,1.527,2.2.012-.434,3.053Z" transform="translate(41.896 17.236)" fill="#ffb294"/>
            <path id="Trazado_873726" data-name="Trazado 873726" d="M174.306,58.268c3.36.9,5.356,7.512,5.51,14.051a2.85,2.85,0,0,1-3.345,2.883l-2.165-.388-18.392-6.427,1.28-3.065,14.472,2.892-.089-8.449Z" transform="translate(44.193 16.516)" fill="#ffb294"/>
            <path id="Trazado_873727" data-name="Trazado 873727" d="M165.429,100.549a11.6,11.6,0,0,1-6.653-1.359c.166-5.615-.62-11.068-3.049-15.134a14.569,14.569,0,0,1-3.073-2.634,6.681,6.681,0,0,1-1.335-3.319c-.475-3.239,4.583-8.57,4.583-8.57s5.974-7.59,9.77-9.505,9.945-1.76,9.945-1.76c4.813,6.248,0,22.091,1.232,25.7a33.769,33.769,0,0,0,4.183,7.833c.422,4.094-8.354,8.427-15.6,8.748" transform="translate(42.882 16.515)" fill="#692cb7"/>
            <path id="Trazado_873728" data-name="Trazado 873728" d="M156.209,60.323l2.016,5.7c2.9,1.839,9.983-1.241,8.315-4.271L163.8,56.8Z" transform="translate(44.277 16.101)" fill="#ffb294"/>
            <path id="Trazado_873729" data-name="Trazado 873729" d="M152.635,49.669s-4.868,5.686,4.383,11.776c3.671,2.415,3.671,7.076,3.066,8.874,3.983-.837,9.074-.6,10.292-7.231,1.027-5.076-.012-13.956-6.18-16.343s-12.584-.347-11.561,2.925" transform="translate(42.901 12.955)"/>
            <g id="Grupo_1101039" data-name="Grupo 1101039" transform="translate(195.536 89.541)" opacity="0.5" style="mix-blend-mode: multiply;isolation: isolate">
              <g id="Grupo_1101038" data-name="Grupo 1101038">
                <g id="Grupo_1101037" data-name="Grupo 1101037" clip-path="url(#clip-path-15)">
                  <path id="Trazado_873730" data-name="Trazado 873730" d="M164.028,79.587l1.24,13.267-.141,4.437a11.607,11.607,0,0,1-6.653-1.359c.166-5.615-.62-11.068-3.048-15.134a14.547,14.547,0,0,1-3.074-2.634c6.383,3.644,2.151-5.991,5.831-8.4Z" transform="translate(-152.352 -69.766)" fill="#227fbc"/>
                </g>
              </g>
            </g>
            <path id="Trazado_873731" data-name="Trazado 873731" d="M155.158,74.024l2.292,11.2-5.392,17.795,3.065,1.1c2.9-6.257,7.3-11.615,8.966-17.448a66.778,66.778,0,0,0-1.6-15.626c-1.16-5.371-8.67-3.9-7.332,2.981" transform="translate(43.1 19.215)" fill="#ffb294"/>
            <path id="Trazado_873732" data-name="Trazado 873732" d="M153.926,92.961l-1.468,2.922-1.81,6.222a17.693,17.693,0,0,0,.648,4.627l.444,1.318a.914.914,0,0,0,.56.57l.127.045.213.519a.485.485,0,0,0,.933-.157l.015-.258.16-.062a.971.971,0,0,0,.619-.955l-.155-3.107a12.821,12.821,0,0,0,1.873-4.144,10.983,10.983,0,0,0-.47-3.714l1.127-3.529Z" transform="translate(42.701 26.349)" fill="#ffb294"/>
            <g id="Grupo_1101042" data-name="Grupo 1101042" transform="translate(0 164.966)" opacity="0.3" style="mix-blend-mode: multiply;isolation: isolate">
              <g id="Grupo_1101041" data-name="Grupo 1101041">
                <g id="Grupo_1101040" data-name="Grupo 1101040" clip-path="url(#clip-path-16)">
                  <path id="Trazado_873733" data-name="Trazado 873733" d="M19.706,133.528,8.65,139.911a4.674,4.674,0,0,1-4.232,0L.877,137.866a1.29,1.29,0,0,1,0-2.444l11.056-6.383a4.674,4.674,0,0,1,4.232,0l3.542,2.046a1.289,1.289,0,0,1,0,2.442" transform="translate(0 -128.534)" fill="#4694b8"/>
                </g>
              </g>
            </g>
          </g>
        </g>
      </g>
    </g>
  </g>
</svg>
