<svg xmlns="http://www.w3.org/2000/svg" xmlns:xlink="http://www.w3.org/1999/xlink" width="85" height="85" viewBox="0 0 85 85">
  <defs>
    <clipPath id="clip-path">
      <rect id="Rectángulo_403150" data-name="Rectángulo 403150" width="85" height="85" transform="translate(180.051 6117)" fill="#fff"/>
    </clipPath>
  </defs>
  <g id="Enmascarar_grupo_1098671" data-name="Enmascarar grupo 1098671" transform="translate(-180.051 -6117)" clip-path="url(#clip-path)">
    <g id="obrero" transform="translate(180.051 6122.897)">
      <g id="Grupo_1101089" data-name="Grupo 1101089">
        <g id="Grupo_1101088" data-name="Grupo 1101088">
          <g id="Grupo_1101084" data-name="Grupo 1101084">
            <circle id="Elipse_11493" data-name="Elipse 11493" cx="17.035" cy="17.035" r="17.035" transform="translate(36.817 21.436) rotate(-45)" fill="#fac22d"/>
            <path id="Trazado_873758" data-name="Trazado 873758" d="M67.227,5.611A17.041,17.041,0,0,1,46.866,31.08,17.037,17.037,0,1,0,67.227,5.611Z" fill="#f1b412"/>
            <g id="Grupo_1101083" data-name="Grupo 1101083">
              <circle id="Elipse_11494" data-name="Elipse 11494" cx="11.554" cy="11.554" r="11.554" transform="translate(44.569 21.436) rotate(-45)" fill="#fff"/>
              <path id="Trazado_873759" data-name="Trazado 873759" d="M70.2,14.575c.009.226.015.453.015.681A17.04,17.04,0,0,1,56.261,32.013,11.554,11.554,0,0,0,70.2,14.575Z" fill="#f5f8f9"/>
              <path id="Trazado_873760" data-name="Trazado 873760" d="M26.4,43.3h25.72a11.435,11.435,0,0,1,2.354.245V19.614A15.214,15.214,0,0,0,39.265,4.4h0A15.214,15.214,0,0,0,24.05,19.614V43.545A11.432,11.432,0,0,1,26.4,43.3Z" fill="#596c76"/>
              <g id="Grupo_1101082" data-name="Grupo 1101082">
                <path id="Trazado_873761" data-name="Trazado 873761" d="M45.538,5.75v13.3A4.407,4.407,0,0,1,50.15,23.01q.022.244.022.494V29.31A10.9,10.9,0,0,1,44.984,38.6l2.989,4.548-.063.154h4.215a11.435,11.435,0,0,1,2.354.245V19.614A15.217,15.217,0,0,0,45.538,5.75Z" fill="#465a61"/>
              </g>
            </g>
          </g>
          <path id="Trazado_873762" data-name="Trazado 873762" d="M59.849,74.7H18.679a3.862,3.862,0,0,1-3.862-3.862V54.733A11.587,11.587,0,0,1,26.4,43.146h25.72A11.587,11.587,0,0,1,63.712,54.733V70.841A3.862,3.862,0,0,1,59.849,74.7Z" fill="#3ba935"/>
          <path id="Trazado_873763" data-name="Trazado 873763" d="M39.265,40.063a10.687,10.687,0,0,1-5.632-1.6l-3.076,4.68,7.994,19.5a.773.773,0,0,0,1.43,0l7.994-19.5L44.9,38.465A10.687,10.687,0,0,1,39.265,40.063Z" fill="#fff"/>
          <path id="Trazado_873764" data-name="Trazado 873764" d="M45.868,39.943,37.556,60.221l.994,2.425a.773.773,0,0,0,1.43,0l7.994-19.5Z" fill="#f5f8f9"/>
          <path id="Trazado_873765" data-name="Trazado 873765" d="M39.265,40.063a10.687,10.687,0,0,1-5.632-1.6l-3.076,4.68,1.238,3.019a3.862,3.862,0,0,0,6.119,1.44l1.353-1.185L40.617,47.6a3.862,3.862,0,0,0,6.119-1.44l1.238-3.019L44.9,38.465A10.687,10.687,0,0,1,39.265,40.063Z" fill="#e8edf2"/>
          <path id="Trazado_873766" data-name="Trazado 873766" d="M45.868,39.943l-3.5,8.537a3.863,3.863,0,0,0,4.367-2.316l1.238-3.019Z" fill="#d9e7ec"/>
          <path id="Trazado_873767" data-name="Trazado 873767" d="M39.265,40.063a10.683,10.683,0,0,1-5.374-1.445l5.374,7.8,5.374-7.8A10.683,10.683,0,0,1,39.265,40.063Z" fill="#ffb09e"/>
          <g id="Grupo_1101085" data-name="Grupo 1101085">
            <path id="Trazado_873768" data-name="Trazado 873768" d="M28.511,29.31V23.5c0-.037,0-.073,0-.11l0-.015H26.274a4.234,4.234,0,1,0,0,8.467h2.542A10.748,10.748,0,0,1,28.511,29.31Z" fill="#ffcebf"/>
            <path id="Trazado_873769" data-name="Trazado 873769" d="M52.255,23.379H50.018l0,.015c0,.037,0,.073,0,.11V29.31a10.738,10.738,0,0,1-.3,2.537h2.542a4.234,4.234,0,1,0,0-8.467Z" fill="#ffb09e"/>
          </g>
          <path id="Trazado_873770" data-name="Trazado 873770" d="M50.15,23.01a4.458,4.458,0,0,0-6.345-3.542,10.855,10.855,0,0,1-4.541.989H31.4A3.044,3.044,0,0,0,28.356,23.5V29.31A10.908,10.908,0,0,0,39.264,40.218h0A10.908,10.908,0,0,0,50.172,29.31V23.5Q50.173,23.254,50.15,23.01Z" fill="#ffdfcf"/>
          <g id="Grupo_1101086" data-name="Grupo 1101086">
            <path id="Trazado_873771" data-name="Trazado 873771" d="M50.15,23.01a4.406,4.406,0,0,0-4.613-3.956V32.128a8.368,8.368,0,0,1-6.228,8.089A10.907,10.907,0,0,0,50.173,29.31V23.5Q50.173,23.254,50.15,23.01Z" fill="#ffcebf"/>
          </g>
          <g id="Grupo_1101087" data-name="Grupo 1101087">
            <path id="Trazado_873772" data-name="Trazado 873772" d="M22.016,63.013H5.021A3.862,3.862,0,0,1,1.159,59.15V42.156a3.862,3.862,0,0,1,3.862-3.862H22.016a3.862,3.862,0,0,1,3.862,3.862V59.15A3.862,3.862,0,0,1,22.016,63.013Z" fill="#ffe177"/>
            <path id="Trazado_873773" data-name="Trazado 873773" d="M22.016,38.293h-.772v18.54A1.545,1.545,0,0,1,19.7,58.378H1.159v.772a3.862,3.862,0,0,0,3.862,3.862H22.016a3.862,3.862,0,0,0,3.862-3.862V42.156A3.862,3.862,0,0,0,22.016,38.293Z" fill="#ffd15b"/>
          </g>
        </g>
        <path id="Trazado_873774" data-name="Trazado 873774" d="M57.532,44.485V66.978a1.545,1.545,0,0,1-1.545,1.545H14.817v2.317A3.862,3.862,0,0,0,18.679,74.7h41.17a3.862,3.862,0,0,0,3.862-3.862V54.733A11.584,11.584,0,0,0,57.532,44.485Z" fill="#297524"/>
      </g>
      <g id="Grupo_1101095" data-name="Grupo 1101095">
        <path id="Trazado_873775" data-name="Trazado 873775" d="M60.909,14.671v6.765l3.526,3.09" fill="none" stroke="#000" stroke-linecap="round" stroke-linejoin="round" stroke-miterlimit="10" stroke-width="2.317"/>
        <path id="Trazado_873776" data-name="Trazado 873776" d="M34.1,38.918l5.168,7.5,5.168-7.5" fill="none" stroke="#000" stroke-linejoin="round" stroke-miterlimit="10" stroke-width="2.317"/>
        <path id="Trazado_873777" data-name="Trazado 873777" d="M28.363,23.379H26.274a4.234,4.234,0,0,0,0,8.467h2.382" fill="none" stroke="#000" stroke-linejoin="round" stroke-miterlimit="10" stroke-width="2.317"/>
        <g id="Grupo_1101090" data-name="Grupo 1101090">
          <line id="Línea_150" data-name="Línea 150" y1="1.545" transform="translate(35.218 24.659)" fill="none" stroke="#000" stroke-linecap="round" stroke-linejoin="round" stroke-miterlimit="10" stroke-width="2.317"/>
          <line id="Línea_151" data-name="Línea 151" y2="1.545" transform="translate(43.311 24.659)" fill="none" stroke="#000" stroke-linecap="round" stroke-linejoin="round" stroke-miterlimit="10" stroke-width="2.317"/>
        </g>
        <path id="Trazado_873778" data-name="Trazado 873778" d="M43.5,30.981a4.234,4.234,0,0,1-4.234,4.234h0a4.234,4.234,0,0,1-4.234-4.234" fill="none" stroke="#000" stroke-linecap="round" stroke-linejoin="round" stroke-miterlimit="10" stroke-width="2.317"/>
        <g id="Grupo_1101094" data-name="Grupo 1101094">
          <g id="Grupo_1101091" data-name="Grupo 1101091">
            <line id="Línea_152" data-name="Línea 152" x2="12.037" transform="translate(7.5 44.634)" fill="none" stroke="#000" stroke-linecap="round" stroke-linejoin="round" stroke-miterlimit="10" stroke-width="2.317"/>
          </g>
          <g id="Grupo_1101092" data-name="Grupo 1101092">
            <line id="Línea_153" data-name="Línea 153" x2="12.037" transform="translate(7.5 50.607)" fill="none" stroke="#000" stroke-linecap="round" stroke-linejoin="round" stroke-miterlimit="10" stroke-width="2.317"/>
          </g>
          <g id="Grupo_1101093" data-name="Grupo 1101093">
            <line id="Línea_154" data-name="Línea 154" x2="6.019" transform="translate(7.5 56.672)" fill="none" stroke="#000" stroke-linecap="round" stroke-linejoin="round" stroke-miterlimit="10" stroke-width="2.317"/>
          </g>
        </g>
        <path id="Trazado_873779" data-name="Trazado 873779" d="M54.619,31.126a11.555,11.555,0,1,0-1.634-18.094" fill="none" stroke="#000" stroke-linejoin="round" stroke-miterlimit="10" stroke-width="2.317"/>
        <path id="Trazado_873780" data-name="Trazado 873780" d="M30.556,43.146l7.994,19.5a.773.773,0,0,0,1.43,0l7.994-19.5" fill="none" stroke="#000" stroke-linejoin="round" stroke-miterlimit="10" stroke-width="2.317"/>
        <path id="Trazado_873781" data-name="Trazado 873781" d="M33.545,38.6l-2.989,4.548,1.238,3.019a3.862,3.862,0,0,0,6.119,1.44l1.353-1.185L40.617,47.6a3.862,3.862,0,0,0,6.119-1.44l1.238-3.019L44.984,38.6" fill="none" stroke="#000" stroke-linejoin="round" stroke-miterlimit="10" stroke-width="2.317"/>
        <path id="Trazado_873782" data-name="Trazado 873782" d="M49.873,31.846h2.383a4.234,4.234,0,1,0,0-8.467H50.17c0,.042,0,.083,0,.125" fill="none" stroke="#000" stroke-linejoin="round" stroke-miterlimit="10" stroke-width="2.317"/>
        <path id="Trazado_873783" data-name="Trazado 873783" d="M50.15,23.01a4.458,4.458,0,0,0-6.345-3.542,10.855,10.855,0,0,1-4.541.989H31.4A3.044,3.044,0,0,0,28.356,23.5V29.31A10.908,10.908,0,0,0,39.264,40.218h0A10.908,10.908,0,0,0,50.172,29.31V23.5Q50.173,23.254,50.15,23.01Z" fill="none" stroke="#000" stroke-linecap="round" stroke-linejoin="round" stroke-miterlimit="10" stroke-width="2.317"/>
        <line id="Línea_155" data-name="Línea 155" y1="12.17" transform="translate(54.478 31.216)" fill="none" stroke="#000" stroke-linejoin="round" stroke-miterlimit="10" stroke-width="2.317"/>
        <path id="Trazado_873784" data-name="Trazado 873784" d="M54.478,24.01v-4.4A15.214,15.214,0,0,0,39.264,4.4h0A15.214,15.214,0,0,0,24.05,19.614v4.4" fill="none" stroke="#000" stroke-linejoin="round" stroke-miterlimit="10" stroke-width="2.317"/>
        <path id="Trazado_873785" data-name="Trazado 873785" d="M8.195,38.293H5.021a3.862,3.862,0,0,0-3.862,3.862V59.15a3.862,3.862,0,0,0,3.862,3.862H22.016a3.862,3.862,0,0,0,3.862-3.862V42.156a3.862,3.862,0,0,0-3.862-3.862H13.6" fill="none" stroke="#000" stroke-linecap="round" stroke-linejoin="round" stroke-miterlimit="10" stroke-width="2.317"/>
        <path id="Trazado_873786" data-name="Trazado 873786" d="M54.478,37.214A17.037,17.037,0,1,0,60.909,4.4a17.227,17.227,0,0,0-1.857.1" fill="none" stroke="#000" stroke-linecap="round" stroke-linejoin="round" stroke-miterlimit="10" stroke-width="2.317"/>
        <path id="Trazado_873787" data-name="Trazado 873787" d="M53.837,5.934a17.052,17.052,0,0,0-4.1,2.643" fill="none" stroke="#000" stroke-linecap="round" stroke-linejoin="round" stroke-miterlimit="10" stroke-width="2.317"/>
        <path id="Trazado_873788" data-name="Trazado 873788" d="M14.817,63.013v7.828A3.862,3.862,0,0,0,18.679,74.7h41.17a3.862,3.862,0,0,0,3.862-3.862V67.282" fill="none" stroke="#000" stroke-linecap="round" stroke-linejoin="round" stroke-miterlimit="10" stroke-width="2.317"/>
        <path id="Trazado_873789" data-name="Trazado 873789" d="M30.556,43.146H26.4c-.176,0-.351.006-.526.013" fill="none" stroke="#000" stroke-linejoin="round" stroke-miterlimit="10" stroke-width="2.317"/>
        <path id="Trazado_873790" data-name="Trazado 873790" d="M63.712,61.874V54.733A11.587,11.587,0,0,0,52.125,43.146H47.973" fill="none" stroke="#000" stroke-linecap="round" stroke-linejoin="round" stroke-miterlimit="10" stroke-width="2.317"/>
        <line id="Línea_156" data-name="Línea 156" y2="7.657" transform="translate(24.05 31.216)" fill="none" stroke="#000" stroke-linejoin="round" stroke-miterlimit="10" stroke-width="2.317"/>
      </g>
    </g>
  </g>
</svg>
