<svg xmlns="http://www.w3.org/2000/svg" xmlns:xlink="http://www.w3.org/1999/xlink" width="85" height="85" viewBox="0 0 85 85">
  <defs>
    <clipPath id="clip-path">
      <rect id="Rectángulo_403152" data-name="Rectángulo 403152" width="85" height="85" transform="translate(1020.051 6117)" fill="#fff"/>
    </clipPath>
  </defs>
  <g id="Enmascarar_grupo_1098673" data-name="Enmascarar grupo 1098673" transform="translate(-1020.051 -6117)" clip-path="url(#clip-path)">
    <g id="reunion" transform="translate(1023.616 6124.692)">
      <g id="Grupo_1101116" data-name="Grupo 1101116">
        <g id="Grupo_1101115" data-name="Grupo 1101115">
          <g id="Grupo_1101110" data-name="Grupo 1101110">
            <circle id="Elipse_11498" data-name="Elipse 11498" cx="22.681" cy="22.681" r="22.681" transform="translate(6.858 24.384) rotate(-45)" fill="#fac22d"/>
            <path id="Trazado_873823" data-name="Trazado 873823" d="M46.662,3.053A22.687,22.687,0,0,1,21.9,39.361,22.683,22.683,0,1,0,46.662,3.053Z" fill="#f2b30b"/>
            <g id="Grupo_1101109" data-name="Grupo 1101109">
              <circle id="Elipse_11499" data-name="Elipse 11499" cx="16.629" cy="16.629" r="16.629" transform="translate(15.418 24.384) rotate(-45)" fill="#fff"/>
              <path id="Trazado_873824" data-name="Trazado 873824" d="M51.963,14.051a22.706,22.706,0,0,1-17.918,26.23,16.631,16.631,0,0,0,17.918-26.23Z" fill="#f5f8f9"/>
            </g>
          </g>
          <g id="Grupo_1101112" data-name="Grupo 1101112">
            <path id="Trazado_873825" data-name="Trazado 873825" d="M40.409,49.363H37.46A5.361,5.361,0,0,1,32.1,44V37.167a5.361,5.361,0,0,1,5.361-5.361h2.949a5.361,5.361,0,0,1,5.361,5.361V44A5.361,5.361,0,0,1,40.409,49.363Z" fill="#ffdfcf"/>
            <g id="Grupo_1101111" data-name="Grupo 1101111">
              <path id="Trazado_873826" data-name="Trazado 873826" d="M41.207,31.866V43.279a7.593,7.593,0,0,1-3.042,6.083h2.243A5.361,5.361,0,0,0,45.769,44V37.167A5.362,5.362,0,0,0,41.207,31.866Z" fill="#ffcebf"/>
            </g>
            <path id="Trazado_873827" data-name="Trazado 873827" d="M40.409,31.806H37.46A5.361,5.361,0,0,0,32.1,37.167h13.67A5.361,5.361,0,0,0,40.409,31.806Z" fill="#596c76"/>
            <path id="Trazado_873828" data-name="Trazado 873828" d="M51.532,68.412V54.723a5.361,5.361,0,0,0-5.361-5.361H31.7a5.361,5.361,0,0,0-5.361,5.361V68.412Z" fill="#3ba935"/>
            <path id="Trazado_873829" data-name="Trazado 873829" d="M46.97,49.422V62.328a1.521,1.521,0,0,1-1.521,1.521H26.337v4.563h25.2V54.723A5.362,5.362,0,0,0,46.97,49.422Z" fill="#297524"/>
          </g>
          <rect id="Rectángulo_403153" data-name="Rectángulo 403153" width="25.5" height="7.907" transform="translate(26.184 68.26)" fill="#d9e7ec"/>
          <path id="Trazado_873830" data-name="Trazado 873830" d="M47.122,68.26v1.824A1.521,1.521,0,0,1,45.6,71.6H26.184v4.563h25.5V68.26Z" fill="#c5d3dd"/>
          <g id="Grupo_1101113" data-name="Grupo 1101113">
            <path id="Trazado_873831" data-name="Trazado 873831" d="M15.213,60.238H12.264A5.361,5.361,0,0,1,6.9,54.878V48.043a5.361,5.361,0,0,1,5.361-5.361h2.949a5.361,5.361,0,0,1,5.361,5.361v6.835A5.361,5.361,0,0,1,15.213,60.238Z" fill="#596c76"/>
            <path id="Trazado_873832" data-name="Trazado 873832" d="M20.976,60.238H6.5A5.361,5.361,0,0,0,1.141,65.6v8.667a1.9,1.9,0,0,0,1.9,1.9H26.337V65.6A5.361,5.361,0,0,0,20.976,60.238Z" fill="#0593fc"/>
            <path id="Trazado_873833" data-name="Trazado 873833" d="M21.774,60.3v9.785A1.521,1.521,0,0,1,20.253,71.6H1.141v2.662a1.9,1.9,0,0,0,1.9,1.9H26.337V65.6A5.362,5.362,0,0,0,21.774,60.3Z" fill="#0182fc"/>
          </g>
          <g id="Grupo_1101114" data-name="Grupo 1101114">
            <path id="Trazado_873834" data-name="Trazado 873834" d="M65.6,60.238H62.656A5.361,5.361,0,0,1,57.3,54.878V48.043a5.361,5.361,0,0,1,5.361-5.361H65.6a5.361,5.361,0,0,1,5.361,5.361v6.835A5.361,5.361,0,0,1,65.6,60.238Z" fill="#596c76"/>
            <path id="Trazado_873835" data-name="Trazado 873835" d="M66.4,42.741V54.155a1.521,1.521,0,0,1-1.521,1.521H57.355a5.362,5.362,0,0,0,5.3,4.563H65.6a5.361,5.361,0,0,0,5.361-5.361V48.043A5.362,5.362,0,0,0,66.4,42.741Z" fill="#465a61"/>
            <path id="Trazado_873836" data-name="Trazado 873836" d="M16.011,42.741V54.155a1.521,1.521,0,0,1-1.521,1.521H6.963a5.362,5.362,0,0,0,5.3,4.563h2.949a5.361,5.361,0,0,0,5.361-5.361V48.043A5.362,5.362,0,0,0,16.011,42.741Z" fill="#465a61"/>
            <path id="Trazado_873837" data-name="Trazado 873837" d="M71.367,60.238H56.893A5.361,5.361,0,0,0,51.532,65.6V76.167H74.827a1.9,1.9,0,0,0,1.9-1.9V65.6A5.361,5.361,0,0,0,71.367,60.238Z" fill="#ffe177"/>
            <path id="Trazado_873838" data-name="Trazado 873838" d="M72.165,60.3v9.785A1.521,1.521,0,0,1,70.645,71.6H51.532v4.563H74.827a1.9,1.9,0,0,0,1.9-1.9V65.6A5.362,5.362,0,0,0,72.165,60.3Z" fill="#ffd15b"/>
          </g>
        </g>
        <path id="Trazado_873839" data-name="Trazado 873839" d="M41.207,37.167h4.563a5.362,5.362,0,0,0-4.563-5.3Z" fill="#465a61"/>
      </g>
      <g id="Grupo_1101118" data-name="Grupo 1101118">
        <path id="Trazado_873840" data-name="Trazado 873840" d="M38.934,14.169V24.384h7.657" fill="none" stroke="#000" stroke-linecap="round" stroke-linejoin="round" stroke-miterlimit="10" stroke-width="2.281"/>
        <g id="Grupo_1101117" data-name="Grupo 1101117">
          <line id="Línea_164" data-name="Línea 164" y2="0.76" transform="translate(36.805 41.444)" fill="none" stroke="#000" stroke-linecap="round" stroke-linejoin="round" stroke-miterlimit="10" stroke-width="2.281"/>
          <line id="Línea_165" data-name="Línea 165" y2="0.76" transform="translate(41.064 41.444)" fill="none" stroke="#000" stroke-linecap="round" stroke-linejoin="round" stroke-miterlimit="10" stroke-width="2.281"/>
        </g>
        <path id="Trazado_873841" data-name="Trazado 873841" d="M65.6,60.238H62.656A5.361,5.361,0,0,1,57.3,54.878V48.043a5.361,5.361,0,0,1,5.361-5.361H65.6a5.361,5.361,0,0,1,5.361,5.361v6.835A5.361,5.361,0,0,1,65.6,60.238Z" fill="none" stroke="#000" stroke-linecap="round" stroke-linejoin="round" stroke-miterlimit="10" stroke-width="2.281"/>
        <path id="Trazado_873842" data-name="Trazado 873842" d="M40.409,49.363H37.46A5.361,5.361,0,0,1,32.1,44V37.167a5.361,5.361,0,0,1,5.361-5.361h2.949a5.361,5.361,0,0,1,5.361,5.361V44A5.361,5.361,0,0,1,40.409,49.363Z" fill="none" stroke="#000" stroke-linecap="round" stroke-linejoin="round" stroke-miterlimit="10" stroke-width="2.281"/>
        <line id="Línea_166" data-name="Línea 166" x2="13.67" transform="translate(32.099 37.167)" fill="none" stroke="#000" stroke-linejoin="round" stroke-miterlimit="10" stroke-width="2.281"/>
        <path id="Trazado_873843" data-name="Trazado 873843" d="M51.532,68.26V54.723a5.361,5.361,0,0,0-5.361-5.361H31.7a5.361,5.361,0,0,0-5.361,5.361V68.26Z" fill="none" stroke="#000" stroke-linecap="round" stroke-linejoin="round" stroke-miterlimit="10" stroke-width="2.281"/>
        <path id="Trazado_873844" data-name="Trazado 873844" d="M20.976,60.238H6.5A5.361,5.361,0,0,0,1.141,65.6v8.667a1.9,1.9,0,0,0,1.9,1.9H26.337V65.6A5.361,5.361,0,0,0,20.976,60.238Z" fill="none" stroke="#000" stroke-linecap="round" stroke-linejoin="round" stroke-miterlimit="10" stroke-width="2.281"/>
        <path id="Trazado_873845" data-name="Trazado 873845" d="M45.319,46.152a22.682,22.682,0,1,0-12.77,0" fill="none" stroke="#000" stroke-linejoin="round" stroke-miterlimit="10" stroke-width="2.281"/>
        <path id="Trazado_873846" data-name="Trazado 873846" d="M45.769,39.547A16.631,16.631,0,1,0,29.218,10.889" fill="none" stroke="#000" stroke-linecap="round" stroke-linejoin="round" stroke-miterlimit="10" stroke-width="2.281"/>
        <path id="Trazado_873847" data-name="Trazado 873847" d="M25.452,14.65a16.634,16.634,0,0,0,6.648,24.9" fill="none" stroke="#000" stroke-linecap="round" stroke-linejoin="round" stroke-miterlimit="10" stroke-width="2.281"/>
        <path id="Trazado_873848" data-name="Trazado 873848" d="M70.819,76.167h4.008a1.9,1.9,0,0,0,1.9-1.9V65.6a5.361,5.361,0,0,0-5.361-5.361H56.893A5.361,5.361,0,0,0,51.532,65.6V76.167H65.5" fill="none" stroke="#000" stroke-linecap="round" stroke-linejoin="round" stroke-miterlimit="10" stroke-width="2.281"/>
        <path id="Trazado_873849" data-name="Trazado 873849" d="M6.9,53.807v1.071a5.361,5.361,0,0,0,5.361,5.361h2.949a5.361,5.361,0,0,0,5.361-5.361V48.043a5.361,5.361,0,0,0-5.361-5.361H12.264A5.361,5.361,0,0,0,6.9,48.043v.441" fill="none" stroke="#000" stroke-linecap="round" stroke-linejoin="round" stroke-miterlimit="10" stroke-width="2.281"/>
        <line id="Línea_167" data-name="Línea 167" x2="25.196" transform="translate(26.337 76.167)" fill="none" stroke="#000" stroke-linejoin="round" stroke-miterlimit="10" stroke-width="2.281"/>
      </g>
    </g>
  </g>
</svg>
