<svg xmlns="http://www.w3.org/2000/svg" width="74" height="74" viewBox="0 0 74 74">
  <g id="Grupo_1101632" data-name="Grupo 1101632" transform="translate(-203 -635)">
    <circle id="Elipse_11521" data-name="Elipse 11521" cx="37" cy="37" r="37" transform="translate(203 635)" fill="#b0dcad"/>
    <g id="Grupo_1101641" data-name="Grupo 1101641" transform="translate(216.687 648.686)">
      <g id="Grupo_1101634" data-name="Grupo 1101634" transform="translate(9.171 15.612)">
        <g id="Grupo_1101633" data-name="Grupo 1101633">
          <path id="Trazado_912623" data-name="Trazado 912623" d="M102.259,171.686a.911.911,0,1,0,0,1.288A.911.911,0,0,0,102.259,171.686Z" transform="translate(-100.704 -171.42)" fill="#692cb7"/>
        </g>
      </g>
      <g id="Grupo_1101636" data-name="Grupo 1101636" transform="translate(0 35.698)">
        <g id="Grupo_1101635" data-name="Grupo 1101635">
          <path id="Trazado_912624" data-name="Trazado 912624" d="M23.058,397.062a3.188,3.188,0,0,0-2.569-5.075H5.009a3.185,3.185,0,0,0-2.567,5.074A4.557,4.557,0,0,0,0,401.093V402a.911.911,0,0,0,.911.911H24.587A.911.911,0,0,0,25.5,402v-.911A4.557,4.557,0,0,0,23.058,397.062ZM4.042,394.208a1.357,1.357,0,0,1,.966-.4H20.489a1.366,1.366,0,1,1,0,2.732H5.009a1.366,1.366,0,0,1-.966-2.332Zm-2.221,6.885a2.735,2.735,0,0,1,2.732-2.732H20.945a2.735,2.735,0,0,1,2.732,2.732Z" transform="translate(0 -391.987)" fill="#692cb7"/>
        </g>
      </g>
      <g id="Grupo_1101638" data-name="Grupo 1101638" transform="translate(0.002 0.001)">
        <g id="Grupo_1101637" data-name="Grupo 1101637" transform="translate(0 0)">
          <path id="Trazado_912625" data-name="Trazado 912625" d="M45.8,38.261A5.735,5.735,0,0,0,44.7,37L40.446,33.29a.9.9,0,0,0-.362-.316L37.51,30.729,25.6,20.339a2.727,2.727,0,0,0-.8-4.349l1.1-1.1a3.645,3.645,0,0,0,3.516-.941,3.642,3.642,0,0,0,0-5.152L21.691,1.068A3.641,3.641,0,0,0,15.6,4.585L4.6,15.579a3.665,3.665,0,0,0-.943-.123,3.642,3.642,0,0,0-2.575,6.218L8.813,29.4a3.641,3.641,0,0,0,6.093-3.517l1.1-1.1a2.733,2.733,0,0,0,4.351.8L33.043,40.158a.915.915,0,0,0,.123.154c.016.016.034.031.051.046L37,44.7c.094.111.194.22.3.324a5.416,5.416,0,0,0,3.849,1.6,5.589,5.589,0,0,0,.767-.053,5.511,5.511,0,0,0,4.066-2.815A5.389,5.389,0,0,0,45.8,38.261Zm-27.97-35.9a1.821,1.821,0,0,1,2.576,0l7.727,7.727a1.821,1.821,0,0,1-2.575,2.576L17.828,4.932h0A1.823,1.823,0,0,1,17.828,2.356ZM12.677,28.112a1.824,1.824,0,0,1-2.576,0L2.374,20.386a1.821,1.821,0,0,1,2.575-2.576l7.728,7.728A1.823,1.823,0,0,1,12.677,28.112ZM16.511,21.7,13.965,24.25,6.237,16.522l10.3-10.3,7.728,7.728L21.716,16.5l-.025.024-5.149,5.149Zm3.252,1.9-.005.005-.641.641a.911.911,0,0,1-1.3-1.277L22.989,17.8a.911.911,0,0,1,1.545.654.9.9,0,0,1-.267.644l-.638.638-.013.013Zm1.886.69,2.662-2.662,11.269,9.829-4.112,4.112ZM32.665,36.95l4.289-4.289,1.376,1.2-4.466,4.466Zm11.723,5.92a3.7,3.7,0,0,1-2.726,1.9,3.618,3.618,0,0,1-3.079-1.032c-.07-.07-.137-.143-.2-.217l-.009-.01L35.062,39.7l4.644-4.644,3.8,3.316.009.008a3.92,3.92,0,0,1,.751.865A3.6,3.6,0,0,1,44.389,42.87Z" transform="translate(-0.021 -0.001)" fill="#692cb7"/>
        </g>
      </g>
      <g id="Grupo_1101640" data-name="Grupo 1101640" transform="translate(11.746 9.172)">
        <g id="Grupo_1101639" data-name="Grupo 1101639">
          <path id="Trazado_912626" data-name="Trazado 912626" d="M134.4,100.974a.911.911,0,0,0-1.288,0l-3.864,3.864a.911.911,0,1,0,1.288,1.288l3.864-3.864A.911.911,0,0,0,134.4,100.974Z" transform="translate(-128.985 -100.707)" fill="#692cb7"/>
        </g>
      </g>
    </g>
  </g>
</svg>
