<svg xmlns="http://www.w3.org/2000/svg" width="74" height="74" viewBox="0 0 74 74">
  <g id="Grupo_1101823" data-name="Grupo 1101823" transform="translate(-191.051 -899)">
    <g id="Grupo_1101621" data-name="Grupo 1101621" transform="translate(-11.949 264)">
      <circle id="Elipse_11521" data-name="Elipse 11521" cx="37" cy="37" r="37" transform="translate(203 635)" fill="#b0dcad"/>
      <g id="Grupo_1101622" data-name="Grupo 1101622" transform="translate(216.716 648.831)">
        <path id="Trazado_912619" data-name="Trazado 912619" d="M39.864,14.1h-12.1V5.471A5.248,5.248,0,0,0,22.526.23H5.891A5.248,5.248,0,0,0,.649,5.472v11.09A5.248,5.248,0,0,0,5.891,21.8h.3V24.88a2.464,2.464,0,0,0,2.462,2.47,2.411,2.411,0,0,0,1.739-.735l3.522-3.5V33.417a6.063,6.063,0,0,0,6.056,6.056h8.8l5.836,5.8a2.724,2.724,0,0,0,4.678-1.914v-3.89h.575a6.063,6.063,0,0,0,6.056-6.056V20.156A6.062,6.062,0,0,0,39.864,14.1ZM13.922,20.053l-5.069,5.04a.258.258,0,0,1-.308.067.282.282,0,0,1-.185-.282V20.72a1.082,1.082,0,0,0-1.083-1.083H5.891a3.079,3.079,0,0,1-3.076-3.076V5.471A3.079,3.079,0,0,1,5.891,2.4H22.526A3.083,3.083,0,0,1,25.6,5.471V14.1H19.973a6.057,6.057,0,0,0-6.051,5.953ZM43.755,33.417a3.9,3.9,0,0,1-3.89,3.89H38.207a1.083,1.083,0,0,0-1.083,1.083v4.973a.553.553,0,0,1-.354.536.543.543,0,0,1-.617-.144l-6.167-6.133a1.085,1.085,0,0,0-.764-.316h-9.25a3.9,3.9,0,0,1-3.89-3.89V20.156a3.9,3.9,0,0,1,3.89-3.89H39.864a3.9,3.9,0,0,1,3.89,3.89Z" fill="#692cb7"/>
        <path id="Trazado_912620" data-name="Trazado 912620" d="M31.287,34.822a1.6,1.6,0,1,0,1.6,1.6A1.6,1.6,0,0,0,31.287,34.822Z" transform="translate(-8.073 -9.616)" fill="#692cb7"/>
        <path id="Trazado_912621" data-name="Trazado 912621" d="M40.572,34.822a1.6,1.6,0,1,0,1.6,1.6A1.6,1.6,0,0,0,40.572,34.822Z" transform="translate(-10.654 -9.616)" fill="#692cb7"/>
        <path id="Trazado_912622" data-name="Trazado 912622" d="M49.858,34.822a1.6,1.6,0,1,0,1.6,1.6A1.6,1.6,0,0,0,49.858,34.822Z" transform="translate(-13.235 -9.616)" fill="#692cb7"/>
      </g>
    </g>
  </g>
</svg>
