<svg xmlns="http://www.w3.org/2000/svg" xmlns:xlink="http://www.w3.org/1999/xlink" width="190" height="100" viewBox="0 0 190 100">
  <defs>
    <clipPath id="clip-path">
      <rect id="Rectángulo_401573" data-name="Rectángulo 401573" width="28.836" height="96" fill="none"/>
    </clipPath>
    <clipPath id="clip-path-2">
      <rect id="Rectángulo_401572" data-name="Rectángulo 401572" width="72.283" height="226.71" fill="none"/>
    </clipPath>
    <clipPath id="clip-path-3">
      <rect id="Rectángulo_401571" data-name="Rectángulo 401571" width="71" height="71" transform="translate(254.051 1980)" fill="#fff" stroke="#707070" stroke-width="1"/>
    </clipPath>
  </defs>
  <g id="Grupo_1101823" data-name="Grupo 1101823" transform="translate(-180.051 -1968)">
    <g id="Grupo_1099688" data-name="Grupo 1099688" transform="translate(180.051 1968.333)">
      <g id="Grupo_1099687" data-name="Grupo 1099687" clip-path="url(#clip-path)">
        <g id="Grupo_1099686" data-name="Grupo 1099686" transform="translate(-6.669 -47.6)" opacity="0.45" style="mix-blend-mode: multiply;isolation: isolate">
          <g id="Grupo_1099685" data-name="Grupo 1099685">
            <g id="Grupo_1099684" data-name="Grupo 1099684" clip-path="url(#clip-path-2)">
              <path id="Trazado_873516" data-name="Trazado 873516" d="M13.49,36.583l86.48-15.848-.735,5.147L12.756,41.73Z" transform="matrix(0.898, -0.44, 0.44, 0.898, -28.215, 166.608)" fill="#2d0464"/>
              <path id="Trazado_873517" data-name="Trazado 873517" d="M13.49,36.583l86.48-15.848-.735,5.147L12.756,41.73Z" transform="matrix(0.898, -0.44, 0.44, 0.898, -28.215, 152.486)" fill="#2d0464"/>
              <path id="Trazado_873518" data-name="Trazado 873518" d="M13.49,36.583l86.48-15.848-.735,5.147L12.756,41.73Z" transform="matrix(0.898, -0.44, 0.44, 0.898, -28.215, 138.363)" fill="#2d0464"/>
              <path id="Trazado_873519" data-name="Trazado 873519" d="M13.49,36.583l86.48-15.848-.735,5.147L12.756,41.73Z" transform="matrix(0.898, -0.44, 0.44, 0.898, -28.215, 124.241)" fill="#2d0464"/>
              <path id="Trazado_873520" data-name="Trazado 873520" d="M13.49,36.583l86.48-15.848-.735,5.147L12.756,41.73Z" transform="matrix(0.898, -0.44, 0.44, 0.898, -28.215, 110.118)" fill="#2d0464"/>
              <path id="Trazado_873521" data-name="Trazado 873521" d="M13.49,36.583l86.48-15.848-.735,5.147L12.756,41.73Z" transform="matrix(0.898, -0.44, 0.44, 0.898, -28.215, 95.996)" fill="#2d0464"/>
              <path id="Trazado_873522" data-name="Trazado 873522" d="M13.49,36.583l86.48-15.848-.735,5.147L12.756,41.73Z" transform="matrix(0.898, -0.44, 0.44, 0.898, -28.215, 81.873)" fill="#2d0464"/>
              <path id="Trazado_873523" data-name="Trazado 873523" d="M13.49,36.583l86.48-15.848-.735,5.147L12.756,41.73Z" transform="matrix(0.898, -0.44, 0.44, 0.898, -28.215, 67.751)" fill="#2d0464"/>
              <path id="Trazado_873524" data-name="Trazado 873524" d="M13.49,36.583l86.48-15.848-.735,5.147L12.756,41.73Z" transform="matrix(0.898, -0.44, 0.44, 0.898, -28.215, 53.629)" fill="#2d0464"/>
              <path id="Trazado_873525" data-name="Trazado 873525" d="M13.49,36.583l86.48-15.848-.735,5.147L12.756,41.73Z" transform="matrix(0.898, -0.44, 0.44, 0.898, -28.215, 39.506)" fill="#2d0464"/>
              <path id="Trazado_873526" data-name="Trazado 873526" d="M13.49,36.583l86.48-15.848-.735,5.147L12.756,41.73Z" transform="translate(-28.215 25.383) rotate(-26.114)" fill="#2d0464"/>
            </g>
          </g>
        </g>
      </g>
      <rect id="Rectángulo_401574" data-name="Rectángulo 401574" width="161" height="100" transform="translate(29 -0.333)" fill="#efe8f7"/>
    </g>
    <g id="Enmascarar_grupo_1098668" data-name="Enmascarar grupo 1098668" clip-path="url(#clip-path-3)">
      <g id="gestion-de-proyectos" transform="translate(254.051 1980)">
        <path id="Trazado_873737" data-name="Trazado 873737" d="M1.04,16.356v49.6a2.091,2.091,0,0,0,2.091,2.091H67.869a2.091,2.091,0,0,0,2.091-2.091v-49.6Z" fill="#f1f4f6"/>
        <g id="Grupo_1101064" data-name="Grupo 1101064">
          <path id="Trazado_873738" data-name="Trazado 873738" d="M10.463,10.612H6.932a.149.149,0,0,1-.149-.149V3.1a.149.149,0,0,1,.149-.149h3.531a.149.149,0,0,1,.149.149v7.36A.149.149,0,0,1,10.463,10.612Z" fill="#d0e2e7"/>
          <path id="Trazado_873739" data-name="Trazado 873739" d="M23.864,10.612H20.334a.149.149,0,0,1-.149-.149V3.1a.149.149,0,0,1,.149-.149h3.531a.149.149,0,0,1,.149.149v7.36A.149.149,0,0,1,23.864,10.612Z" fill="#d0e2e7"/>
          <path id="Trazado_873740" data-name="Trazado 873740" d="M37.265,10.612H33.735a.149.149,0,0,1-.149-.149V3.1a.149.149,0,0,1,.149-.149h3.531a.149.149,0,0,1,.149.149v7.36a.149.149,0,0,1-.149.149Z" fill="#d0e2e7"/>
          <path id="Trazado_873741" data-name="Trazado 873741" d="M50.666,10.612H47.136a.149.149,0,0,1-.149-.149V3.1a.149.149,0,0,1,.149-.149h3.531a.149.149,0,0,1,.149.149v7.36A.149.149,0,0,1,50.666,10.612Z" fill="#d0e2e7"/>
          <path id="Trazado_873742" data-name="Trazado 873742" d="M64.068,10.612H60.537a.149.149,0,0,1-.149-.149V3.1a.149.149,0,0,1,.149-.149h3.531a.149.149,0,0,1,.149.149v7.36A.149.149,0,0,1,64.068,10.612Z" fill="#d0e2e7"/>
        </g>
        <path id="Trazado_873743" data-name="Trazado 873743" d="M67.869,6.783H64.217v3.68a.149.149,0,0,1-.149.149H60.537a.149.149,0,0,1-.149-.149V6.783H50.815v3.68a.149.149,0,0,1-.149.149H47.136a.149.149,0,0,1-.149-.149V6.783H37.414v3.68a.149.149,0,0,1-.149.149H33.735a.149.149,0,0,1-.149-.149V6.783H24.013v3.68a.149.149,0,0,1-.149.149H20.334a.149.149,0,0,1-.149-.149V6.783H10.612v3.68a.149.149,0,0,1-.149.149H6.932a.149.149,0,0,1-.149-.149V6.783H3.131A2.091,2.091,0,0,0,1.04,8.875v7.481H69.96V8.875a2.091,2.091,0,0,0-2.091-2.091Z" fill="#dd636e"/>
        <path id="Trazado_873744" data-name="Trazado 873744" d="M64.413,16.356V54.689A10.583,10.583,0,0,1,53.83,65.272H1.04v.682a2.091,2.091,0,0,0,2.091,2.091H67.869a2.091,2.091,0,0,0,2.091-2.091v-49.6Z" fill="#dfeaef"/>
        <path id="Trazado_873745" data-name="Trazado 873745" d="M18.12,27.842H5.021a.15.15,0,0,1-.15-.15V22.25a.151.151,0,0,1,.15-.15h13.1a.151.151,0,0,1,.15.15v5.442a.15.15,0,0,1-.15.15Z" fill="#9bd069"/>
        <path id="Trazado_873746" data-name="Trazado 873746" d="M23.863,33.585H8.849a.151.151,0,0,1-.15-.15V27.993a.151.151,0,0,1,.15-.15H23.863a.15.15,0,0,1,.15.15v5.442a.15.15,0,0,1-.15.15Z" fill="#8bc852"/>
        <path id="Trazado_873747" data-name="Trazado 873747" d="M29.606,39.328H12.678a.151.151,0,0,1-.15-.15V33.736a.151.151,0,0,1,.15-.15H29.606a.15.15,0,0,1,.15.15v5.442A.15.15,0,0,1,29.606,39.328Z" fill="#9bd069"/>
        <path id="Trazado_873748" data-name="Trazado 873748" d="M52.579,45.072H29.757V39.479a.15.15,0,0,1,.15-.15H52.579a.15.15,0,0,1,.15.15v5.442a.151.151,0,0,1-.15.151Z" fill="#4073c8"/>
        <path id="Trazado_873749" data-name="Trazado 873749" d="M41.093,50.815H29.907a.151.151,0,0,1-.15-.15V45.072H41.243v5.593a.15.15,0,0,1-.15.15Z" fill="#3b66c1"/>
        <path id="Trazado_873750" data-name="Trazado 873750" d="M64.215,56.558H50.965a.15.15,0,0,1-.15-.15V50.965a.15.15,0,0,1,.15-.15h13.1a.15.15,0,0,1,.15.15v5.592Z" fill="#e28424"/>
        <path id="Trazado_873751" data-name="Trazado 873751" d="M64.065,62.3H54.794a.15.15,0,0,1-.15-.15V56.558h9.572V62.15a.151.151,0,0,1-.151.15Z" fill="#dd6938"/>
        <path id="Trazado_873752" data-name="Trazado 873752" d="M64.215,62.15V56.733A10.564,10.564,0,0,1,61.182,62.3h2.883A.15.15,0,0,0,64.215,62.15Z" fill="#dd542e"/>
        <path id="Trazado_873753" data-name="Trazado 873753" d="M67.869,5.743H65.257V3.1a1.19,1.19,0,0,0-1.189-1.189H60.537A1.19,1.19,0,0,0,59.348,3.1v2.64H51.856V3.1a1.19,1.19,0,0,0-1.189-1.189H47.136A1.19,1.19,0,0,0,45.947,3.1v2.64H38.455V3.1a1.19,1.19,0,0,0-1.189-1.189H33.735A1.19,1.19,0,0,0,32.546,3.1v2.64H25.054V3.1a1.19,1.19,0,0,0-1.189-1.189H20.334A1.19,1.19,0,0,0,19.145,3.1v2.64H11.652V3.1a1.19,1.19,0,0,0-1.189-1.189H6.933A1.19,1.19,0,0,0,5.744,3.1v2.64H3.131A3.135,3.135,0,0,0,0,8.875v57.08a3.135,3.135,0,0,0,3.131,3.131H17.246a1.04,1.04,0,1,0,0-2.08H13.568V40.368h9.406V67.006H22.1a1.04,1.04,0,0,0,0,2.08H67.869A3.135,3.135,0,0,0,71,65.954V8.875a3.135,3.135,0,0,0-3.131-3.131ZM61.428,3.994h1.749V9.572H61.428Zm-13.4,0h1.749V9.572H48.027Zm-13.4,0h1.749V9.572H34.626Zm-13.4,0h1.749V9.572H21.225Zm-13.4,0H9.572V9.572H7.823ZM3.131,7.823H5.743v2.64a1.19,1.19,0,0,0,1.189,1.189h3.531a1.19,1.19,0,0,0,1.189-1.189V7.823h7.492v2.64a1.19,1.19,0,0,0,1.189,1.189h3.531a1.19,1.19,0,0,0,1.189-1.189V7.823h7.492v2.64a1.19,1.19,0,0,0,1.189,1.189h3.531a1.19,1.19,0,0,0,1.189-1.189V7.823h7.492v2.64a1.19,1.19,0,0,0,1.189,1.189h3.531a1.19,1.19,0,0,0,1.189-1.189V7.823h7.492v2.64a1.19,1.19,0,0,0,1.189,1.189h3.531a1.19,1.19,0,0,0,1.189-1.189V7.823h2.612A1.052,1.052,0,0,1,68.92,8.875v6.441H19.673a1.04,1.04,0,0,0,0,2.08h3.3V26.8H19.311V22.25a1.192,1.192,0,0,0-1.19-1.19H13.568V17.4h1.251a1.04,1.04,0,0,0,0-2.08H2.08V8.875A1.052,1.052,0,0,1,3.131,7.823ZM55.684,61.261V57.6h7.492v3.663Zm7.492-5.743H51.855V51.855h11.32Zm-12.21-5.743a1.192,1.192,0,0,0-1.19,1.19v5.442a1.192,1.192,0,0,0,1.19,1.191H53.6V62.15a1.192,1.192,0,0,0,1.191,1.191h2.639v3.665H48.027V46.112h4.552a1.192,1.192,0,0,0,1.19-1.191V39.479a1.192,1.192,0,0,0-1.19-1.19H48.027V17.4h9.406V49.775Zm-37.4-11.486V34.625H28.717v3.663Zm3.663-15.149V26.8H5.91V23.139ZM9.739,28.882H22.974v3.663H9.739ZM34.461,17.4V38.288H30.8V33.736a1.192,1.192,0,0,0-1.19-1.19H25.055V17.4Zm9.077,20.893a1.04,1.04,0,0,0,0,2.08h8.152v3.663H30.8V40.368h7.887a1.04,1.04,0,0,0,0-2.08H36.541V17.4h9.406V38.288ZM30.8,46.112H40.2v3.663H30.8Zm10.3,5.743a1.192,1.192,0,0,0,1.19-1.191V46.112h3.664V67.006H36.541V51.855ZM3.131,67.006A1.052,1.052,0,0,1,2.08,65.954V17.4h9.408v3.663H5.021a1.192,1.192,0,0,0-1.19,1.19v5.442a1.192,1.192,0,0,0,1.19,1.191H7.659v4.552a1.192,1.192,0,0,0,1.19,1.191h2.638c0,5.678,0,9.392,0,32.38ZM25.055,40.368h3.662v10.3a1.192,1.192,0,0,0,1.19,1.191h4.553V67.006H25.054V40.368ZM68.92,65.954a1.052,1.052,0,0,1-1.051,1.051H59.513V63.341h4.552a1.192,1.192,0,0,0,1.19-1.191V50.965a1.192,1.192,0,0,0-1.19-1.19H59.513V17.4H68.92Z"/>
      </g>
    </g>
  </g>
</svg>
