<svg xmlns="http://www.w3.org/2000/svg" xmlns:xlink="http://www.w3.org/1999/xlink" width="89" height="89" viewBox="0 0 89 89">
  <defs>
    <clipPath id="clip-path">
      <rect id="Rectángulo_403146" data-name="Rectángulo 403146" width="89" height="89" transform="translate(849 5623)" fill="#fff" stroke="#707070" stroke-width="1"/>
    </clipPath>
    <clipPath id="clip-path-2">
      <path id="path7209" d="M0-89H89V0H0Z"/>
    </clipPath>
  </defs>
  <g id="Enmascarar_grupo_1098670" data-name="Enmascarar grupo 1098670" transform="translate(-849 -5623)" clip-path="url(#clip-path)">
    <g id="g7203" transform="translate(849 5712)">
      <g id="g7205">
        <g id="g7207" clip-path="url(#clip-path-2)">
          <g id="g7213" transform="translate(11.669 -87.696)">
            <path id="path7215" d="M0,0A5.37,5.37,0,0,0-5.37,5.37V74.544A5.37,5.37,0,0,0,0,79.914H50.489a5.37,5.37,0,0,0,5.37-5.37V16.56a4.068,4.068,0,0,0-1.192-2.877L42.177,1.191A4.069,4.069,0,0,0,39.3,0Z" fill="#f4f8f8"/>
          </g>
          <g id="g7217" transform="translate(58.024 -72.822)">
            <path id="path7219" d="M0,0A5.388,5.388,0,0,1-1.177-.131v59.8a5.37,5.37,0,0,1-5.37,5.37H4.134A5.37,5.37,0,0,0,9.5,59.67V1.685A4.067,4.067,0,0,0,9.138,0Z" fill="#e5ecf1"/>
          </g>
          <g id="g7221" transform="translate(66.337 -74.013)">
            <path id="path7223" d="M0,0-12.491-12.491a4.068,4.068,0,0,0-1.192-.825v9.138a5.37,5.37,0,0,0,5.37,5.37H.825A4.067,4.067,0,0,0,0,0" fill="#3ba935"/>
          </g>
          <g id="g7225" transform="translate(71.817 -17.85)">
            <path id="path7227" d="M0,0-19.181-11.359a2.071,2.071,0,0,1-.726-2.837l.981-1.656-3.881-2.3c-2.56-1.469-3.757-1.741-6.067-.848l-2.517.973a5.358,5.358,0,0,1-4.663-.388l-6.737-3.972L-52.358-6.231l8.627,5.092A5.365,5.365,0,0,1-42.219.2l2.907,3.77a33.447,33.447,0,0,0,7.045,5.573l11.095,6.573a3.082,3.082,0,0,0,4.223-1.081,3.082,3.082,0,0,0-1.081-4.223l3.466,2.054a3.082,3.082,0,0,0,4.223-1.081,3.082,3.082,0,0,0-1.081-4.223l2.311,1.369A3.082,3.082,0,0,0-4.889,7.85,3.082,3.082,0,0,0-5.97,3.627L-3.142,5.3A3.082,3.082,0,0,0,1.081,4.222,3.082,3.082,0,0,0,0,0" fill="#ffece3"/>
          </g>
          <g id="g7229" transform="translate(71.816 -17.85)">
            <path id="path7231" d="M0,0-6.61-3.915a3.535,3.535,0,0,1-.884,1.589A3.672,3.672,0,0,1-12-1.772l-1.88-1.114a.167.167,0,0,0-.206.029.166.166,0,0,0-.013.21,3.588,3.588,0,0,1,.153,3.894,3.589,3.589,0,0,1-4.917,1.259l-1.477-.882a.143.143,0,0,0-.179.026.142.142,0,0,0-.007.183,3.586,3.586,0,0,1,.2,4.052A3.651,3.651,0,0,1-25.3,7.039L-26.51,6.32a.709.709,0,0,0-.771.031.706.706,0,0,0-.286.717,3.57,3.57,0,0,1-.426,2.545,3.569,3.569,0,0,1-1.677,1.467l8.429,4.994a3.148,3.148,0,0,0,4.322-1.091,3.082,3.082,0,0,0-1.11-4.172l3.4,2.012a3.148,3.148,0,0,0,4.322-1.091,3.082,3.082,0,0,0-1.11-4.172L-9.181,8.89A3.148,3.148,0,0,0-4.859,7.8,3.082,3.082,0,0,0-5.97,3.627l2.758,1.634A3.148,3.148,0,0,0,1.11,4.171,3.082,3.082,0,0,0,0,0" fill="#ffddce"/>
          </g>
          <g id="g7233" transform="translate(65.847 -14.222)">
            <path id="path7235" d="M0,0-8.763-5.191" fill="none" stroke="#000" stroke-linecap="round" stroke-linejoin="round" stroke-miterlimit="10" stroke-width="2.607"/>
          </g>
          <g id="g7237" transform="translate(60.394 -10.288)">
            <path id="path7239" d="M0,0-6.456-3.825" fill="none" stroke="#000" stroke-linecap="round" stroke-linejoin="round" stroke-miterlimit="10" stroke-width="2.607"/>
          </g>
          <g id="g7241" transform="translate(53.786 -7.038)">
            <path id="path7243" d="M0,0-2.53-1.5" fill="none" stroke="#000" stroke-linecap="round" stroke-linejoin="round" stroke-miterlimit="10" stroke-width="2.607"/>
          </g>
          <g id="g7245" transform="translate(70.155 -39.267)">
            <path id="path7247" d="M0,0-5.174,3.008A5.359,5.359,0,0,1-9.838,3.4L-12.676,2.28A4.562,4.562,0,0,0-15.464,2.1l-4.349,1.1a4.562,4.562,0,0,0-3.443,4.423v5.806a1.489,1.489,0,0,0,1.486,1.489,4.48,4.48,0,0,0,4.483-4.48V10.2L1.329,21.221A5.36,5.36,0,0,1,2.5,20.278l7.064-4.127Z" fill="#fcd0a3"/>
          </g>
          <g id="g7249" transform="translate(72.915 -34.608)">
            <path id="path7251" d="M0,0-.995,3.689-12.14,10.22l10.71,6.342A5.355,5.355,0,0,1-.255,15.62l7.064-4.127Z" fill="#ffb983"/>
          </g>
          <g id="g7253" transform="translate(31.866 -15.568)">
            <path id="path7255" d="M0,0-1.745,2.431a3.081,3.081,0,0,1-4.3.706,3.081,3.081,0,0,1-.706-4.3l1.745-2.431A3.081,3.081,0,0,1-.706-4.3h0A3.081,3.081,0,0,1,0,0" fill="#fcd0a3"/>
          </g>
          <g id="g7257" transform="translate(38.798 -14.658)">
            <path id="path7259" d="M0,0-3.672,5.114a3.081,3.081,0,0,1-4.3.706,3.081,3.081,0,0,1-.706-4.3l3.671-5.114A3.081,3.081,0,0,1-.706-4.3,3.081,3.081,0,0,1,0,0" fill="#fcd0a3"/>
          </g>
          <g id="g7261" transform="translate(43.804 -11.064)">
            <path id="path7263" d="M0,0-3.672,5.114a3.081,3.081,0,0,1-4.3.706,3.081,3.081,0,0,1-.706-4.3l3.672-5.114A3.081,3.081,0,0,1-.706-4.3,3.081,3.081,0,0,1,0,0" fill="#fcd0a3"/>
          </g>
          <g id="g7265" transform="translate(47.178 -5.198)">
            <path id="path7267" d="M0,0-1.221,1.7a3.081,3.081,0,0,1-4.3.706,3.081,3.081,0,0,1-.706-4.3l1.221-1.7A3.081,3.081,0,0,1-.706-4.3,3.081,3.081,0,0,1,0,0" fill="#ffb983"/>
          </g>
          <g id="g7269" transform="translate(32.633 -41.911)">
            <path id="path7271" d="M0,0-2.7-1.6a1.562,1.562,0,0,0-2.141.548L-15.934,17.677a1.563,1.563,0,0,0,.548,2.141l2.7,1.6A3.81,3.81,0,0,0-7.468,20.08l8.8-14.861A3.809,3.809,0,0,0,0,0" fill="#692cb7"/>
          </g>
          <g id="g7273" transform="translate(69.248 -43.51)">
            <path id="path7275" d="M0,0-2.7,1.6A3.81,3.81,0,0,0-4.034,6.818l8.8,14.861a3.81,3.81,0,0,0,5.219,1.336l2.7-1.6a1.562,1.562,0,0,0,.548-2.141L2.141.548A1.562,1.562,0,0,0,0,0" fill="#692cb7"/>
          </g>
          <g id="g7277" transform="translate(15.6 -63.739)">
            <path id="path7279" d="M0,0H42.627" fill="none" stroke="#000" stroke-linecap="round" stroke-linejoin="round" stroke-miterlimit="10" stroke-width="2.607"/>
          </g>
          <g id="g7281" transform="translate(15.6 -72.822)">
            <path id="path7283" d="M0,0H21.313" fill="none" stroke="#000" stroke-linecap="round" stroke-linejoin="round" stroke-miterlimit="10" stroke-width="2.607"/>
          </g>
          <g id="g7285" transform="translate(15.6 -55.691)">
            <path id="path7287" d="M0,0H42.627" fill="none" stroke="#000" stroke-linecap="round" stroke-linejoin="round" stroke-miterlimit="10" stroke-width="2.607"/>
          </g>
          <g id="g7289" transform="translate(52.654 -87.33)">
            <path id="path7291" d="M0,0V9.138a5.37,5.37,0,0,0,5.37,5.37h9.138" fill="none" stroke="#000" stroke-linecap="round" stroke-linejoin="round" stroke-miterlimit="10" stroke-width="2.607"/>
          </g>
          <g id="g7293" transform="translate(67.528 -48.838)">
            <path id="path7295" d="M0,0V-22.3a4.069,4.069,0,0,0-1.191-2.877L-13.683-37.666a4.069,4.069,0,0,0-2.877-1.192h-39.3a5.37,5.37,0,0,0-5.37,5.37V35.686a5.37,5.37,0,0,0,5.37,5.37h13.642" fill="none" stroke="#000" stroke-linecap="round" stroke-linejoin="round" stroke-miterlimit="10" stroke-width="2.607"/>
          </g>
          <g id="g7297" transform="translate(32.633 -41.911)">
            <path id="path7299" d="M0,0-2.7-1.6a1.562,1.562,0,0,0-2.141.548L-15.934,17.677a1.563,1.563,0,0,0,.548,2.141l2.7,1.6A3.81,3.81,0,0,0-7.468,20.08l8.8-14.861A3.809,3.809,0,0,0,0,0Z" fill="none" stroke="#000" stroke-linecap="round" stroke-linejoin="round" stroke-miterlimit="10" stroke-width="2.607"/>
          </g>
          <g id="g7301" transform="translate(69.891 -28.796)">
            <path id="path7303" d="M0,0,4.126,6.965A3.81,3.81,0,0,0,9.346,8.3l2.7-1.6a1.562,1.562,0,0,0,.548-2.141L1.5-14.166a1.562,1.562,0,0,0-2.141-.548l-2.7,1.6A3.809,3.809,0,0,0-4.678-7.9l1.556,2.627" fill="none" stroke="#000" stroke-linecap="round" stroke-linejoin="round" stroke-miterlimit="10" stroke-width="2.607"/>
          </g>
          <g id="g7305" transform="translate(49.456 -35.734)">
            <path id="path7307" d="M0,0-.445-.263C-3-1.732-4.2-2-6.512-1.111l-2.517.973a5.359,5.359,0,0,1-4.663-.388l-1.556-.918" fill="none" stroke="#000" stroke-linecap="round" stroke-linejoin="round" stroke-miterlimit="10" stroke-width="2.607"/>
          </g>
          <g id="g7309" transform="translate(24.564 -21.067)">
            <path id="path7311" d="M0,0,2.608,1.539" fill="none" stroke="#000" stroke-linecap="round" stroke-linejoin="round" stroke-miterlimit="10" stroke-width="2.607"/>
          </g>
          <g id="g7313" transform="translate(46.468 -4.209)">
            <path id="path7315" d="M0,0,4.176,2.474A3.082,3.082,0,0,0,8.4,1.393,3.082,3.082,0,0,0,7.318-2.829L10.784-.776a3.082,3.082,0,0,0,4.223-1.081,3.082,3.082,0,0,0-1.081-4.223L16.237-4.71a3.082,3.082,0,0,0,4.223-1.081,3.082,3.082,0,0,0-1.081-4.223l2.828,1.675a3.082,3.082,0,0,0,4.222-1.081,3.082,3.082,0,0,0-1.081-4.222" fill="none" stroke="#000" stroke-linecap="round" stroke-linejoin="round" stroke-miterlimit="10" stroke-width="2.607"/>
          </g>
          <g id="g7317" transform="translate(65.344 -36.471)">
            <path id="path7319" d="M0,0-.363.211A5.359,5.359,0,0,1-5.026.6L-7.865-.516a4.562,4.562,0,0,0-2.787-.176L-15,.408a4.562,4.562,0,0,0-3.443,4.423v5.806a1.489,1.489,0,0,0,1.486,1.489,4.48,4.48,0,0,0,4.483-4.48V7.4L6.141,18.424a5.364,5.364,0,0,1,1.175-.943l2.638-1.541" fill="none" stroke="#000" stroke-linecap="round" stroke-linejoin="round" stroke-miterlimit="10" stroke-width="2.607"/>
          </g>
          <g id="g7321" transform="translate(30.12 -13.137)">
            <path id="path7323" d="M0,0A3.081,3.081,0,0,1-4.3.706a3.081,3.081,0,0,1-.706-4.3l1.745-2.431a3.081,3.081,0,0,1,4.3-.706h0a3.081,3.081,0,0,1,.706,4.3" fill="none" stroke="#000" stroke-linecap="round" stroke-linejoin="round" stroke-miterlimit="10" stroke-width="2.607"/>
          </g>
          <g id="g7325" transform="translate(38.798 -14.658)">
            <path id="path7327" d="M0,0-3.672,5.114a3.081,3.081,0,0,1-4.3.706,3.081,3.081,0,0,1-.706-4.3l3.671-5.114A3.081,3.081,0,0,1-.706-4.3,3.081,3.081,0,0,1,0,0Z" fill="none" stroke="#000" stroke-linecap="round" stroke-linejoin="round" stroke-miterlimit="10" stroke-width="2.607"/>
          </g>
          <g id="g7329" transform="translate(38.798 -14.658)">
            <path id="path7331" d="M0,0A3.081,3.081,0,0,1,5.006,3.594L1.334,8.708a3.081,3.081,0,0,1-4.3.706,3.081,3.081,0,0,1-.706-4.3" fill="none" stroke="#000" stroke-linecap="round" stroke-linejoin="round" stroke-miterlimit="10" stroke-width="2.607"/>
          </g>
          <g id="g7333" transform="translate(42.172 -8.791)">
            <path id="path7335" d="M0,0A3.081,3.081,0,0,1,5.006,3.594l-1.221,1.7A3.081,3.081,0,1,1-1.221,1.7" fill="none" stroke="#000" stroke-linecap="round" stroke-linejoin="round" stroke-miterlimit="10" stroke-width="2.607"/>
          </g>
        </g>
      </g>
    </g>
  </g>
</svg>
