<svg xmlns="http://www.w3.org/2000/svg" xmlns:xlink="http://www.w3.org/1999/xlink" width="295" height="211" viewBox="0 0 295 211">
  <defs>
    <clipPath id="clip-path">
      <rect id="Rectángulo_403321" data-name="Rectángulo 403321" width="238.491" height="174.095"/>
    </clipPath>
  </defs>
  <g id="Grupo_1101820" data-name="Grupo 1101820" transform="translate(-1125.051 -401)">
    <rect id="Rectángulo_403275" data-name="Rectángulo 403275" width="295" height="211" transform="translate(1125.051 401)" fill="#ebf6ea"/>
    <g id="_31240941_7770733" data-name="31240941_7770733" transform="translate(1135.565 324.547)">
      <g id="OBJECTS" transform="translate(11.021 93.75)">
        <g id="Grupo_1101692" data-name="Grupo 1101692" transform="translate(55.848)">
          <g id="Grupo_1101690" data-name="Grupo 1101690">
            <rect id="Rectángulo_403315" data-name="Rectángulo 403315" width="46.589" height="0.527" fill="#25379d"/>
          </g>
          <g id="Grupo_1101691" data-name="Grupo 1101691" transform="translate(93.49)">
            <rect id="Rectángulo_403316" data-name="Rectángulo 403316" width="46.588" height="0.527" fill="#25379d"/>
          </g>
        </g>
        <g id="Grupo_1101693" data-name="Grupo 1101693" transform="translate(9.795 47.29)">
          <path id="Trazado_912697" data-name="Trazado 912697" d="M200.442,262.728c-9.071,0-18.684,2.377-27.879,2.377-40.667,0-15.969-51.09-83.115-51.09-42.478,0-59.844,39.731-59.844,81.937a161.337,161.337,0,0,0,6.388,44.8l218.633,1.592c3.443-6.9,3.626-12.143,3.626-19.675C258.252,283.161,234.144,262.728,200.442,262.728Z" transform="translate(-29.604 -197.914)" fill="#d5e3ff"/>
          <path id="Trazado_912698" data-name="Trazado 912698" d="M287.277,183.487a44.626,44.626,0,0,0-19.914,4.372c-10.721,4.949-16.156,14.43-16.156,26.166,0,18.563,12.017,29.49,29.337,29.49,20.342,0,43.13-17.08,35.363-39.411C311.746,192.142,299.833,183.893,287.277,183.487Z" transform="translate(-134.401 -183.468)" fill="#d5e3ff"/>
        </g>
        <g id="Grupo_1101702" data-name="Grupo 1101702" transform="translate(0 132.095)">
          <g id="Grupo_1101697" data-name="Grupo 1101697" transform="translate(204.308 6.883)">
            <g id="Grupo_1101694" data-name="Grupo 1101694">
              <path id="Trazado_912699" data-name="Trazado 912699" d="M440.514,357.419c-10.863,11.142.256,39.958-40.484,52.117,0,0-5.086-12.379,4.154-30.837S440.514,357.419,440.514,357.419Z" transform="translate(-398.634 -357.419)" fill="#7287ff"/>
              <path id="Trazado_912700" data-name="Trazado 912700" d="M405.309,410.857a71.007,71.007,0,0,1,4.561-12.382,80.2,80.2,0,0,1,6.6-11.475,70.215,70.215,0,0,1,8.494-10.175,45.662,45.662,0,0,1,10.536-7.96,73.453,73.453,0,0,0-9.5,8.949,105.706,105.706,0,0,0-8.022,10.231,130,130,0,0,0-6.842,11.078C409.044,402.937,407.134,406.857,405.309,410.857Z" transform="translate(-401.79 -362.832)" fill="#b1baff"/>
            </g>
            <g id="Grupo_1101695" data-name="Grupo 1101695" transform="translate(8.665 38.376)">
              <path id="Trazado_912701" data-name="Trazado 912701" d="M449.437,438.838c-8.042-.994-16.487,12.7-34.364-.366,0,0,3.53-6.009,14.094-7.992S449.437,438.838,449.437,438.838Z" transform="translate(-415.073 -430.226)" fill="#7287ff"/>
              <path id="Trazado_912702" data-name="Trazado 912702" d="M419.56,442.465a36.957,36.957,0,0,1,6.571-2.01,41.765,41.765,0,0,1,6.839-.877,36.567,36.567,0,0,1,6.895.316,23.778,23.778,0,0,1,6.62,1.861,38.3,38.3,0,0,0-6.7-1.12,55.05,55.05,0,0,0-6.769-.1,67.71,67.71,0,0,0-6.749.653C424.021,441.519,421.794,441.962,419.56,442.465Z" transform="translate(-417.195 -434.63)" fill="#b1baff"/>
            </g>
            <g id="Grupo_1101696" data-name="Grupo 1101696" transform="translate(4.073 25.605)">
              <path id="Trazado_912703" data-name="Trazado 912703" d="M449.908,408.155c-10.8,4.151-12.245,27.074-43.547,22.627,0,0,.411-9.943,12.39-19.541S449.908,408.155,449.908,408.155Z" transform="translate(-406.361 -405.996)" fill="#b1baff"/>
              <path id="Trazado_912704" data-name="Trazado 912704" d="M411.493,431.992a52.814,52.814,0,0,1,6.929-6.948,59.624,59.624,0,0,1,8.028-5.7,52.239,52.239,0,0,1,8.9-4.234,33.962,33.962,0,0,1,9.592-2.1,54.625,54.625,0,0,0-9.2,3.094,78.6,78.6,0,0,0-8.6,4.419,96.6,96.6,0,0,0-8.066,5.358C416.478,427.8,413.969,429.857,411.493,431.992Z" transform="translate(-408.788 -409.312)" fill="#7287ff"/>
            </g>
          </g>
          <g id="Grupo_1101701" data-name="Grupo 1101701">
            <g id="Grupo_1101698" data-name="Grupo 1101698" transform="translate(7.28)">
              <path id="Trazado_912705" data-name="Trazado 912705" d="M24.833,344.361c10.167,12.937-4.765,41.981,36.7,59.35,0,0,6.74-12.442-.9-32.888S24.833,344.361,24.833,344.361Z" transform="translate(-24.833 -344.361)" fill="#7287ff"/>
              <path id="Trazado_912706" data-name="Trazado 912706" d="M66.858,405.684a75.11,75.11,0,0,0-3.4-13.532A84.746,84.746,0,0,0,57.8,379.346a74.263,74.263,0,0,0-7.785-11.654,48.267,48.267,0,0,0-10.181-9.554,77.739,77.739,0,0,1,8.98,10.477,111.664,111.664,0,0,1,7.282,11.66,137.393,137.393,0,0,1,5.947,12.418C63.822,396.937,65.389,401.274,66.858,405.684Z" transform="translate(-31.928 -350.876)" fill="#b1baff"/>
            </g>
            <g id="Grupo_1101699" data-name="Grupo 1101699" transform="translate(4.579 47.386)">
              <path id="Trazado_912707" data-name="Trazado 912707" d="M19.709,443.875c7.973-1.447,17.178,11.743,34.288-2.308,0,0-3.864-5.8-14.524-7.183S19.709,443.875,19.709,443.875Z" transform="translate(-19.709 -434.262)" fill="#7287ff"/>
              <path id="Trazado_912708" data-name="Trazado 912708" d="M56.082,445.69a36.966,36.966,0,0,0-6.674-1.636,41.8,41.8,0,0,0-6.878-.489,36.6,36.6,0,0,0-6.866.705,23.792,23.792,0,0,0-6.5,2.232,38.285,38.285,0,0,1,6.629-1.5,55.026,55.026,0,0,1,6.753-.485,67.7,67.7,0,0,1,6.775.271C51.576,445,53.824,445.314,56.082,445.69Z" transform="translate(-24.179 -438.661)" fill="#b1baff"/>
            </g>
            <g id="Grupo_1101700" data-name="Grupo 1101700" transform="translate(0 32.197)">
              <path id="Trazado_912709" data-name="Trazado 912709" d="M11.021,406.86c10.544,4.768,10.663,27.735,42.17,25.1,0,0,.163-9.95-11.242-20.223S11.021,406.86,11.021,406.86Z" transform="translate(-11.021 -405.444)" fill="#b1baff"/>
              <path id="Trazado_912710" data-name="Trazado 912710" d="M57.154,432.733a52.777,52.777,0,0,0-6.517-7.336,59.648,59.648,0,0,0-7.686-6.153A52.246,52.246,0,0,0,34.31,414.5a33.953,33.953,0,0,0-9.454-2.653,54.636,54.636,0,0,1,9,3.618,78.515,78.515,0,0,1,8.33,4.908,96.622,96.622,0,0,1,7.743,5.814C52.419,428.263,54.8,430.458,57.154,432.733Z" transform="translate(-17.564 -408.474)" fill="#7287ff"/>
            </g>
          </g>
        </g>
        <g id="Grupo_1101800" data-name="Grupo 1101800" transform="translate(4.745 15.735)">
          <g id="Grupo_1101749" data-name="Grupo 1101749" clip-path="url(#clip-path)">
            <path id="Trazado_912711" data-name="Trazado 912711" d="M83.737,157.452s-20.475-9.468-31.213,5.966.889,29.845.65,36.4-12,10.785-6.667,20.112c4.233,7.621,11.726.489,11.726.489s-4.9,11.854,5.3,14.506,19.873-2.482,19.1-22.4S83.737,157.452,83.737,157.452Z" transform="translate(-31.892 -138.251)" fill="#661f1c"/>
            <path id="Trazado_912712" data-name="Trazado 912712" d="M232.9,284.988a28.2,28.2,0,0,0-12.965,0l4.023,4.992Z" transform="translate(-114.565 -199.563)" fill="#960d16"/>
            <path id="Trazado_912713" data-name="Trazado 912713" d="M240.588,254.87c-.451.41-.852,2.495-1.881,4.4,1.757-5.117,1.159-5.587.036-5.272-1.185.332-3.11,6.212-3.11,6.212s1.691-5.5.474-6.465c-.817-.647-2.062,2.882-2.793,5.274.5-2.06.921-4.927-.615-5.015-.722-.041-2.133,3.668-2.835,5.651-.578-2-1.306-4.052-2.809-4.052-.608,0-.831.723-.831,1.719a15.344,15.344,0,0,0,.67,3.944c-1.886,1.053-3.178,3.805-2.943,7.56,4.129.994,4.342,1.876,8.464,1.439,1.363-1.307,2.373-3.129,3.188-3.8,2.9-.993,3.279-2.767,4.984-5.776C243.643,255.3,241.37,254.16,240.588,254.87Z" transform="translate(-116.45 -185.11)" fill="#e38669"/>
            <path id="Trazado_912714" data-name="Trazado 912714" d="M168.483,283.084c7.451,2.385,22.566,17.765,22.566,17.765l6.84-21.067-.059-1.316a67.156,67.156,0,0,1,8.293,1.458c.25,5.819.948,31.933-6.224,38.648-8.086,7.571-29.274-13.13-29.274-13.13Z" transform="translate(-90.231 -196.839)" fill="#e38669"/>
            <path id="Trazado_912715" data-name="Trazado 912715" d="M90.34,283.236c.085-.552,11.868-2.159,11.868-2.159A89.365,89.365,0,0,1,124,282.194c.156.72,8.839,2.891,8.985,3.667C118.932,281.747,104.53,281.984,90.34,283.236Z" transform="translate(-53.276 -197.984)" fill="#960d16"/>
            <g id="Grupo_1101728" data-name="Grupo 1101728" transform="translate(28.589 139.174)">
              <g id="Grupo_1101703" data-name="Grupo 1101703" transform="translate(32.689 26.37)">
                <path id="Trazado_912716" data-name="Trazado 912716" d="M152.192,526.995c4-24.5,4.569-89.322,4.569-89.322L136.28,443.4l3.4,85.178c-.08.21-.141.4-.208.605C143.722,530.613,148.6,529.251,152.192,526.995Z" transform="translate(-136.28 -437.673)" fill="#b65124"/>
                <path id="Trazado_912717" data-name="Trazado 912717" d="M154.443,607.374c.013-.078.026-.162.038-.241-3.6,2.257-8.47,3.618-12.718,2.19-3.694,10.907,9.736,7.842,9.736,7.842s18.742,2.921,18.864-.659S154.443,607.374,154.443,607.374Z" transform="translate(-138.569 -517.812)"/>
              </g>
              <g id="Grupo_1101704" data-name="Grupo 1101704" transform="translate(0.345 25.712)">
                <path id="Trazado_912718" data-name="Trazado 912718" d="M91.122,527.906c4.053-24.594,11.311-88.6,11.311-88.6s-27.582-6.759-27.516.435c.42,45.339,2.437,85.26,2.682,89.963A25.565,25.565,0,0,0,91.122,527.906Z" transform="translate(-74.917 -436.425)" fill="#b65124"/>
                <path id="Trazado_912719" data-name="Trazado 912719" d="M93.067,610.361c.021-.123.042-.254.062-.379a25.555,25.555,0,0,1-13.523,1.8c.016.306.024.465.024.465-4.414,11.636,9.528,8.447,9.528,8.447s20.293,3.2,20.414-.379S93.067,610.361,93.067,610.361Z" transform="translate(-76.737 -518.501)"/>
              </g>
              <g id="Grupo_1101711" data-name="Grupo 1101711" transform="translate(1.626 116.635)">
                <g id="Grupo_1101705" data-name="Grupo 1101705" transform="translate(23.698 5.246)">
                  <path id="Trazado_912720" data-name="Trazado 912720" d="M123.464,618.877c5.607,2.6,7.281,4.995,7.281,4.995s-.311.739-8.263,1.318A9.239,9.239,0,0,1,123.464,618.877Z" transform="translate(-122.305 -618.877)" fill="#fff"/>
                </g>
                <g id="Grupo_1101706" data-name="Grupo 1101706" transform="translate(0 8.697)">
                  <path id="Trazado_912721" data-name="Trazado 912721" d="M77.346,625.425a20.262,20.262,0,0,0,.229,2.282S82,629.284,94.2,629.659c13.625.419,15.429-1.159,15.429-1.159a3.78,3.78,0,0,0-.143-1.532A80.2,80.2,0,0,1,77.346,625.425Z" transform="translate(-77.346 -625.425)" fill="#fff"/>
                </g>
                <g id="Grupo_1101707" data-name="Grupo 1101707" transform="translate(19.18 3.736)">
                  <path id="Trazado_912722" data-name="Trazado 912722" d="M113.932,620.7h.011a.18.18,0,0,0,.176-.185,4.412,4.412,0,0,1,2.177-4.174.17.17,0,0,0,.073-.239.193.193,0,0,0-.253-.069,4.843,4.843,0,0,0-2.37,4.5A.181.181,0,0,0,113.932,620.7Z" transform="translate(-113.735 -616.011)" fill="#fff"/>
                </g>
                <g id="Grupo_1101708" data-name="Grupo 1101708" transform="translate(16.531 2.802)">
                  <path id="Trazado_912723" data-name="Trazado 912723" d="M108.9,618.927a.182.182,0,0,0,.187-.17,4.807,4.807,0,0,1,2.116-4.188.17.17,0,0,0,.073-.239.194.194,0,0,0-.254-.068,5.08,5.08,0,0,0-2.308,4.484.181.181,0,0,0,.181.181Z" transform="translate(-108.708 -614.24)" fill="#fff"/>
                </g>
                <g id="Grupo_1101709" data-name="Grupo 1101709" transform="translate(17.021)">
                  <path id="Trazado_912724" data-name="Trazado 912724" d="M110.37,613.027a.164.164,0,0,1-.146-.112c-.1-.287-.976-2.822-.38-3.69a.68.68,0,0,1,.657-.3.75.75,0,0,1,.634.4c.522.955-.494,3.334-.612,3.6a.162.162,0,0,1-.148.1Zm-.264-3.594c-.353.513.01,2.044.286,2.942.326-.851.772-2.3.461-2.873a.424.424,0,0,0-.375-.226l-.048,0A.356.356,0,0,0,110.107,609.434Z" transform="translate(-109.638 -608.924)" fill="#fff"/>
                </g>
                <g id="Grupo_1101710" data-name="Grupo 1101710" transform="translate(14.055 1.658)">
                  <path id="Trazado_912725" data-name="Trazado 912725" d="M107.8,614.554c-.325-.03-3.185-.323-3.705-1.285a.721.721,0,0,1,.053-.765.871.871,0,0,1,.7-.432.636.636,0,0,1,.064,0c1.174,0,2.859,1.973,3.051,2.2a.167.167,0,0,1,.017.193.189.189,0,0,1-.164.091Zm-2.924-2.133a.492.492,0,0,0-.407.26.39.39,0,0,0-.042.429c.308.568,1.95.9,2.946,1.04-.629-.68-1.75-1.73-2.455-1.73Z" transform="translate(-104.012 -612.069)" fill="#fff"/>
                </g>
              </g>
              <g id="Grupo_1101720" data-name="Grupo 1101720" transform="translate(0 0)">
                <path id="Trazado_912726" data-name="Trazado 912726" d="M124.534,387.8s7.963,27.726,6.963,42.746c-.387,5.8-6.871,68.046-6.871,68.046s-5.242,1.46-16.649-.524L105.7,420.843h0l-13.466,79.2S80.975,501.87,76.355,498.8c0,0-3.111-41.947-1.748-82.1.439-12.937,7.511-24.741,11.466-29Z" transform="translate(-74.262 -387.669)" fill="#00214f"/>
                <g id="Grupo_1101712" data-name="Grupo 1101712" transform="translate(18.563 31.811)">
                  <path id="Trazado_912727" data-name="Trazado 912727" d="M109.679,451.075a.193.193,0,1,1,0-.385c9.331-.188,22.622-2.667,22.755-2.691a.2.2,0,0,1,.235.152.194.194,0,0,1-.158.227c-.134.025-13.459,2.511-22.824,2.7Z" transform="translate(-109.479 -447.995)" fill="#25379d"/>
                </g>
                <g id="Grupo_1101713" data-name="Grupo 1101713" transform="translate(2.174)">
                  <path id="Trazado_912728" data-name="Trazado 912728" d="M79.271,500.217h-.026c-.283,0-.425-.007-.581-13.781-.148-12.973-.23-34.711-.245-64.609-.013-.172-1.126-18.6,10.952-34.107a.208.208,0,0,1,.28-.039.189.189,0,0,1,.04.27C77.7,403.339,78.806,421.631,78.818,421.814c.027,53.475.262,71.061.462,76.22a.182.182,0,0,1,.134-.044.2.2,0,0,1,.193.2C79.538,500.139,79.468,500.217,79.271,500.217Z" transform="translate(-78.386 -387.644)" fill="#25379d"/>
                </g>
                <g id="Grupo_1101714" data-name="Grupo 1101714" transform="translate(32.444 33.236)">
                  <path id="Trazado_912729" data-name="Trazado 912729" d="M138.729,527.208a.2.2,0,0,1-.2-.187L135.815,450.9a.2.2,0,0,1,.4-.013l2.713,76.123a.2.2,0,0,1-.193.2Z" transform="translate(-135.815 -450.699)" fill="#25379d"/>
                </g>
                <g id="Grupo_1101715" data-name="Grupo 1101715" transform="translate(32.194 0.628)">
                  <path id="Trazado_912730" data-name="Trazado 912730" d="M135.541,415.179h-.006a.2.2,0,0,1-.193-.2l.881-25.958a.189.189,0,0,1,.207-.187.2.2,0,0,1,.193.2l-.881,25.959A.2.2,0,0,1,135.541,415.179Z" transform="translate(-135.341 -388.835)" fill="#25379d"/>
                </g>
                <g id="Grupo_1101716" data-name="Grupo 1101716" transform="translate(5.094 0.073)">
                  <path id="Trazado_912731" data-name="Trazado 912731" d="M84.126,405.791a.2.2,0,0,1-.175-.1.189.189,0,0,1,.077-.263c3.733-2.009,9.817-8.527,10.248-17.464a.207.207,0,0,1,.209-.184.2.2,0,0,1,.191.2c-.438,9.093-6.643,15.733-10.452,17.783A.2.2,0,0,1,84.126,405.791Z" transform="translate(-83.925 -387.782)" fill="#25379d"/>
                </g>
                <g id="Grupo_1101717" data-name="Grupo 1101717" transform="translate(46.966 0.463)">
                  <path id="Trazado_912732" data-name="Trazado 912732" d="M170.941,404.458a.154.154,0,0,1-.034,0c-1.2-.2-2.587-1.3-3.9-3.114-2.235-3.075-4.269-8.349-3.456-12.661a.2.2,0,0,1,.233-.156.193.193,0,0,1,.161.224c-.793,4.2,1.2,9.36,3.39,12.372,1.235,1.7,2.562,2.777,3.642,2.955a.194.194,0,0,1,.164.222A.2.2,0,0,1,170.941,404.458Z" transform="translate(-163.366 -388.522)" fill="#25379d"/>
                </g>
                <g id="Grupo_1101718" data-name="Grupo 1101718" transform="translate(29.021 0.503)">
                  <path id="Trazado_912733" data-name="Trazado 912733" d="M132.794,412.148h-.007c-.112,0-2.741-.144-3.214-5.268-.459-4.964-.15-17.962-.147-18.093a.2.2,0,0,1,.2-.188h0a.2.2,0,0,1,.2.2c0,.13-.312,13.107.145,18.05.439,4.754,2.806,4.915,2.829,4.916a.193.193,0,1,1-.008.386Z" transform="translate(-129.321 -388.599)" fill="#25379d"/>
                </g>
                <g id="Grupo_1101719" data-name="Grupo 1101719" transform="translate(9.438 2.538)">
                  <path id="Trazado_912734" data-name="Trazado 912734" d="M113.76,394.113a179.918,179.918,0,0,1-21.418-1.269.2.2,0,0,1-.174-.216.2.2,0,0,1,.223-.168,168.914,168.914,0,0,0,40.959.106.2.2,0,0,1,.229.16.194.194,0,0,1-.167.221A146.069,146.069,0,0,1,113.76,394.113Z" transform="translate(-92.167 -392.46)" fill="#25379d"/>
                </g>
                <path id="Trazado_912735" data-name="Trazado 912735" d="M131.2,390.245a1.25,1.25,0,1,0,1.289-1.163A1.223,1.223,0,0,0,131.2,390.245Z" transform="translate(-101.188 -388.324)" fill="#25379d"/>
              </g>
              <g id="Grupo_1101727" data-name="Grupo 1101727" transform="translate(34.922 114.762)">
                <g id="Grupo_1101721" data-name="Grupo 1101721" transform="translate(22.597 5.126)">
                  <path id="Trazado_912736" data-name="Trazado 912736" d="M184.492,615.1c5.346,2.545,6.943,4.881,6.943,4.881s-.3.722-7.879,1.288A9.222,9.222,0,0,1,184.492,615.1Z" transform="translate(-183.387 -615.096)" fill="#fff"/>
                </g>
                <g id="Grupo_1101722" data-name="Grupo 1101722" transform="translate(0 8.499)">
                  <path id="Trazado_912737" data-name="Trazado 912737" d="M140.515,621.495a20.369,20.369,0,0,0,.218,2.23s4.224,1.542,15.852,1.908c12.992.409,14.712-1.133,14.712-1.133a3.783,3.783,0,0,0-.137-1.5A74.679,74.679,0,0,1,140.515,621.495Z" transform="translate(-140.515 -621.495)" fill="#fff"/>
                </g>
                <g id="Grupo_1101723" data-name="Grupo 1101723" transform="translate(18.29 3.651)">
                  <path id="Trazado_912738" data-name="Trazado 912738" d="M175.4,616.878h.011a.174.174,0,0,0,.168-.181,4.385,4.385,0,0,1,2.076-4.078.168.168,0,0,0,.07-.233.183.183,0,0,0-.242-.067,4.747,4.747,0,0,0-2.26,4.4A.175.175,0,0,0,175.4,616.878Z" transform="translate(-175.214 -612.298)" fill="#fff"/>
                </g>
                <g id="Grupo_1101724" data-name="Grupo 1101724" transform="translate(15.764 2.738)">
                  <path id="Trazado_912739" data-name="Trazado 912739" d="M170.6,615.146a.175.175,0,0,0,.178-.166,4.717,4.717,0,0,1,2.018-4.093.168.168,0,0,0,.069-.233.181.181,0,0,0-.242-.066,4.982,4.982,0,0,0-2.2,4.382.175.175,0,0,0,.172.177Z" transform="translate(-170.422 -610.566)" fill="#fff"/>
                </g>
                <g id="Grupo_1101725" data-name="Grupo 1101725" transform="translate(16.23)">
                  <path id="Trazado_912740" data-name="Trazado 912740" d="M172.107,609.381a.178.178,0,0,1-.16-.11c-.111-.28-1.065-2.757-.414-3.605a.775.775,0,0,1,.717-.291.832.832,0,0,1,.693.39c.57.933-.539,3.258-.668,3.519a.178.178,0,0,1-.161.1Zm-.288-3.511c-.385.5.011,2,.313,2.875.356-.831.843-2.251.5-2.807a.473.473,0,0,0-.41-.22l-.053,0A.4.4,0,0,0,171.819,605.869Z" transform="translate(-171.307 -605.371)" fill="#fff"/>
                </g>
                <g id="Grupo_1101726" data-name="Grupo 1101726" transform="translate(13.403 1.619)">
                  <path id="Trazado_912741" data-name="Trazado 912741" d="M169.558,610.872c-.309-.03-3.038-.316-3.534-1.256a.72.72,0,0,1,.05-.748.829.829,0,0,1,.671-.422c1.128-.09,2.784,1.922,2.97,2.149a.166.166,0,0,1,.016.189.18.18,0,0,1-.156.089Zm-2.788-2.084a.469.469,0,0,0-.388.254.389.389,0,0,0-.04.419c.294.555,1.86.884,2.81,1.017-.6-.665-1.669-1.691-2.341-1.691Z" transform="translate(-165.943 -608.443)" fill="#fff"/>
                </g>
              </g>
            </g>
            <path id="Trazado_912742" data-name="Trazado 912742" d="M125.366,289.273c.385.106.771.2,1.155.315,3.539,18.815,4.219,53.088,4.219,53.088-34.188,8.5-53.6-4.818-53.6-4.818.029-6.506,4.646-37.255,6.292-48.014C96.806,298.644,113.324,301.436,125.366,289.273Z" transform="translate(-47.033 -201.95)" fill="#fff"/>
            <path id="Trazado_912743" data-name="Trazado 912743" d="M131.012,286.483c-12.042,12.163-28.561,9.371-41.936.571.192-1.254.344-2.24.443-2.881C103.321,282.955,117.322,282.71,131.012,286.483Z" transform="translate(-52.679 -199.159)" fill="#e38669"/>
            <path id="Trazado_912744" data-name="Trazado 912744" d="M165.655,284.682c7.6,0,23.471,16.84,23.471,16.84l5.141-16.318a37.011,37.011,0,0,0,12.965,0c.249,5.818-1.5,29.594-8.67,36.308-8.086,7.571-29.274-13.13-29.274-13.13Z" transform="translate(-88.893 -199.778)" fill="#e31926"/>
            <g id="Grupo_1101729" data-name="Grupo 1101729" transform="translate(31.972 134.639)">
              <path id="Trazado_912745" data-name="Trazado 912745" d="M111.133,386.08a91.029,91.029,0,0,0,19.422-2.028.2.2,0,1,0-.094-.382c-.28.069-28.173,6.76-49.492-4.608a.2.2,0,0,0-.266.081.2.2,0,0,0,.081.266C90.62,384.653,101.84,386.08,111.133,386.08Z" transform="translate(-80.679 -379.041)" fill="#e7e7e7"/>
            </g>
            <g id="Grupo_1101730" data-name="Grupo 1101730" transform="translate(43.722 107.434)">
              <path id="Trazado_912746" data-name="Trazado 912746" d="M128.915,353.453a.2.2,0,0,0,.112-.357,104.519,104.519,0,0,1-25.7-25.586.2.2,0,1,0-.32.226,104.921,104.921,0,0,0,25.8,25.683A.2.2,0,0,0,128.915,353.453Z" transform="translate(-102.972 -327.426)" fill="#e7e7e7"/>
            </g>
            <g id="Grupo_1101731" data-name="Grupo 1101731" transform="translate(43.589 119.918)">
              <path id="Trazado_912747" data-name="Trazado 912747" d="M116.02,368a.2.2,0,0,0,.122-.35,46.369,46.369,0,0,1-13.048-16.429.2.2,0,0,0-.355.168A46.763,46.763,0,0,0,115.9,367.96.192.192,0,0,0,116.02,368Z" transform="translate(-102.72 -351.112)" fill="#e7e7e7"/>
            </g>
            <path id="Trazado_912748" data-name="Trazado 912748" d="M169.97,285.605s2.153,12.205,3.034,23.561" transform="translate(-90.934 -200.215)" fill="none" stroke="#36305f" stroke-linecap="round" stroke-linejoin="round" stroke-miterlimit="10" stroke-width="0.554"/>
            <path id="Trazado_912749" data-name="Trazado 912749" d="M94.457,280.657,92.52,350.549S80,352.114,71.508,346.525l9.612-64.6S89.2,280.21,94.457,280.657Z" transform="translate(-44.371 -197.84)" fill="#e31926"/>
            <g id="Grupo_1101732" data-name="Grupo 1101732" transform="translate(23.114 137.054)">
              <path id="Trazado_912750" data-name="Trazado 912750" d="M63.874,391.454c6.746,5,11.011,4.537,12.207,3.48,6.382-5.639,4.279-7.156,4.279-7.156s2.964-1.289.977-2.217a20.245,20.245,0,0,0-12.178-1.625" transform="translate(-63.874 -383.622)" fill="#e38669"/>
            </g>
            <path id="Trazado_912751" data-name="Trazado 912751" d="M150.954,282.689l3.725,69.743s8.495.67,13.859-2.012l-2.012-44.707-3.949-20.938S158.778,282.466,150.954,282.689Z" transform="translate(-81.941 -198.829)" fill="#e31926"/>
            <path id="Trazado_912752" data-name="Trazado 912752" d="M36.677,321.107c-4.677-9,21.259-41.28,28.973-38.042,12.071,5.067-.3,21.161-.3,21.161-.071.08-13.617,16.44-13.617,16.44" transform="translate(-27.634 -198.906)" fill="#e31926"/>
            <path id="Trazado_912753" data-name="Trazado 912753" d="M57.17,364.673l-5.015-21.609L35.99,347.811c.044.085,7.938,23.14,14.921,26.921A25.568,25.568,0,0,0,57.17,364.673Z" transform="translate(-27.574 -227.388)" fill="#e31926"/>
            <g id="Grupo_1101733" data-name="Grupo 1101733" transform="translate(53.334 17.389)">
              <path id="Trazado_912754" data-name="Trazado 912754" d="M157.165,196.052l-.316-.042c1.231-9.239.435-18.4-2.076-23.911-.273-.6-.539-1.207-.8-1.814-1.278-2.924-2.6-5.948-4.9-8.168-3.157-3.042-7.875-4.876-13.287-5.163-5.064-.269-10.3.772-14.509,1.609l-.062-.313c4.227-.84,9.489-1.886,14.588-1.614,5.489.291,10.28,2.156,13.491,5.251,2.35,2.264,3.684,5.317,4.974,8.27.265.606.529,1.211.8,1.809C157.6,177.528,158.4,186.757,157.165,196.052Z" transform="translate(-121.209 -156.593)" fill="#661f1c"/>
            </g>
            <g id="Grupo_1101734" data-name="Grupo 1101734" transform="translate(66.398 23.985)">
              <path id="Trazado_912755" data-name="Trazado 912755" d="M146.061,224.093l-.067-.312c4.583-1,8.453-3.721,12.677-6.913,2.245-1.7,5.038-3.807,6.83-6.549,2.943-4.506,3.03-10.375,2.778-14.984a41.653,41.653,0,0,0-2.275-12.6c-2.586-6.917-8-12.021-14.125-13.321l.066-.312c6.231,1.322,11.733,6.5,14.357,13.52a41.955,41.955,0,0,1,2.3,12.69c.256,4.658.164,10.592-2.829,15.176-1.822,2.788-4.64,4.918-6.9,6.629C154.608,220.338,150.708,223.081,146.061,224.093Z" transform="translate(-145.994 -169.107)" fill="#661f1c"/>
            </g>
            <path id="Trazado_912756" data-name="Trazado 912756" d="M73.7,168.3a14.366,14.366,0,0,0-12.574-14.621,11.779,11.779,0,0,0,12.481,15.391" transform="translate(-39.193 -137.827)" fill="#ffd00e"/>
            <path id="Trazado_912757" data-name="Trazado 912757" d="M64.509,176.014a14.367,14.367,0,0,0-18.634-4.965A11.779,11.779,0,0,0,64.867,176.7" transform="translate(-32.249 -145.292)" fill="#ffd00e"/>
            <path id="Trazado_912758" data-name="Trazado 912758" d="M98.1,161.11c3.279,4.49-.382,12.745-8.178,18.438s-16.773,6.669-20.052,2.18.382-12.745,8.178-18.438S94.821,156.62,98.1,161.11Z" transform="translate(-43.027 -140.007)" fill="#ffd00e"/>
            <g id="Grupo_1101746" data-name="Grupo 1101746" transform="translate(26.314 17.357)">
              <g id="Grupo_1101745" data-name="Grupo 1101745">
                <g id="Grupo_1101744" data-name="Grupo 1101744">
                  <g id="Grupo_1101735" data-name="Grupo 1101735" transform="translate(25.666 57.745)">
                    <path id="Trazado_912759" data-name="Trazado 912759" d="M118.64,268.407l.607,4.82a33.279,33.279,0,0,0,15.32-.219l-.2-6.922Z" transform="translate(-118.64 -266.086)" fill="#cf7158"/>
                    <path id="Trazado_912760" data-name="Trazado 912760" d="M119.791,279.437l.922,7.322s1.037,3.9,7.044,3.647c6.732-.281,7.554-4.257,7.554-4.257l-.2-6.932A33.293,33.293,0,0,1,119.791,279.437Z" transform="translate(-119.184 -272.296)" fill="#e38669"/>
                  </g>
                  <g id="Grupo_1101736" data-name="Grupo 1101736" transform="translate(0 9.442)">
                    <path id="Trazado_912761" data-name="Trazado 912761" d="M97.836,227.817a17.414,17.414,0,0,1-6.789-1.144,27.4,27.4,0,0,1-8.686-5.5,37.014,37.014,0,0,1-12.2-22.673c-1.1-9.233,2.049-18.449,8.229-24.052l.214.236c-6.1,5.534-9.219,14.645-8.127,23.778a36.69,36.69,0,0,0,12.095,22.474,27.079,27.079,0,0,0,8.585,5.441A15.943,15.943,0,0,0,101,227l.085.307A14.32,14.32,0,0,1,97.836,227.817Z" transform="translate(-69.946 -174.446)" fill="#661f1c"/>
                  </g>
                  <g id="Grupo_1101737" data-name="Grupo 1101737" transform="translate(0.366)">
                    <path id="Trazado_912762" data-name="Trazado 912762" d="M130.145,171.14s3.479,8.7,2.453,21.516c-.947,11.816-10.626,23.978-26.558,25.583-14.975,1.508-28.925-3.276-33.52-22.35-3.971-16.482-2.951-29.643,16.017-34.283C112.529,150.187,126.076,160.1,130.145,171.14Z" transform="translate(-70.641 -156.533)" fill="#661f1c"/>
                  </g>
                  <g id="Grupo_1101738" data-name="Grupo 1101738" transform="translate(5.103 5.632)">
                    <path id="Trazado_912763" data-name="Trazado 912763" d="M130.319,180.485s3,8.227,2.174,20.314c-.764,11.146-8.978,22.588-22.57,24.042-12.775,1.367-23.95-3.417-28.693-21.217s1.044-31.141,17.363-35.13C114.665,164.563,126.8,170.049,130.319,180.485Z" transform="translate(-79.627 -167.219)" fill="#e38669"/>
                  </g>
                  <path id="Trazado_912764" data-name="Trazado 912764" d="M79.025,200.045s8.953-8.263,8.232-19.969c0,0,17.4,10.529,21.949,5.048,1.638-2.858.251-4.628.251-4.628s6.383,10.015,12.009,8.818c2.554-.869,2.805-1.932,2.805-1.932s2.022,8.2,6.318,9.074c0,0,3.933,2.017,4.086-.573.517-8.756-4.128-31.692-22.772-32.324a40.836,40.836,0,0,0-27.333,7.01,15.857,15.857,0,0,0-9.526,15.19C75.447,198.758,79.025,200.045,79.025,200.045Z" transform="translate(-72.352 -159.758)" fill="#661f1c"/>
                  <g id="Grupo_1101742" data-name="Grupo 1101742" transform="translate(16.408 27.574)">
                    <g id="Grupo_1101739" data-name="Grupo 1101739" transform="translate(17.01 19.46)">
                      <path id="Trazado_912765" data-name="Trazado 912765" d="M136.826,248.391a3.127,3.127,0,0,1-3.477-2.4.2.2,0,0,1,.162-.227.2.2,0,0,1,.228.161c.017.1.464,2.453,3.618,2.015a.2.2,0,0,1,.223.169.2.2,0,0,1-.169.223Q137.1,248.38,136.826,248.391Z" transform="translate(-133.347 -245.766)" fill="#763634"/>
                    </g>
                    <path id="Trazado_912766" data-name="Trazado 912766" d="M113.931,245.353c-.294,1.892-3.4,2.981-6.948,2.431s-6.179-2.53-5.886-4.422,3.4-2.981,6.949-2.431S114.224,243.461,113.931,245.353Z" transform="translate(-101.075 -223.952)" fill="#cf7158"/>
                    <path id="Trazado_912767" data-name="Trazado 912767" d="M104.713,215.194s-2.038-1.665,2.026-4.022,5.543-1.938,6.263-.874c.656.97-.233,2.5-2.542,3.781C107.688,215.612,105.822,216.153,104.713,215.194Z" transform="translate(-102.554 -209.13)" fill="#661f1c"/>
                    <path id="Trazado_912768" data-name="Trazado 912768" d="M116.409,231.138a2.037,2.037,0,1,1-2.1-2.35A2.249,2.249,0,0,1,116.409,231.138Z" transform="translate(-106.437 -218.276)"/>
                    <path id="Trazado_912769" data-name="Trazado 912769" d="M156.828,229.451a2.037,2.037,0,1,1-2.1-2.349A2.25,2.25,0,0,1,156.828,229.451Z" transform="translate(-125.551 -217.478)"/>
                    <path id="Trazado_912770" data-name="Trazado 912770" d="M150.1,244.85c.451,1.861,3.641,2.687,7.127,1.843s5.946-3.036,5.5-4.9-3.641-2.687-7.127-1.843S149.654,242.989,150.1,244.85Z" transform="translate(-124.236 -223.4)" fill="#cf7158"/>
                    <path id="Trazado_912771" data-name="Trazado 912771" d="M157.336,214.033s1.892-1.829-2.354-3.839-5.686-1.468-6.314-.349c-.573,1.022.441,2.475,2.848,3.556C154.406,214.7,156.311,215.081,157.336,214.033Z" transform="translate(-123.508 -208.846)" fill="#661f1c"/>
                    <g id="Grupo_1101740" data-name="Grupo 1101740" transform="translate(16.241 0.423)">
                      <path id="Trazado_912772" data-name="Trazado 912772" d="M136.607,226.514a.2.2,0,0,1-.1-.374,5.339,5.339,0,0,0,2.207-2.25,3.369,3.369,0,0,0-.5-3.485,1.394,1.394,0,0,0-1.744-.033c-.022.012-.056.034-.1.063-2.372,1.513-3.5.925-4.02.164-.962-1.4-.128-9.469-.089-10.758a.2.2,0,0,1,.2-.192.2.2,0,0,1,.192.2c-.1,3.469-.733,9.431.019,10.522.619.9,1.791.807,3.482-.273.052-.033.091-.059.116-.073a1.78,1.78,0,0,1,2.206.081,3.748,3.748,0,0,1,.6,3.939,5.643,5.643,0,0,1-2.39,2.441A.2.2,0,0,1,136.607,226.514Z" transform="translate(-131.886 -209.649)"/>
                    </g>
                    <g id="Grupo_1101741" data-name="Grupo 1101741" transform="translate(14.858 18.868)">
                      <path id="Trazado_912773" data-name="Trazado 912773" d="M137,248.9a5.5,5.5,0,0,0,.687-1.628,27.724,27.724,0,0,0-8.259-2.63,7.634,7.634,0,0,0-.154,1.957A21,21,0,0,1,137,248.9Z" transform="translate(-129.263 -244.642)" fill="#fff"/>
                      <path id="Trazado_912774" data-name="Trazado 912774" d="M129.28,248.355a3.925,3.925,0,0,0,2.836,3.924c2.72.775,4.159-.459,4.89-1.623A20.983,20.983,0,0,0,129.28,248.355Z" transform="translate(-129.271 -246.398)" fill="#fff"/>
                    </g>
                  </g>
                  <g id="Grupo_1101743" data-name="Grupo 1101743" transform="translate(0.079 28.91)">
                    <path id="Trazado_912775" data-name="Trazado 912775" d="M72.924,218.666c-2.177,1.5-2.829,4.893-2.829,7.323,0,5.233,2.875,10.705,6.915,10.705,2.818,0,5.977-2.272,5.977-7.707a13.706,13.706,0,0,0-3.047-9c-1.564-1.73-4.314-2.719-6.509-1.62A4.234,4.234,0,0,0,72.924,218.666Z" transform="translate(-70.095 -214.465)"/>
                    <path id="Trazado_912776" data-name="Trazado 912776" d="M81.862,211.832a10.707,10.707,0,0,0-1.616-.451,10.967,10.967,0,0,0-1.041,4.392,3.715,3.715,0,0,0,.052.668l2.548.686c-.07-.783-.125-1.725-.125-2.684A16.631,16.631,0,0,1,81.862,211.832Z" transform="translate(-74.403 -211.381)"/>
                    <path id="Trazado_912777" data-name="Trazado 912777" d="M91.915,249.672a10.693,10.693,0,0,1-.976,1.365,10.958,10.958,0,0,1-3.566-2.768,3.727,3.727,0,0,1-.378-.553l1.554-2.133c.437.653.985,1.423,1.586,2.17A16.7,16.7,0,0,0,91.915,249.672Z" transform="translate(-78.087 -227.555)"/>
                    <path id="Trazado_912778" data-name="Trazado 912778" d="M75.259,227.824c-1.232.849-1.6,2.768-1.6,4.143,0,2.961,1.626,6.056,3.912,6.056,1.594,0,3.382-1.286,3.382-4.36a7.752,7.752,0,0,0-1.724-5.092,3.235,3.235,0,0,0-3.682-.917A2.331,2.331,0,0,0,75.259,227.824Z" transform="translate(-71.78 -218.953)" fill="none" stroke="#fff" stroke-miterlimit="10" stroke-width="1"/>
                    <path id="Trazado_912779" data-name="Trazado 912779" d="M77.82,234.2a1.755,1.755,0,0,0-.544,1.408c0,1.006.553,2.058,1.329,2.058.542,0,1.149-.437,1.149-1.482a2.636,2.636,0,0,0-.586-1.73,1.1,1.1,0,0,0-1.251-.311A.9.9,0,0,0,77.82,234.2Z" transform="translate(-73.491 -222.101)" fill="#fff"/>
                    <path id="Trazado_912780" data-name="Trazado 912780" d="M85.789,250.807c1.815,7.291,6.94,11.034,12.516,11.034a14.291,14.291,0,0,0,7.947-2.555" transform="translate(-77.517 -230.026)" fill="none" stroke="#000" stroke-miterlimit="10" stroke-width="1"/>
                    <path id="Trazado_912781" data-name="Trazado 912781" d="M123.25,266.491l-2.344,1.233a1.15,1.15,0,0,1-1.549-.481h0a1.15,1.15,0,0,1,.481-1.549l2.344-1.233a1.15,1.15,0,0,1,1.549.481h0A1.15,1.15,0,0,1,123.25,266.491Z" transform="translate(-93.329 -236.421)"/>
                  </g>
                </g>
              </g>
            </g>
            <g id="Grupo_1101747" data-name="Grupo 1101747" transform="translate(39.919 36.803)">
              <path id="Trazado_912782" data-name="Trazado 912782" d="M142.245,210.05a7.342,7.342,0,0,1-5.6-2.727,18.564,18.564,0,0,1-3.116-6.8,6.548,6.548,0,0,1-6.108,2.686,10.474,10.474,0,0,1-6.308-3.411,25.3,25.3,0,0,1-3.3-4.573c.52,1.776.7,3.683-.451,5.055-1.105,1.312-3.085,1.7-5.885,1.158a33.231,33.231,0,0,1-15.716-7.771l.212-.238a32.913,32.913,0,0,0,15.565,7.7c2.677.52,4.555.167,5.581-1.051,1.388-1.648.664-4.206-.122-6.25l.287-.137a30.6,30.6,0,0,0,4.065,5.89,10.158,10.158,0,0,0,6.111,3.314,6.139,6.139,0,0,0,5.986-2.839l.184-.338.109.369c.692,2.356,1.476,5.026,3.158,7.038,1.49,1.783,4.247,3.269,6.776,2.324l.112.3A4.916,4.916,0,0,1,142.245,210.05Z" transform="translate(-95.758 -193.425)" fill="#661f1c"/>
            </g>
            <path id="Trazado_912783" data-name="Trazado 912783" d="M105.369,280.436a3.283,3.283,0,0,0-.9,2.674c.154,2.666,1.286,5.781,2.225,8.507a14.592,14.592,0,0,1-2.213,1.338,17.59,17.59,0,0,0-.1,1.952c0,5.3,2.347,14.728,4.693,19.075" transform="translate(-59.919 -197.77)" fill="none" stroke="#960d16" stroke-linecap="round" stroke-linejoin="round" stroke-miterlimit="10" stroke-width="0.75"/>
            <path id="Trazado_912784" data-name="Trazado 912784" d="M157.71,284.039a3.043,3.043,0,0,1,.947,2.53c-.1,2.543-1.173,5.533-2.059,8.149a14.737,14.737,0,0,0,2.239,1.23,15.967,15.967,0,0,1,.136,1.858c.1,5.052-2.06,14.078-4.322,18.267" transform="translate(-83.689 -199.474)" fill="none" stroke="#960d16" stroke-linecap="round" stroke-linejoin="round" stroke-miterlimit="10" stroke-width="0.75"/>
            <rect id="Rectángulo_403317" data-name="Rectángulo 403317" width="8.044" height="1.643" transform="translate(74.311 109.465)" fill="#fff"/>
            <g id="Grupo_1101748" data-name="Grupo 1101748" transform="translate(74.525 109.989)">
              <rect id="Rectángulo_403318" data-name="Rectángulo 403318" width="7.454" height="9.334" transform="translate(0 4.106)" fill="#fff"/>
              <rect id="Rectángulo_403319" data-name="Rectángulo 403319" width="4.818" height="4.818" transform="translate(1.318 5.756)" fill="#e31926"/>
              <rect id="Rectángulo_403320" data-name="Rectángulo 403320" width="0.588" height="5.389" transform="translate(3.514 0.298)" fill="#fff"/>
              <circle id="Elipse_11532" data-name="Elipse 11532" cx="1.436" cy="1.436" r="1.436" transform="translate(2.372)" fill="#fff"/>
            </g>
            <path id="Trazado_912785" data-name="Trazado 912785" d="M209.47,316.8a11.008,11.008,0,0,0-.882,4.984c0,.683.02,1.358.026,2.007" transform="translate(-109.197 -214.966)" fill="none" stroke="#960d16" stroke-linecap="round" stroke-linejoin="round" stroke-miterlimit="10" stroke-width="0.75"/>
            <path id="Trazado_912786" data-name="Trazado 912786" d="M218.486,290.013a29.979,29.979,0,0,0,5.857.515,36.221,36.221,0,0,0,7.888-.816" transform="translate(-113.878 -202.157)" fill="none" stroke="#960d16" stroke-linecap="round" stroke-linejoin="round" stroke-miterlimit="10" stroke-width="0.75"/>
            <path id="Trazado_912787" data-name="Trazado 912787" d="M60.6,389.767c3.234-3.324,6.191-7.244,7.47-11.73" transform="translate(-39.214 -243.927)" fill="none" stroke="#960d16" stroke-linecap="round" stroke-linejoin="round" stroke-miterlimit="10" stroke-width="0.75"/>
            <path id="Trazado_912788" data-name="Trazado 912788" d="M82,324.656c.891-3.886,1.438-8.021,2.747-11.793" transform="translate(-49.331 -213.105)" fill="none" stroke="#960d16" stroke-linecap="round" stroke-linejoin="round" stroke-miterlimit="10" stroke-width="0.75"/>
            <line id="Línea_664" data-name="Línea 664" x2="0.415" y2="9.042" transform="translate(84.427 103.537)" fill="none" stroke="#960d16" stroke-linecap="round" stroke-linejoin="round" stroke-miterlimit="10" stroke-width="0.75"/>
          </g>
          <g id="Grupo_1101799" data-name="Grupo 1101799" clip-path="url(#clip-path)">
            <g id="Grupo_1101775" data-name="Grupo 1101775" transform="translate(150.195 147.018)">
              <g id="Grupo_1101750" data-name="Grupo 1101750" transform="translate(1.001 16.519)">
                <path id="Trazado_912789" data-name="Trazado 912789" d="M324.422,518.424s-17.55,5.92-17.55,9.2,20.083,1.231,20.083,1.231,12.179,3.318,8.641-7.449l8.079-82.691-25.352-4.848" transform="translate(-306.872 -433.864)" fill="#fe9c69"/>
              </g>
              <g id="Grupo_1101751" data-name="Grupo 1101751" transform="translate(40.767 5.79)">
                <path id="Trazado_912790" data-name="Trazado 912790" d="M387.4,511.778s-3.246-52.6-5.083-96.736c-.274-6.577,24.21,10.149,24.21,10.149s-5.123,61.26-7.954,83.607c0,0,16.973,5.791,16.973,9.068s-19.506,1.361-19.506,1.361S383.864,522.545,387.4,511.778Z" transform="translate(-382.317 -413.51)" fill="#fe9c69"/>
              </g>
              <g id="Grupo_1101758" data-name="Grupo 1101758" transform="translate(44.749 99.814)">
                <g id="Grupo_1101752" data-name="Grupo 1101752" transform="translate(0 2.5)">
                  <path id="Trazado_912791" data-name="Trazado 912791" d="M433.347,601.445c5.379,2.444,7.039,4.794,7.039,4.794s-.269.752-7.758,1.58A9.8,9.8,0,0,1,433.347,601.445Z" transform="translate(-409.981 -598.91)" fill="#fff"/>
                  <path id="Trazado_912792" data-name="Trazado 912792" d="M390.652,597.279c7.015,3.769,15.37-.644,15.37-.644a46.788,46.788,0,0,1,7.216,2.536,9.806,9.806,0,0,0-.719,6.374c-1.93.213-4.331.431-7.34.643-14.685,1.033-15.3-2.781-15.3-2.781A20.969,20.969,0,0,1,390.652,597.279Z" transform="translate(-389.872 -596.635)" fill="#25379d"/>
                </g>
                <g id="Grupo_1101753" data-name="Grupo 1101753" transform="translate(0.011 9.271)">
                  <path id="Trazado_912793" data-name="Trazado 912793" d="M389.892,609.481a21.749,21.749,0,0,0,.291,2.286s4.234,1.448,15.76,1.448c12.878,0,14.529-1.641,14.529-1.641a4.046,4.046,0,0,0-.186-1.535A71.331,71.331,0,0,1,389.892,609.481Z" transform="translate(-389.892 -609.481)" fill="#fff"/>
                </g>
                <g id="Grupo_1101754" data-name="Grupo 1101754" transform="translate(18.115 3.64)">
                  <path id="Trazado_912794" data-name="Trazado 912794" d="M424.415,603.534a.153.153,0,0,1-.153-.14,4.889,4.889,0,0,1,2.078-4.575.154.154,0,0,1,.158.265,4.5,4.5,0,0,0-1.93,4.283.152.152,0,0,1-.139.167Z" transform="translate(-424.239 -598.797)" fill="#fff"/>
                </g>
                <g id="Grupo_1101755" data-name="Grupo 1101755" transform="translate(15.596 2.785)">
                  <path id="Trazado_912795" data-name="Trazado 912795" d="M419.613,601.909a.153.153,0,0,1-.153-.153c-.009-3.3,1.938-4.509,2.021-4.558a.153.153,0,0,1,.21.052.154.154,0,0,1-.052.211,4.935,4.935,0,0,0-1.872,4.293.153.153,0,0,1-.153.154Z" transform="translate(-419.46 -597.176)" fill="#fff"/>
                </g>
                <g id="Grupo_1101756" data-name="Grupo 1101756" transform="translate(15.855)">
                  <path id="Trazado_912796" data-name="Trazado 912796" d="M420.819,595.973h0a.153.153,0,0,1-.141-.094c-.119-.283-1.142-2.789-.533-3.673a.742.742,0,0,1,.681-.312.788.788,0,0,1,.681.367c.589.931-.427,3.348-.545,3.62A.156.156,0,0,1,420.819,595.973Zm-.035-3.773a.431.431,0,0,0-.387.181c-.376.547.094,2.135.424,3.023.328-.861.791-2.4.424-2.98a.489.489,0,0,0-.431-.224Z" transform="translate(-419.952 -591.892)" fill="#fff"/>
                </g>
                <g id="Grupo_1101757" data-name="Grupo 1101757" transform="translate(13.101 1.757)">
                  <path id="Trazado_912797" data-name="Trazado 912797" d="M418.348,597.59h-.01c-.306-.021-3.005-.226-3.523-1.166a.745.745,0,0,1,.025-.749.788.788,0,0,1,.633-.444.7.7,0,0,1,.089,0c1.1,0,2.718,1.891,2.9,2.112a.154.154,0,0,1-.119.253Zm-2.782-2.057a.608.608,0,0,0-.063,0,.491.491,0,0,0-.393.285.441.441,0,0,0-.025.454c.32.581,1.952.872,2.893.974C417.373,596.59,416.256,595.533,415.566,595.533Z" transform="translate(-414.727 -595.225)" fill="#fff"/>
                </g>
              </g>
              <g id="Grupo_1101767" data-name="Grupo 1101767" transform="translate(11.431)">
                <path id="Trazado_912798" data-name="Trazado 912798" d="M378.731,501.284c-4.161,2.671-20.012,1.053-20.012,1.053L352.5,426.8l-1.589,76.038a83.558,83.558,0,0,1-20.682,0l-2.817-81.066-.012-.384-.745-17.57,53.613-1.3C381.208,436.444,381.417,436.447,378.731,501.284Z" transform="translate(-326.661 -402.525)" fill="#00214f"/>
                <g id="Grupo_1101759" data-name="Grupo 1101759" transform="translate(15.858 22.785)">
                  <path id="Trazado_912799" data-name="Trazado 912799" d="M376.907,449.225a.177.177,0,0,0,.01-.353c-8.209-.439-19.838-3.089-19.955-3.116a.181.181,0,0,0-.211.133.177.177,0,0,0,.133.211c.116.026,11.775,2.683,20.014,3.124Z" transform="translate(-356.747 -445.753)" fill="#25379d"/>
                </g>
                <g id="Grupo_1101760" data-name="Grupo 1101760" transform="translate(48.909 9.545)">
                  <path id="Trazado_912800" data-name="Trazado 912800" d="M419.627,510.752a.177.177,0,0,0,.177-.171l1.739-89.765a.176.176,0,0,0-.171-.182h-.005a.177.177,0,0,0-.177.171l-1.739,89.765a.177.177,0,0,0,.171.182Z" transform="translate(-419.451 -420.634)" fill="#25379d"/>
                </g>
                <g id="Grupo_1101761" data-name="Grupo 1101761" transform="translate(20.415 24.345)">
                  <path id="Trazado_912801" data-name="Trazado 912801" d="M365.569,525.193a.177.177,0,0,0,.177-.17l1.421-76.127a.176.176,0,1,0-.353-.013l-1.421,76.128a.176.176,0,0,0,.17.182Z" transform="translate(-365.393 -448.712)" fill="#25379d"/>
                </g>
                <g id="Grupo_1101762" data-name="Grupo 1101762" transform="translate(24.077 7.711)">
                  <path id="Trazado_912802" data-name="Trazado 912802" d="M372.516,430.575a.177.177,0,0,0,.177-.177V417.332a.177.177,0,0,0-.353,0V430.4A.177.177,0,0,0,372.516,430.575Z" transform="translate(-372.339 -417.155)" fill="#25379d"/>
                </g>
                <g id="Grupo_1101763" data-name="Grupo 1101763" transform="translate(43.002 3.547)">
                  <path id="Trazado_912803" data-name="Trazado 912803" d="M415.445,427.171a.176.176,0,0,1-.122.046.181.181,0,0,1-.128-.052,25.047,25.047,0,0,1-6.948-17.568c0-.1,0-.2.006-.291l.355-.052c-.006.1-.006.2-.006.3a24.645,24.645,0,0,0,6.849,17.37A.174.174,0,0,1,415.445,427.171Z" transform="translate(-408.244 -409.254)" fill="#25379d"/>
                </g>
                <g id="Grupo_1101764" data-name="Grupo 1101764" transform="translate(0.745 3.615)">
                  <path id="Trazado_912804" data-name="Trazado 912804" d="M333.114,418.835a10.49,10.49,0,0,1-5.028,6.186l-.012-.384a10.191,10.191,0,0,0,4.7-5.907,20.956,20.956,0,0,0,.425-9.148.176.176,0,0,1,.349-.046A21.41,21.41,0,0,1,333.114,418.835Z" transform="translate(-328.074 -409.383)" fill="#25379d"/>
                </g>
                <g id="Grupo_1101765" data-name="Grupo 1101765" transform="translate(24.077 4.844)">
                  <path id="Trazado_912805" data-name="Trazado 912805" d="M372.516,427.335c.1,0,2.418-.054,2.988-4.724.551-4.525.668-10.654.67-10.715a.176.176,0,0,0-.173-.18h0a.177.177,0,0,0-.177.173c0,.061-.118,6.172-.667,10.679-.529,4.334-2.618,4.413-2.639,4.413a.177.177,0,0,0,0,.353Z" transform="translate(-372.34 -411.716)" fill="#25379d"/>
                </g>
                <g id="Grupo_1101766" data-name="Grupo 1101766" transform="translate(1.777 1.674)">
                  <path id="Trazado_912806" data-name="Trazado 912806" d="M380.728,405.8a.142.142,0,0,1-.1.18,61.757,61.757,0,0,1-9.014,1.885c-.117.017-.233.035-.355.046a150.03,150.03,0,0,1-20.216,1.263,118.613,118.613,0,0,1-20.9-1.571.146.146,0,0,1,.058-.285,118.471,118.471,0,0,0,20.839,1.565,149.994,149.994,0,0,0,20.222-1.263l.355-.052a59.558,59.558,0,0,0,8.927-1.868A.152.152,0,0,1,380.728,405.8Z" transform="translate(-330.033 -405.701)" fill="#25379d"/>
                </g>
              </g>
              <g id="Grupo_1101774" data-name="Grupo 1101774" transform="translate(0 99.815)">
                <g id="Grupo_1101768" data-name="Grupo 1101768" transform="translate(0.197 2.499)">
                  <path id="Trazado_912807" data-name="Trazado 912807" d="M312.387,601.445c-5.379,2.444-7.039,4.794-7.039,4.794s.269.752,7.758,1.58A9.806,9.806,0,0,0,312.387,601.445Z" transform="translate(-305.348 -598.91)" fill="#fff"/>
                  <path id="Trazado_912808" data-name="Trazado 912808" d="M341.288,597.279c-7.015,3.769-15.37-.644-15.37-.644a46.808,46.808,0,0,0-7.216,2.536,9.81,9.81,0,0,1,.719,6.374c1.93.213,4.331.431,7.34.643,14.685,1.033,15.3-2.781,15.3-2.781A20.96,20.96,0,0,0,341.288,597.279Z" transform="translate(-311.663 -596.635)" fill="#25379d"/>
                </g>
                <g id="Grupo_1101769" data-name="Grupo 1101769" transform="translate(0 9.271)">
                  <path id="Trazado_912809" data-name="Trazado 912809" d="M335.565,609.481a21.749,21.749,0,0,1-.291,2.286s-4.235,1.448-15.76,1.448c-12.878,0-14.529-1.641-14.529-1.641a4.038,4.038,0,0,1,.185-1.535A71.334,71.334,0,0,0,335.565,609.481Z" transform="translate(-304.973 -609.481)" fill="#fff"/>
                </g>
                <g id="Grupo_1101770" data-name="Grupo 1101770" transform="translate(10.154 3.639)">
                  <path id="Trazado_912810" data-name="Trazado 912810" d="M326.395,603.534h-.014a.153.153,0,0,1-.139-.167,4.5,4.5,0,0,0-1.93-4.283.154.154,0,0,1,.158-.265,4.889,4.889,0,0,1,2.078,4.575A.154.154,0,0,1,326.395,603.534Z" transform="translate(-324.237 -598.797)" fill="#fff"/>
                </g>
                <g id="Grupo_1101771" data-name="Grupo 1101771" transform="translate(12.753 2.785)">
                  <path id="Trazado_912811" data-name="Trazado 912811" d="M331.268,601.909h0a.153.153,0,0,1-.153-.154,4.932,4.932,0,0,0-1.872-4.293.154.154,0,0,1,.159-.263c.083.049,2.03,1.255,2.021,4.558A.153.153,0,0,1,331.268,601.909Z" transform="translate(-329.168 -597.176)" fill="#fff"/>
                </g>
                <g id="Grupo_1101772" data-name="Grupo 1101772" transform="translate(13.011)">
                  <path id="Trazado_912812" data-name="Trazado 912812" d="M330.527,595.973a.154.154,0,0,1-.141-.093c-.118-.273-1.134-2.689-.545-3.62a.788.788,0,0,1,.681-.367h.039a.737.737,0,0,1,.642.313c.609.883-.415,3.39-.533,3.673a.154.154,0,0,1-.141.094h0Zm.036-3.773h-.03a.49.49,0,0,0-.431.224c-.367.58.1,2.118.424,2.98.331-.888.8-2.477.424-3.023A.432.432,0,0,0,330.562,592.2Z" transform="translate(-329.658 -591.893)" fill="#fff"/>
                </g>
                <g id="Grupo_1101773" data-name="Grupo 1101773" transform="translate(13.726 1.756)">
                  <path id="Trazado_912813" data-name="Trazado 912813" d="M331.168,597.59a.154.154,0,0,1-.118-.252c.186-.221,1.807-2.112,2.9-2.112a.846.846,0,0,1,.089,0,.788.788,0,0,1,.633.444.745.745,0,0,1,.025.749c-.517.94-3.217,1.146-3.523,1.167Zm2.782-2.057c-.689,0-1.807,1.057-2.411,1.716.941-.1,2.573-.392,2.893-.974a.442.442,0,0,0-.025-.454.49.49,0,0,0-.393-.285A.514.514,0,0,0,333.95,595.533Z" transform="translate(-331.014 -595.225)" fill="#fff"/>
                </g>
              </g>
            </g>
            <g id="Grupo_1101798" data-name="Grupo 1101798" transform="translate(144.934 14.823)">
              <g id="Grupo_1101797" data-name="Grupo 1101797" transform="translate(0)">
                <g id="Grupo_1101789" data-name="Grupo 1101789" transform="translate(8.632)">
                  <g id="Grupo_1101788" data-name="Grupo 1101788">
                    <g id="Grupo_1101787" data-name="Grupo 1101787">
                      <g id="Grupo_1101786" data-name="Grupo 1101786">
                        <g id="Grupo_1101785" data-name="Grupo 1101785">
                          <path id="Trazado_912814" data-name="Trazado 912814" d="M357.559,268.455,358,275.14l.282,3.411s1.427,3.744,9.88,3.326c7.543-.373,8.45-4.232,8.45-4.232l.583-3.861.277-4.7Z" transform="translate(-333.213 -206.927)" fill="#fe9c69"/>
                          <path id="Trazado_912815" data-name="Trazado 912815" d="M377.475,269.082l-.277,4.7A53.972,53.972,0,0,1,358,275.14l-.444-6.685Z" transform="translate(-333.212 -206.927)" fill="#e58b5c"/>
                          <path id="Trazado_912816" data-name="Trazado 912816" d="M356.534,283.287s11.131.906,23.662,1.017c0,0-2.16,7.99-13.1,8.731S356.534,283.287,356.534,283.287Z" transform="translate(-332.727 -213.941)" fill="#fe9c69"/>
                          <g id="Grupo_1101776" data-name="Grupo 1101776" transform="translate(7.452 6.601)">
                            <path id="Trazado_912817" data-name="Trazado 912817" d="M330.873,175.428a71.536,71.536,0,0,0-5.311,23.014c-.786,10.78,7.052,21.959,20.151,23.773,12.312,1.7,25.527-2.339,30.647-19.408s.665-31.283-14.8-36.287S334.87,164.9,330.873,175.428Z" transform="translate(-325.507 -164.248)" fill="#fe9c69"/>
                          </g>
                          <path id="Trazado_912818" data-name="Trazado 912818" d="M329.829,162.414c-17.912,5.159-14.972,34.645-13.489,35.921a5.807,5.807,0,0,0,6.967-.015c2.033-1.462-.93-.813.761-2.66,4.978-5.435,8.215-18,10.476-21.789,1.15-1.927,2.226-4.048,2.1-6.288s-1.9-4.535-4.139-4.436" transform="translate(-313.18 -156.78)"/>
                          <path id="Trazado_912819" data-name="Trazado 912819" d="M316.556,199.812a26.234,26.234,0,0,1,11.262-35.266" transform="translate(-312.464 -157.788)" fill="none" stroke="#3d241e" stroke-miterlimit="10" stroke-width="0.558"/>
                          <path id="Trazado_912820" data-name="Trazado 912820" d="M380.016,195.246s-7.682-9.938-8.388-18.234c0,0-22.912,8.268-35.183-4.77-2.521-2.678-4.56-10.552-.654-11.366,0,0-1.279-11.3,10.534-8.787s13.925.691,20.824,1.56,12.348,9.13,12.348,9.13c15.4,11.382,8.087,30.637,6,32.867C380.05,201.476,380.016,195.246,380.016,195.246Z" transform="translate(-321.886 -151.725)"/>
                          <path id="Trazado_912821" data-name="Trazado 912821" d="M419.553,173.01a21.03,21.03,0,0,1,8.991,28.668,9.4,9.4,0,0,1-4.713,4.681" transform="translate(-362.53 -161.791)" fill="none" stroke="#3d241e" stroke-miterlimit="10" stroke-width="0.558"/>
                          <path id="Trazado_912822" data-name="Trazado 912822" d="M419.42,170.233c1.543-.637,4.286-2.57,3.066-3.709-.745-.7-1.868.874-2.484,1.686q.4-1.372.794-2.743a1.835,1.835,0,0,0,.108-.719.625.625,0,0,0-.418-.548c-.353-.09-.66.243-.861.547a13.348,13.348,0,0,0-1.952,4.729" transform="translate(-361.641 -157.617)"/>
                          <path id="Trazado_912823" data-name="Trazado 912823" d="M323.826,235.455l.168-10.064s-11.354-4.317-12.529,5.166S320.254,241.25,323.826,235.455Z" transform="translate(-311.369 -186.098)" fill="#fe9c69"/>
                          <g id="Grupo_1101777" data-name="Grupo 1101777" transform="translate(1.679 41.118)">
                            <path id="Trazado_912824" data-name="Trazado 912824" d="M322.039,238.288a.192.192,0,0,1-.154-.283c.024-.045,2.392-4.472-.645-6.833a4.237,4.237,0,0,0-3.234-1.019A5.282,5.282,0,0,0,314.9,232.1a.191.191,0,0,1-.309-.224,5.573,5.573,0,0,1,3.359-2.106,4.6,4.6,0,0,1,3.525,1.1c3.3,2.561.772,7.271.746,7.319A.192.192,0,0,1,322.039,238.288Z" transform="translate(-314.555 -229.734)"/>
                          </g>
                          <g id="Grupo_1101778" data-name="Grupo 1101778" transform="translate(4.559 44.41)">
                            <path id="Trazado_912825" data-name="Trazado 912825" d="M320.2,237.167a.191.191,0,0,1-.089-.352c.033-.022,3.4-2.125,5.606.427a.191.191,0,1,1-.289.25c-1.987-2.3-5.08-.374-5.111-.354A.191.191,0,0,1,320.2,237.167Z" transform="translate(-320.019 -235.979)"/>
                          </g>
                          <path id="Trazado_912826" data-name="Trazado 912826" d="M410.389,241.652l3.629-9.91s9.523-2.7,9.312,6.856S413.083,247.9,410.389,241.652Z" transform="translate(-358.196 -189.399)" fill="#fe9c69"/>
                          <g id="Grupo_1101779" data-name="Grupo 1101779" transform="translate(54.771 45.049)">
                            <path id="Trazado_912827" data-name="Trazado 912827" d="M415.915,245.185a.191.191,0,0,0,.193-.257c-.017-.047-1.719-4.772,1.629-6.668a4.237,4.237,0,0,1,3.348-.54,5.277,5.277,0,0,1,2.79,2.381.191.191,0,0,0,.339-.177,5.57,5.57,0,0,0-3.018-2.571,4.6,4.6,0,0,0-3.647.573c-3.632,2.057-1.818,7.083-1.8,7.133A.191.191,0,0,0,415.915,245.185Z" transform="translate(-415.28 -237.192)"/>
                          </g>
                          <g id="Grupo_1101780" data-name="Grupo 1101780" transform="translate(54.84 48.035)">
                            <path id="Trazado_912828" data-name="Trazado 912828" d="M420.949,244.475a.191.191,0,0,0,.139-.335c-.03-.026-3.06-2.6-5.609-.391a.191.191,0,0,0,.25.29c2.3-1.99,5.081.367,5.108.391A.2.2,0,0,0,420.949,244.475Z" transform="translate(-415.412 -242.856)"/>
                          </g>
                          <g id="Grupo_1101784" data-name="Grupo 1101784" transform="translate(13.229 29.032)">
                            <g id="Grupo_1101782" data-name="Grupo 1101782" transform="translate(15.243 20.782)">
                              <path id="Trazado_912829" data-name="Trazado 912829" d="M370.648,249.767a3.025,3.025,0,0,0,3.116-2.64.191.191,0,0,0-.178-.2.193.193,0,0,0-.2.177c-.007.1-.21,2.406-3.289,2.288a.2.2,0,0,0-.2.184.191.191,0,0,0,.183.2C370.279,249.78,370.468,249.778,370.648,249.767Z" transform="translate(-367.518 -246.559)" fill="#763633"/>
                              <g id="Grupo_1101781" data-name="Grupo 1101781">
                                <path id="Trazado_912830" data-name="Trazado 912830" d="M366.022,250.177a5.092,5.092,0,0,1-.636-1.509,25.677,25.677,0,0,1,7.652-2.436,7.059,7.059,0,0,1,.143,1.813A19.459,19.459,0,0,0,366.022,250.177Z" transform="translate(-365.386 -246.232)" fill="#fff"/>
                                <path id="Trazado_912831" data-name="Trazado 912831" d="M373.751,249.671a3.636,3.636,0,0,1-2.628,3.636c-2.521.718-3.854-.425-4.531-1.5A19.472,19.472,0,0,1,373.751,249.671Z" transform="translate(-365.956 -247.858)" fill="#fff"/>
                              </g>
                            </g>
                            <path id="Trazado_912832" data-name="Trazado 912832" d="M383.879,246.294c.417,1.8,3.5,2.635,6.876,1.854s5.783-2.877,5.366-4.683-3.5-2.635-6.876-1.854S383.462,244.489,383.879,246.294Z" transform="translate(-358.866 -223.126)" fill="#f68963"/>
                            <path id="Trazado_912833" data-name="Trazado 912833" d="M394.747,214.726s1.8-1.8-2.337-3.676-5.523-1.331-6.113-.238c-.538,1,.465,2.387,2.811,3.394C391.924,215.416,393.773,215.756,394.747,214.726Z" transform="translate(-359.965 -208.227)"/>
                            <path id="Trazado_912834" data-name="Trazado 912834" d="M348.887,247.479c-.3,1.827-3.323,2.849-6.746,2.282s-5.952-2.509-5.649-4.336,3.323-2.849,6.746-2.282S349.19,245.651,348.887,247.479Z" transform="translate(-336.467 -223.915)" fill="#f68963"/>
                            <path id="Trazado_912835" data-name="Trazado 912835" d="M339.762,217.667s-2-1.578,1.9-3.922,5.332-1.961,6.044-.944c.65.928-.186,2.425-2.4,3.7C342.647,218.025,340.85,218.577,339.762,217.667Z" transform="translate(-337.783 -209.263)"/>
                            <g id="Grupo_1101783" data-name="Grupo 1101783" transform="translate(14.057)">
                              <path id="Trazado_912836" data-name="Trazado 912836" d="M366.426,226.758a.191.191,0,0,0,.037-.372,5.165,5.165,0,0,1-2.445-1.821,3.258,3.258,0,0,1-.037-3.406,1.348,1.348,0,0,1,1.662-.291c.023.008.058.025.106.045,2.493,1.093,3.479.363,3.867-.443.712-1.478-1.276-12.283-1.5-13.51a.194.194,0,0,0-.223-.153.191.191,0,0,0-.153.223c.616,3.3,2.093,12.119,1.536,13.274-.458.95-1.591,1.039-3.369.258-.055-.024-.1-.042-.122-.052a1.722,1.722,0,0,0-2.1.407,3.625,3.625,0,0,0,.013,3.855,5.461,5.461,0,0,0,2.649,1.977A.179.179,0,0,0,366.426,226.758Z" transform="translate(-363.136 -206.804)"/>
                            </g>
                            <path id="Trazado_912837" data-name="Trazado 912837" d="M352.058,227.625a1.9,1.9,0,1,1-1.948-2.208A2.1,2.1,0,0,1,352.058,227.625Z" transform="translate(-342.074 -215.606)"/>
                            <path id="Trazado_912838" data-name="Trazado 912838" d="M385.794,227.759a1.9,1.9,0,1,0,1.784-2.341A2.1,2.1,0,0,0,385.794,227.759Z" transform="translate(-359.794 -215.606)"/>
                          </g>
                        </g>
                      </g>
                    </g>
                  </g>
                </g>
                <g id="Grupo_1101790" data-name="Grupo 1101790" transform="translate(0 69.262)">
                  <path id="Trazado_912839" data-name="Trazado 912839" d="M426.59,349.454s0-3.812-1.8-13.263l-17.213,3.852,3.263,13.336Z" transform="translate(-348.234 -308.222)" fill="#fe9c69"/>
                  <path id="Trazado_912840" data-name="Trazado 912840" d="M306.267,324.94s-19.386,18.817-7.318,27.36,22.178-15.858,22.178-15.858Z" transform="translate(-294.992 -302.902)" fill="#fe9c69"/>
                  <path id="Trazado_912841" data-name="Trazado 912841" d="M379.1,311.714c-2.594,3.049-6.126,3.987-10.122,6.135-.96.514-1.37.473-2.135.951,0,0,.219,3.96.3,4.706.1.942.2,1.866.378,3.6.191,1.807.41,3.919.637,6.1.032.323.069.646.1.974.068.646.137,8.82.2,13.349a173.364,173.364,0,0,1-54.467,0c.036-4.811.077-12.066.123-12.853.05-.9.109-1.8.173-2.694.214-3.049.5-6.072.8-8.716.045-.41.1-.815.146-1.211.1-.81.992-2.1.305-2.285-6.836-1.857-14.423-13.386-14.423-13.386.187-.305.359-.591.537-.874,2.035-3.327,3.327-5.421,4.656-7.4,1.083-1.607,2.2-3.145,3.782-5.225a18.371,18.371,0,0,1,3.659-3.491c4.765-3.541,11.765-6.836,16.576-6.181,4.114,2.039,8.143,3.4,11.679,3.436a28.728,28.728,0,0,0,11.984-2.421c21,.446,24.568,25.415,24.8,26.252C378.9,310.885,379.008,311.3,379.1,311.714Z" transform="translate(-297.89 -283.129)" fill="#ffd00e"/>
                </g>
                <g id="Grupo_1101791" data-name="Grupo 1101791" transform="translate(30.828 70.805)">
                  <path id="Trazado_912842" data-name="Trazado 912842" d="M380.581,286.471a.138.138,0,0,0-.191-.043,31.464,31.464,0,0,1-12.356,3.859,18.8,18.8,0,0,1-14.369-4.232c-.073.081-.144.157-.188.2a18.863,18.863,0,0,0,12.318,4.424,22.137,22.137,0,0,0,2.268-.119,31.757,31.757,0,0,0,12.475-3.9A.138.138,0,0,0,380.581,286.471Z" transform="translate(-353.478 -286.056)" fill="#e3b416"/>
                </g>
                <g id="Grupo_1101792" data-name="Grupo 1101792" transform="translate(61.143 78.403)">
                  <path id="Trazado_912843" data-name="Trazado 912843" d="M416.352,321.989l.025,0a.139.139,0,0,0,.093-.172,195.116,195.116,0,0,1-5.2-21.224.139.139,0,0,0-.152-.115h-.008a.139.139,0,0,0-.114.159,195.764,195.764,0,0,0,5.21,21.259A.138.138,0,0,0,416.352,321.989Z" transform="translate(-410.993 -300.471)" fill="#e3b416"/>
                </g>
                <g id="Grupo_1101793" data-name="Grupo 1101793" transform="translate(17.5 75.017)">
                  <path id="Trazado_912844" data-name="Trazado 912844" d="M328.346,325.08h-.016a.154.154,0,0,1-.137-.168c.018-.182,1.865-18.394,4.657-30.745a.151.151,0,0,1,.183-.115.154.154,0,0,1,.117.183c-2.788,12.332-4.633,30.526-4.651,30.708A.154.154,0,0,1,328.346,325.08Z" transform="translate(-328.193 -294.046)" fill="#e3b416"/>
                </g>
                <g id="Grupo_1101794" data-name="Grupo 1101794" transform="translate(68.955 106.224)">
                  <path id="Trazado_912845" data-name="Trazado 912845" d="M425.814,353.253" transform="translate(-425.814 -353.253)" fill="#f29d6f"/>
                </g>
                <g id="Grupo_1101795" data-name="Grupo 1101795" transform="translate(20.916 109.641)">
                  <path id="Trazado_912846" data-name="Trazado 912846" d="M349.881,372.752a.138.138,0,0,0,.069-.259,53.842,53.842,0,0,1-15.032-12.707.138.138,0,1,0-.214.175,54.126,54.126,0,0,0,15.108,12.772A.138.138,0,0,0,349.881,372.752Z" transform="translate(-334.673 -359.735)" fill="#e3b416"/>
                </g>
                <g id="Grupo_1101796" data-name="Grupo 1101796" transform="translate(21.594 113.467)">
                  <path id="Trazado_912847" data-name="Trazado 912847" d="M343.371,380.154a.139.139,0,0,0,.1-.234,30.1,30.1,0,0,1-7.239-12.823.139.139,0,1,0-.267.073,30.384,30.384,0,0,0,7.3,12.941A.142.142,0,0,0,343.371,380.154Z" transform="translate(-335.961 -366.995)" fill="#e3b416"/>
                </g>
                <path id="Trazado_912848" data-name="Trazado 912848" d="M315.152,344.354" transform="translate(-304.526 -242.82)" fill="#fe9c69"/>
              </g>
            </g>
            <path id="Trazado_912849" data-name="Trazado 912849" d="M387.514,344.114a60.388,60.388,0,0,1-12.664-13.822c-4.452-5.208-2.156-6.157-2.156-6.157s-4.487-5.284-3.953-6.054c.835-1.2,2.952.563,4.373,2-1.577-1.783-3.819-4.547-2.888-4.888,1.387-.508,5.008,3.6,5.008,3.6s-3.812-4.485-3.492-5.611c.3-1.066.982-1.319,4.258,2.652-1.032-1.782-2.523-3.143-2.632-3.713-.188-.987,1.865-2.265,4.718,2.893,1.592,2.88,2.845,4.066,2.206,6.914,6.217,1.091,14.713,7.69,27.418,13.651C411.227,345.521,399.852,353.745,387.514,344.114Z" transform="translate(-184.913 -212.326)" fill="#fe9c69"/>
            <path id="Trazado_912850" data-name="Trazado 912850" d="M300.388,341.453c1.1-2.876,6.4-7.748,7.48-8.065-.277-3.183,1.254-4.287,3.4-7.178,3.847-5.179,5.887-3.492,5.539-2.449-.2.6-2.017,1.862-3.4,3.643,4.132-3.828,4.831-3.456,5-2.255.183,1.268-4.606,5.577-4.606,5.577s4.527-3.926,5.957-3.173c.96.505-1.876,3.177-3.846,4.88,1.75-1.346,4.3-2.952,5.034-1.526.468.913-5.17,5.989-5.17,5.989s-.023,11.373-7.011,15.09c0,0-9.049,4.867-12.465-4.879" transform="translate(-150.682 -217.731)" fill="#fe9c69"/>
            <path id="Trazado_912851" data-name="Trazado 912851" d="M303.653,354.763a13.938,13.938,0,0,1,3.312-4.313" transform="translate(-154.154 -230.881)" fill="none" stroke="#000" stroke-linecap="round" stroke-linejoin="round" stroke-miterlimit="10" stroke-width="0.75"/>
            <path id="Trazado_912852" data-name="Trazado 912852" d="M421.424,346.433a31.073,31.073,0,0,1,5.737,3.354" transform="translate(-209.848 -228.981)" fill="none" stroke="#000" stroke-linecap="round" stroke-linejoin="round" stroke-miterlimit="10" stroke-width="0.75"/>
          </g>
        </g>
        <g id="Grupo_1101803" data-name="Grupo 1101803" transform="translate(2.808 142.251)">
          <path id="Trazado_912853" data-name="Trazado 912853" d="M257.034,457.769H18.286a1.937,1.937,0,0,1-1.937-1.937h0a1.937,1.937,0,0,1,1.937-1.937H257.034a1.937,1.937,0,0,1,1.937,1.937h0A1.937,1.937,0,0,1,257.034,457.769Z" transform="translate(-16.349 -406.317)" fill="#25379d"/>
          <g id="XMLID_173_" transform="translate(56.465)">
            <g id="Grupo_1101801" data-name="Grupo 1101801" transform="translate(1.55 41.866)">
              <path id="Trazado_912854" data-name="Trazado 912854" d="M130.815,443.057h-3.262a1.138,1.138,0,0,0-1.138,1.138h5.538A1.137,1.137,0,0,0,130.815,443.057Z" transform="translate(-126.415 -443.057)" fill="#25379d"/>
              <path id="Trazado_912855" data-name="Trazado 912855" d="M142.688,443.057h-3.262a1.138,1.138,0,0,0-1.138,1.138h5.538A1.137,1.137,0,0,0,142.688,443.057Z" transform="translate(-132.03 -443.057)" fill="#25379d"/>
              <path id="Trazado_912856" data-name="Trazado 912856" d="M154.561,443.057H151.3a1.138,1.138,0,0,0-1.138,1.138H155.7A1.137,1.137,0,0,0,154.561,443.057Z" transform="translate(-137.645 -443.057)" fill="#25379d"/>
              <path id="Trazado_912857" data-name="Trazado 912857" d="M166.435,443.057h-3.262a1.138,1.138,0,0,0-1.138,1.138h5.538A1.138,1.138,0,0,0,166.435,443.057Z" transform="translate(-143.26 -443.057)" fill="#25379d"/>
              <path id="Trazado_912858" data-name="Trazado 912858" d="M178.308,443.057h-3.262a1.138,1.138,0,0,0-1.138,1.138h5.538A1.137,1.137,0,0,0,178.308,443.057Z" transform="translate(-148.875 -443.057)" fill="#25379d"/>
              <path id="Trazado_912859" data-name="Trazado 912859" d="M190.181,443.057h-3.262a1.138,1.138,0,0,0-1.138,1.138h5.538A1.137,1.137,0,0,0,190.181,443.057Z" transform="translate(-154.49 -443.057)" fill="#25379d"/>
              <path id="Trazado_912860" data-name="Trazado 912860" d="M202.054,443.057h-3.262a1.138,1.138,0,0,0-1.138,1.138h5.538A1.137,1.137,0,0,0,202.054,443.057Z" transform="translate(-160.104 -443.057)" fill="#25379d"/>
            </g>
            <g id="XMLID_200_" transform="translate(0 42.879)">
              <path id="XMLID_201_" d="M123.521,445.106l-.047,4.57,96.091.485.169-5.181Z" transform="translate(-123.474 -444.979)" fill="#536dfd"/>
            </g>
            <g id="Grupo_1101802" data-name="Grupo 1101802" transform="translate(36.618)">
              <g id="XMLID_197_">
                <path id="XMLID_199_" d="M260.736,365.864l-2.722-1.845-56.357-.39L192.946,406.8l2.175,1.255Z" transform="translate(-192.946 -363.629)" fill="#536dfd"/>
                <path id="XMLID_198_" d="M205.54,366.659l-8.468,42.832,56.377.279,9.238-42.473Z" transform="translate(-194.897 -365.062)" fill="#25379d"/>
              </g>
              <path id="XMLID_174_" d="M256.988,399.575c3.19-.357,6.553.576,7.513,2.083s-.848,3.019-4.038,3.376-6.553-.576-7.513-2.083S253.8,399.932,256.988,399.575Z" transform="translate(-221.201 -380.592)" fill="#536dfd"/>
            </g>
            <rect id="Rectángulo_403323" data-name="Rectángulo 403323" width="7.738" height="1.024" transform="translate(23.094 45.47)" fill="#25379d"/>
            <rect id="Rectángulo_403324" data-name="Rectángulo 403324" width="7.738" height="1.024" transform="translate(11.935 45.47)" fill="#25379d"/>
          </g>
        </g>
        <g id="Grupo_1101818" data-name="Grupo 1101818" transform="translate(97.725 18.606)">
          <g id="Grupo_1101812" data-name="Grupo 1101812" transform="translate(23.907)">
            <circle id="Elipse_11533" data-name="Elipse 11533" cx="16.105" cy="16.105" r="16.105" transform="matrix(0.998, -0.061, 0.061, 0.998, 0, 1.965)" fill="#7287ff"/>
            <g id="Grupo_1101811" data-name="Grupo 1101811" transform="translate(7.794 8.787)">
              <path id="Trazado_912861" data-name="Trazado 912861" d="M257.841,162.907h15.985a1.274,1.274,0,0,0,1.273-1.273v-13.3a1.274,1.274,0,0,0-1.273-1.273H257.841a1.274,1.274,0,0,0-1.273,1.273v13.3A1.273,1.273,0,0,0,257.841,162.907Z" transform="translate(-256.568 -146.355)" fill="#fff"/>
              <path id="Trazado_912862" data-name="Trazado 912862" d="M256.568,150.378H275.1v-2.043a1.274,1.274,0,0,0-1.273-1.273H257.841a1.274,1.274,0,0,0-1.273,1.273v2.043Z" transform="translate(-256.568 -146.355)" fill="#4371d6"/>
              <g id="Grupo_1101809" data-name="Grupo 1101809" transform="translate(2.976)">
                <g id="Grupo_1101808" data-name="Grupo 1101808">
                  <g id="Grupo_1101805" data-name="Grupo 1101805" transform="translate(10.752)">
                    <g id="Grupo_1101804" data-name="Grupo 1101804">
                      <path id="Trazado_912863" data-name="Trazado 912863" d="M282.99,147.135h0a.376.376,0,0,0,.376-.376V146.1a.376.376,0,0,0-.376-.376h0a.376.376,0,0,0-.376.376v.663A.376.376,0,0,0,282.99,147.135Z" transform="translate(-282.614 -145.721)" fill="#fff"/>
                      <path id="Trazado_912864" data-name="Trazado 912864" d="M285.028,147.135h0a.376.376,0,0,0,.376-.376V146.1a.376.376,0,0,0-.376-.376h0a.376.376,0,0,0-.376.376v.663A.376.376,0,0,0,285.028,147.135Z" transform="translate(-283.578 -145.721)" fill="#fff"/>
                    </g>
                  </g>
                  <g id="Grupo_1101807" data-name="Grupo 1101807">
                    <g id="Grupo_1101806" data-name="Grupo 1101806">
                      <path id="Trazado_912865" data-name="Trazado 912865" d="M262.591,147.135h0a.376.376,0,0,0,.376-.376V146.1a.376.376,0,0,0-.376-.376h0a.376.376,0,0,0-.376.376v.663A.376.376,0,0,0,262.591,147.135Z" transform="translate(-262.215 -145.721)" fill="#fff"/>
                      <path id="Trazado_912866" data-name="Trazado 912866" d="M264.629,147.135h0a.376.376,0,0,0,.376-.376V146.1a.376.376,0,0,0-.376-.376h0a.376.376,0,0,0-.376.376v.663A.376.376,0,0,0,264.629,147.135Z" transform="translate(-263.179 -145.721)" fill="#fff"/>
                    </g>
                  </g>
                </g>
              </g>
              <g id="Grupo_1101810" data-name="Grupo 1101810" transform="translate(1.962 5.468)">
                <path id="Trazado_912867" data-name="Trazado 912867" d="M276.613,156.094h-.995a.833.833,0,0,0-.832.833v.994a.833.833,0,0,0,.832.833h.995a.833.833,0,0,0,.832-.833v-.994A.833.833,0,0,0,276.613,156.094Z" transform="translate(-267.146 -156.094)" fill="#d5e3ff"/>
                <path id="Trazado_912868" data-name="Trazado 912868" d="M269.366,156.094h-.995a.833.833,0,0,0-.832.833v.994a.833.833,0,0,0,.832.833h.995a.833.833,0,0,0,.832-.833v-.994A.833.833,0,0,0,269.366,156.094Z" transform="translate(-263.719 -156.094)" fill="#d5e3ff"/>
                <path id="Trazado_912869" data-name="Trazado 912869" d="M262.118,156.094h-.995a.834.834,0,0,0-.833.833v.994a.834.834,0,0,0,.833.833h.995a.833.833,0,0,0,.832-.833v-.994A.833.833,0,0,0,262.118,156.094Z" transform="translate(-260.291 -156.094)" fill="#d5e3ff"/>
                <path id="Trazado_912870" data-name="Trazado 912870" d="M283.86,162.335h-.995a.833.833,0,0,0-.832.833v.994a.833.833,0,0,0,.832.832h.995a.833.833,0,0,0,.832-.832v-.994A.833.833,0,0,0,283.86,162.335Z" transform="translate(-270.573 -159.045)" fill="#d5e3ff"/>
                <path id="Trazado_912871" data-name="Trazado 912871" d="M276.613,162.335h-.995a.833.833,0,0,0-.832.833v.994a.833.833,0,0,0,.832.832h.995a.833.833,0,0,0,.832-.832v-.994A.833.833,0,0,0,276.613,162.335Z" transform="translate(-267.146 -159.045)" fill="#d5e3ff"/>
                <path id="Trazado_912872" data-name="Trazado 912872" d="M269.366,162.335h-.995a.833.833,0,0,0-.832.833v.994a.833.833,0,0,0,.832.832h.995a.833.833,0,0,0,.832-.832v-.994A.833.833,0,0,0,269.366,162.335Z" transform="translate(-263.719 -159.045)" fill="#d5e3ff"/>
                <path id="Trazado_912873" data-name="Trazado 912873" d="M262.118,162.335h-.995a.834.834,0,0,0-.833.833v.994a.833.833,0,0,0,.833.832h.995a.833.833,0,0,0,.832-.832v-.994A.833.833,0,0,0,262.118,162.335Z" transform="translate(-260.291 -159.045)" fill="#d5e3ff"/>
                <path id="Trazado_912874" data-name="Trazado 912874" d="M283.86,168.575h-.995a.833.833,0,0,0-.832.833v.995a.833.833,0,0,0,.832.833h.995a.833.833,0,0,0,.832-.833v-.995A.833.833,0,0,0,283.86,168.575Z" transform="translate(-270.573 -161.996)" fill="#d5e3ff"/>
                <path id="Trazado_912875" data-name="Trazado 912875" d="M276.613,168.575h-.995a.833.833,0,0,0-.832.833v.995a.833.833,0,0,0,.832.833h.995a.833.833,0,0,0,.832-.833v-.995A.833.833,0,0,0,276.613,168.575Z" transform="translate(-267.146 -161.996)" fill="#d5e3ff"/>
                <path id="Trazado_912876" data-name="Trazado 912876" d="M269.366,168.575h-.995a.833.833,0,0,0-.832.833v.995a.833.833,0,0,0,.832.833h.995a.833.833,0,0,0,.832-.833v-.995A.833.833,0,0,0,269.366,168.575Z" transform="translate(-263.719 -161.996)" fill="#d5e3ff"/>
              </g>
            </g>
          </g>
          <g id="Grupo_1101816" data-name="Grupo 1101816" transform="translate(0 24.031)">
            <circle id="Elipse_11534" data-name="Elipse 11534" cx="13.128" cy="13.128" r="13.128" transform="translate(0 25.2) rotate(-73.698)" fill="#7287ff"/>
            <g id="Grupo_1101815" data-name="Grupo 1101815" transform="translate(6.578 6.57)">
              <circle id="Elipse_11535" data-name="Elipse 11535" cx="8.992" cy="8.992" r="8.992" transform="translate(0 1.505) rotate(-4.801)" fill="#fff"/>
              <path id="Trazado_912877" data-name="Trazado 912877" d="M219.254,188.482a8.992,8.992,0,1,0,8.992,8.992A8.992,8.992,0,0,0,219.254,188.482Zm.754,16.653v-1.228a.414.414,0,0,0-.414-.414h-.681a.413.413,0,0,0-.413.414v1.228a7.7,7.7,0,0,1-6.907-6.907h1.228a.414.414,0,0,0,.414-.413v-.681a.413.413,0,0,0-.414-.413h-1.228a7.7,7.7,0,0,1,6.907-6.907v1.228a.413.413,0,0,0,.413.413h.681a.414.414,0,0,0,.414-.413v-1.228a7.7,7.7,0,0,1,6.907,6.907h-1.228a.413.413,0,0,0-.413.413v.681a.413.413,0,0,0,.413.413h1.228A7.7,7.7,0,0,1,220.008,205.135Z" transform="translate(-209.547 -187.756)" fill="#4371d6"/>
              <g id="Grupo_1101814" data-name="Grupo 1101814" transform="translate(4.263 7.463)">
                <g id="Grupo_1101813" data-name="Grupo 1101813">
                  <path id="Trazado_912878" data-name="Trazado 912878" d="M218.461,203.471a.608.608,0,0,0,.128-.348.386.386,0,0,0-.111-.281.379.379,0,0,0-.284-.113q-.317,0-.6.452l-.6-.355a1.85,1.85,0,0,1,.517-.552,1.264,1.264,0,0,1,.716-.188,1.155,1.155,0,0,1,.764.276.931.931,0,0,1,.329.752,1.009,1.009,0,0,1-.132.5,3.239,3.239,0,0,1-.488.608l-.606.629h1.327v.673H217.05v-.558l.985-1.009A4.244,4.244,0,0,0,218.461,203.471Z" transform="translate(-216.993 -201.652)" fill="#4371d6"/>
                  <path id="Trazado_912879" data-name="Trazado 912879" d="M223.85,204.138v-.586h.721v.586h.38v.649h-.38v.8h-.721v-.8H222.5v-.572l1.2-1.985h.817l-1.139,1.908Z" transform="translate(-219.597 -201.721)" fill="#4371d6"/>
                  <path id="Trazado_912880" data-name="Trazado 912880" d="M229.487,201.264h.682l-2.018,4.406h-.678Z" transform="translate(-221.949 -201.264)" fill="#4371d6"/>
                  <path id="Trazado_912881" data-name="Trazado 912881" d="M233.242,203.306V202.23h2.427v.567l-1.36,2.792h-.817l1.3-2.715h-.846v.432Z" transform="translate(-224.677 -201.721)" fill="#4371d6"/>
                </g>
              </g>
            </g>
          </g>
          <g id="Grupo_1101817" data-name="Grupo 1101817" transform="translate(30.138 49.31)">
            <circle id="Elipse_11536" data-name="Elipse 11536" cx="8.675" cy="8.675" r="8.675" fill="#7287ff"/>
            <circle id="Elipse_11537" data-name="Elipse 11537" cx="6.213" cy="6.213" r="6.213" transform="translate(2.462 2.462)" fill="#4371d6"/>
            <path id="Trazado_912882" data-name="Trazado 912882" d="M269.706,234.037h-1.329a.785.785,0,0,1-.785-.785v-1.329a.785.785,0,0,0-.785-.785h-.981a.785.785,0,0,0-.785.785v1.329a.785.785,0,0,1-.785.785h-1.329a.785.785,0,0,0-.785.785v.981a.785.785,0,0,0,.785.785h1.329a.785.785,0,0,1,.785.785V238.7a.785.785,0,0,0,.785.785h.981a.785.785,0,0,0,.785-.785v-1.329a.785.785,0,0,1,.785-.785h1.329a.785.785,0,0,0,.785-.785v-.981A.784.784,0,0,0,269.706,234.037Z" transform="translate(-257.641 -226.638)" fill="#fff"/>
          </g>
        </g>
        <g id="Grupo_1101819" data-name="Grupo 1101819" transform="translate(3.27 7.989)">
          <path id="Trazado_912883" data-name="Trazado 912883" d="M414.788,136.072a2.336,2.336,0,1,1-2.336-2.336A2.336,2.336,0,0,1,414.788,136.072Z" transform="translate(-203.026 -120.648)" fill="none" stroke="#8f9eff" stroke-miterlimit="10" stroke-width="1"/>
          <circle id="Elipse_11538" data-name="Elipse 11538" cx="2.336" cy="2.336" r="2.336" transform="translate(147.591 85.48)" fill="none" stroke="#8f9eff" stroke-miterlimit="10" stroke-width="1"/>
          <path id="Trazado_912884" data-name="Trazado 912884" d="M280.191,323.994a2.336,2.336,0,1,1-2.336-2.336A2.336,2.336,0,0,1,280.191,323.994Z" transform="translate(-139.375 -209.518)" fill="none" stroke="#8f9eff" stroke-miterlimit="10" stroke-width="1"/>
          <path id="Trazado_912885" data-name="Trazado 912885" d="M75.159,130.506a2.336,2.336,0,1,1-2.336-2.336A2.336,2.336,0,0,1,75.159,130.506Z" transform="translate(-42.413 -118.016)" fill="none" stroke="#8f9eff" stroke-miterlimit="10" stroke-width="1"/>
          <path id="Trazado_912886" data-name="Trazado 912886" d="M178.626,141.175a2.336,2.336,0,1,1-2.336-2.336A2.336,2.336,0,0,1,178.626,141.175Z" transform="translate(-91.344 -123.062)" fill="none" stroke="#8f9eff" stroke-miterlimit="10" stroke-width="1"/>
          <path id="Trazado_912887" data-name="Trazado 912887" d="M59.589,137a1.3,1.3,0,1,1-1.3-1.3A1.3,1.3,0,0,1,59.589,137Z" transform="translate(-36.027 -121.575)" fill="none" stroke="#8f9eff" stroke-miterlimit="10" stroke-width="1"/>
          <path id="Trazado_912888" data-name="Trazado 912888" d="M215.025,256.656a2.336,2.336,0,1,1-2.336-2.336A2.336,2.336,0,0,1,215.025,256.656Z" transform="translate(-108.557 -177.673)" fill="none" stroke="#8f9eff" stroke-miterlimit="10" stroke-width="1"/>
          <circle id="Elipse_11539" data-name="Elipse 11539" cx="2.336" cy="2.336" r="2.336" transform="translate(1.474 74.714)" fill="none" stroke="#8f9eff" stroke-miterlimit="10" stroke-width="1"/>
          <path id="Trazado_912889" data-name="Trazado 912889" d="M434.2,285.467a2.336,2.336,0,1,1-2.336-2.336A2.336,2.336,0,0,1,434.2,285.467Z" transform="translate(-212.205 -191.298)" fill="none" stroke="#8f9eff" stroke-miterlimit="10" stroke-width="1"/>
          <circle id="Elipse_11540" data-name="Elipse 11540" cx="1.475" cy="1.475" r="1.475" transform="translate(164.037 11.059)" fill="#b1baff"/>
          <path id="Trazado_912890" data-name="Trazado 912890" d="M290.777,213.07a1.053,1.053,0,1,1-1.053-1.053A1.053,1.053,0,0,1,290.777,213.07Z" transform="translate(-145.594 -157.668)" fill="#b1baff"/>
          <path id="Trazado_912891" data-name="Trazado 912891" d="M20.175,297.232a1.475,1.475,0,1,1-1.475-1.475A1.475,1.475,0,0,1,20.175,297.232Z" transform="translate(-17.225 -197.269)" fill="#b1baff"/>
          <path id="Trazado_912892" data-name="Trazado 912892" d="M454.826,296.064a1.475,1.475,0,1,1-1.475-1.475A1.475,1.475,0,0,1,454.826,296.064Z" transform="translate(-222.775 -196.717)" fill="#b1baff"/>
          <path id="Trazado_912893" data-name="Trazado 912893" d="M321.757,148.467a1.94,1.94,0,1,1-1.94-1.94A1.94,1.94,0,0,1,321.757,148.467Z" transform="translate(-159.406 -126.697)" fill="#b1baff"/>
          <circle id="Elipse_11541" data-name="Elipse 11541" cx="1.94" cy="1.94" r="1.94" transform="translate(6.525 60.793)" fill="#b1baff"/>
          <path id="Trazado_912894" data-name="Trazado 912894" d="M91.149,114.367a1.356,1.356,0,1,1-1.356-1.356A1.356,1.356,0,0,1,91.149,114.367Z" transform="translate(-50.902 -110.847)" fill="#b1baff"/>
          <path id="Trazado_912895" data-name="Trazado 912895" d="M210.262,154.771a1.475,1.475,0,1,1-1.475-1.475A1.475,1.475,0,0,1,210.262,154.771Z" transform="translate(-107.119 -129.898)" fill="#b1baff"/>
          <circle id="Elipse_11542" data-name="Elipse 11542" cx="1.475" cy="1.475" r="1.475" transform="translate(92.908 89.941)" fill="#b1baff"/>
          <path id="Trazado_912896" data-name="Trazado 912896" d="M419.071,109.8a.893.893,0,1,1-.893-.892A.893.893,0,0,1,419.071,109.8Z" transform="translate(-206.417 -108.906)" fill="#b1baff"/>
          <circle id="Elipse_11543" data-name="Elipse 11543" cx="0.892" cy="0.892" r="0.892" transform="translate(223.063 25.455)" fill="#b1baff"/>
          <circle id="Elipse_11544" data-name="Elipse 11544" cx="0.892" cy="0.892" r="0.892" transform="translate(149.034 67.71)" fill="#b1baff"/>
          <circle id="Elipse_11545" data-name="Elipse 11545" cx="0.892" cy="0.892" r="0.892" transform="translate(133.513 122.454)" fill="#b1baff"/>
          <path id="Trazado_912897" data-name="Trazado 912897" d="M317.968,262.38a.893.893,0,1,1-.893-.893A.893.893,0,0,1,317.968,262.38Z" transform="translate(-158.604 -181.063)" fill="#b1baff"/>
          <path id="Trazado_912898" data-name="Trazado 912898" d="M387.976,126.514a.893.893,0,1,1-.893-.893A.893.893,0,0,1,387.976,126.514Z" transform="translate(-191.711 -116.811)" fill="#b1baff"/>
          <path id="Trazado_912899" data-name="Trazado 912899" d="M462.412,215.649a.893.893,0,1,1-.893-.893A.892.892,0,0,1,462.412,215.649Z" transform="translate(-226.913 -158.963)" fill="#b1baff"/>
          <circle id="Elipse_11546" data-name="Elipse 11546" cx="1.508" cy="1.508" r="1.508" transform="translate(226.085 82.145)" fill="#b1baff"/>
          <circle id="Elipse_11547" data-name="Elipse 11547" cx="0.892" cy="0.892" r="0.892" transform="translate(56.805 13.638)" fill="#b1baff"/>
          <circle id="Elipse_11548" data-name="Elipse 11548" cx="0.893" cy="0.893" r="0.893" transform="translate(7.573 40.292)" fill="#b1baff"/>
        </g>
      </g>
    </g>
  </g>
</svg>
