<svg xmlns="http://www.w3.org/2000/svg" xmlns:xlink="http://www.w3.org/1999/xlink" width="190" height="115" viewBox="0 0 190 115">
  <defs>
    <clipPath id="clip-path">
      <rect id="Rectángulo_401573" data-name="Rectángulo 401573" width="28.836" height="111" fill="none"/>
    </clipPath>
    <clipPath id="clip-path-2">
      <rect id="Rectángulo_401572" data-name="Rectángulo 401572" width="72.283" height="262.133" fill="none"/>
    </clipPath>
    <clipPath id="clip-path-3">
      <rect id="Rectángulo_403255" data-name="Rectángulo 403255" width="71" height="71" transform="translate(254.051 423)" fill="#fff" stroke="#707070" stroke-width="1"/>
    </clipPath>
  </defs>
  <g id="Grupo_1101547" data-name="Grupo 1101547" transform="translate(-180.051 -401)">
    <g id="Grupo_1101503" data-name="Grupo 1101503" transform="translate(180.051 401.333)">
      <g id="Grupo_1099687" data-name="Grupo 1099687" clip-path="url(#clip-path)">
        <g id="Grupo_1099686" data-name="Grupo 1099686" transform="translate(-6.669 -55.037)" opacity="0.45" style="mix-blend-mode: multiply;isolation: isolate">
          <g id="Grupo_1099685" data-name="Grupo 1099685">
            <g id="Grupo_1099684" data-name="Grupo 1099684" clip-path="url(#clip-path-2)">
              <path id="Trazado_873516" data-name="Trazado 873516" d="M-.222,17.8,89.855-5.386,88.78.455-1.3,23.64Z" transform="matrix(0.898, -0.44, 0.44, 0.898, -7.635, 207.677)" fill="#2d0464"/>
              <path id="Trazado_873517" data-name="Trazado 873517" d="M-.222,17.8,89.855-5.386,88.78.455-1.3,23.64Z" transform="matrix(0.898, -0.44, 0.44, 0.898, -7.635, 191.348)" fill="#2d0464"/>
              <path id="Trazado_873518" data-name="Trazado 873518" d="M-.222,17.8,89.855-5.386,88.78.455-1.3,23.64Z" transform="matrix(0.898, -0.44, 0.44, 0.898, -7.635, 175.019)" fill="#2d0464"/>
              <path id="Trazado_873519" data-name="Trazado 873519" d="M-.222,17.8,89.855-5.386,88.78.455-1.3,23.64Z" transform="matrix(0.898, -0.44, 0.44, 0.898, -7.635, 158.69)" fill="#2d0464"/>
              <path id="Trazado_873520" data-name="Trazado 873520" d="M-.222,17.8,89.855-5.386,88.78.455-1.3,23.64Z" transform="matrix(0.898, -0.44, 0.44, 0.898, -7.635, 142.36)" fill="#2d0464"/>
              <path id="Trazado_873521" data-name="Trazado 873521" d="M-.222,17.8,89.855-5.386,88.78.455-1.3,23.64Z" transform="matrix(0.898, -0.44, 0.44, 0.898, -7.635, 126.031)" fill="#2d0464"/>
              <path id="Trazado_873522" data-name="Trazado 873522" d="M-.222,17.8,89.855-5.386,88.78.455-1.3,23.64Z" transform="matrix(0.898, -0.44, 0.44, 0.898, -7.635, 109.702)" fill="#2d0464"/>
              <path id="Trazado_873523" data-name="Trazado 873523" d="M-.222,17.8,89.855-5.386,88.78.455-1.3,23.64Z" transform="matrix(0.898, -0.44, 0.44, 0.898, -7.635, 93.373)" fill="#2d0464"/>
              <path id="Trazado_873524" data-name="Trazado 873524" d="M-.222,17.8,89.855-5.386,88.78.455-1.3,23.64Z" transform="matrix(0.898, -0.44, 0.44, 0.898, -7.635, 77.044)" fill="#2d0464"/>
              <path id="Trazado_873525" data-name="Trazado 873525" d="M-.222,17.8,89.855-5.386,88.78.455-1.3,23.64Z" transform="matrix(0.898, -0.44, 0.44, 0.898, -7.635, 60.715)" fill="#2d0464"/>
              <path id="Trazado_873526" data-name="Trazado 873526" d="M-.222,17.8,89.855-5.386,88.78.455-1.3,23.64Z" transform="translate(-7.635 44.385) rotate(-26.114)" fill="#2d0464"/>
            </g>
          </g>
        </g>
      </g>
      <rect id="Rectángulo_401574" data-name="Rectángulo 401574" width="161" height="115" transform="translate(29 -0.333)" fill="#efe8f7"/>
    </g>
    <g id="Enmascarar_grupo_1098706" data-name="Enmascarar grupo 1098706" clip-path="url(#clip-path-3)">
      <g id="gestion-de-equipos" transform="translate(254.051 423)">
        <g id="Grupo_1101509" data-name="Grupo 1101509">
          <g id="Grupo_1101504" data-name="Grupo 1101504">
            <circle id="Elipse_11515" data-name="Elipse 11515" cx="15.83" cy="15.83" r="15.83" transform="translate(19.671 1.101)" fill="#f7e365"/>
          </g>
          <g id="Grupo_1101505" data-name="Grupo 1101505">
            <path id="Trazado_912545" data-name="Trazado 912545" d="M44.944,4.225A15.83,15.83,0,0,1,22.8,26.373,15.83,15.83,0,1,0,44.944,4.225Z" fill="#f3d332"/>
          </g>
          <g id="Grupo_1101508" data-name="Grupo 1101508">
            <g id="Grupo_1101506" data-name="Grupo 1101506">
              <path id="Trazado_912546" data-name="Trazado 912546" d="M42.5,16.876l2.058-2.235a1.4,1.4,0,0,0,.183-1.65l-1.211-2.1a1.4,1.4,0,0,0-1.52-.666l-2.963.665-.095-.055-.906-2.9a1.4,1.4,0,0,0-1.337-.983H34.289a1.4,1.4,0,0,0-1.337.983l-.906,2.9-.095.055-2.963-.665a1.4,1.4,0,0,0-1.52.666l-1.211,2.1a1.4,1.4,0,0,0,.183,1.65L28.5,16.876v.108L26.44,19.219a1.4,1.4,0,0,0-.183,1.65l1.211,2.1a1.4,1.4,0,0,0,1.52.666l2.963-.665.095.055.906,2.9a1.4,1.4,0,0,0,1.337.983h2.423a1.4,1.4,0,0,0,1.337-.983l.906-2.9.094-.054,2.964.665a1.4,1.4,0,0,0,1.52-.666l1.211-2.1a1.4,1.4,0,0,0-.183-1.65L42.5,16.984v-.108Zm-7,2.3a2.241,2.241,0,1,1,2.241-2.241A2.241,2.241,0,0,1,35.5,19.172Z" fill="#62a4fb"/>
            </g>
            <g id="Grupo_1101507" data-name="Grupo 1101507">
              <path id="Trazado_912547" data-name="Trazado 912547" d="M42.5,16.984v-.108l2.058-2.235a1.4,1.4,0,0,0,.183-1.65l-1.211-2.1a1.4,1.4,0,0,0-1.52-.666l-1.683.377a9.868,9.868,0,0,1-8.12,12.944l.741,2.373a1.4,1.4,0,0,0,1.337.983h2.423a1.4,1.4,0,0,0,1.337-.983l.906-2.9.094-.054,2.964.665a1.4,1.4,0,0,0,1.52-.666l1.211-2.1a1.4,1.4,0,0,0-.183-1.65Z" fill="#5392f9"/>
            </g>
          </g>
        </g>
        <g id="Grupo_1101525" data-name="Grupo 1101525">
          <g id="Grupo_1101514" data-name="Grupo 1101514">
            <g id="Grupo_1101510" data-name="Grupo 1101510">
              <path id="Trazado_912548" data-name="Trazado 912548" d="M38.024,43.155v13.3h17.37v-13.3a5.043,5.043,0,0,0-5.043-5.043H43.067A5.043,5.043,0,0,0,38.024,43.155Z" fill="#e175a5"/>
            </g>
            <g id="Grupo_1101511" data-name="Grupo 1101511">
              <path id="Trazado_912549" data-name="Trazado 912549" d="M47.548,43.154a8.362,8.362,0,0,0-1.686-5.043h-2.8a5.043,5.043,0,0,0-5.043,5.043v13.3h9.525Z" fill="#de5791"/>
            </g>
            <g id="Grupo_1101512" data-name="Grupo 1101512">
              <circle id="Elipse_11516" data-name="Elipse 11516" cx="5.603" cy="5.603" r="5.603" transform="translate(41.105 26.905)" fill="#fed2a4"/>
            </g>
            <g id="Grupo_1101513" data-name="Grupo 1101513">
              <path id="Trazado_912550" data-name="Trazado 912550" d="M49.343,27.562a5.6,5.6,0,0,1-7.58,7.58,5.6,5.6,0,1,0,7.58-7.58Z" fill="#ffbd86"/>
            </g>
          </g>
          <g id="Grupo_1101519" data-name="Grupo 1101519">
            <g id="Grupo_1101515" data-name="Grupo 1101515">
              <path id="Trazado_912551" data-name="Trazado 912551" d="M15.608,43.155v13.3h17.37v-13.3a5.043,5.043,0,0,0-5.043-5.043H20.651A5.043,5.043,0,0,0,15.608,43.155Z" fill="#e175a5"/>
            </g>
            <g id="Grupo_1101516" data-name="Grupo 1101516">
              <path id="Trazado_912552" data-name="Trazado 912552" d="M32.978,56.451v-13.3a5.043,5.043,0,0,0-5.043-5.043h-2.8a8.361,8.361,0,0,0-1.686,5.043v13.3Z" fill="#de5791"/>
            </g>
            <g id="Grupo_1101517" data-name="Grupo 1101517">
              <circle id="Elipse_11517" data-name="Elipse 11517" cx="5.603" cy="5.603" r="5.603" transform="translate(18.69 26.905)" fill="#fed2a4"/>
            </g>
            <g id="Grupo_1101518" data-name="Grupo 1101518">
              <path id="Trazado_912553" data-name="Trazado 912553" d="M26.927,27.562a5.6,5.6,0,0,1-7.58,7.58,5.6,5.6,0,1,0,7.58-7.58Z" fill="#ffbd86"/>
            </g>
          </g>
          <g id="Grupo_1101524" data-name="Grupo 1101524">
            <g id="Grupo_1101520" data-name="Grupo 1101520">
              <path id="Trazado_912554" data-name="Trazado 912554" d="M26.816,43.155v13.3h17.37v-13.3a5.043,5.043,0,0,0-5.043-5.043H31.859A5.043,5.043,0,0,0,26.816,43.155Z" fill="#62a4fb"/>
            </g>
            <g id="Grupo_1101521" data-name="Grupo 1101521">
              <path id="Trazado_912555" data-name="Trazado 912555" d="M39.143,38.111H35.5a5.043,5.043,0,0,1,5.043,5.043v13.3h3.642v-13.3a5.043,5.043,0,0,0-5.043-5.043Z" fill="#5392f9"/>
            </g>
            <g id="Grupo_1101522" data-name="Grupo 1101522">
              <circle id="Elipse_11518" data-name="Elipse 11518" cx="5.603" cy="5.603" r="5.603" transform="translate(29.898 26.905)" fill="#fed2a4"/>
            </g>
            <g id="Grupo_1101523" data-name="Grupo 1101523">
              <path id="Trazado_912556" data-name="Trazado 912556" d="M38.135,27.562a5.6,5.6,0,0,1-7.58,7.58,5.6,5.6,0,1,0,7.58-7.58Z" fill="#ffbd86"/>
            </g>
          </g>
        </g>
        <g id="Grupo_1101531" data-name="Grupo 1101531">
          <g id="Grupo_1101526" data-name="Grupo 1101526">
            <path id="Trazado_912557" data-name="Trazado 912557" d="M10.005,49.727h5.043V67.658H10.005Z" fill="#d3effd"/>
          </g>
          <g id="Grupo_1101527" data-name="Grupo 1101527">
            <path id="Trazado_912558" data-name="Trazado 912558" d="M68.977,45.883a3.362,3.362,0,0,0-4.755,0L53.654,56.451H43.906a3.362,3.362,0,0,0,0-6.724H33.26L31.1,47.976a10.981,10.981,0,0,0-13.72-.089l-2.331,1.84V67.658L35.34,68.931a11.206,11.206,0,0,0,4.008-.477l15.764-4.868a5.6,5.6,0,0,0,2.309-1.392L68.977,50.638a3.362,3.362,0,0,0,0-4.755Z" fill="#fed2a4"/>
          </g>
          <g id="Grupo_1101528" data-name="Grupo 1101528">
            <path id="Trazado_912559" data-name="Trazado 912559" d="M68.977,45.883a3.362,3.362,0,0,0-4.755,0L53.654,56.451H51.649a41.154,41.154,0,0,1-3.37,3.813A37.632,37.632,0,0,1,35.19,68.921l.15.009a11.206,11.206,0,0,0,4.008-.477l15.764-4.868a5.6,5.6,0,0,0,2.309-1.392L68.977,50.638a3.362,3.362,0,0,0,0-4.755Z" fill="#ffbd86"/>
          </g>
          <g id="Grupo_1101529" data-name="Grupo 1101529">
            <path id="Trazado_912560" data-name="Trazado 912560" d="M1.04,47.486h8.965V69.9H1.04Z" fill="#62a4fb"/>
          </g>
          <g id="Grupo_1101530" data-name="Grupo 1101530">
            <path id="Trazado_912561" data-name="Trazado 912561" d="M6.924,47.486h3.082V69.9H6.924Z" fill="#5392f9"/>
          </g>
        </g>
        <g id="Grupo_1101532" data-name="Grupo 1101532">
          <circle id="Elipse_11519" data-name="Elipse 11519" cx="1.121" cy="1.121" r="1.121" transform="translate(4.402 50.848)"/>
          <circle id="Elipse_11520" data-name="Elipse 11520" cx="1.121" cy="1.121" r="1.121" transform="translate(4.402 55.331)"/>
          <path id="Trazado_912562" data-name="Trazado 912562" d="M38.782,16.93A3.281,3.281,0,1,0,35.5,20.212,3.285,3.285,0,0,0,38.782,16.93Zm-3.281,1.2a1.2,1.2,0,1,1,1.2-1.2A1.2,1.2,0,0,1,35.5,18.132Z"/>
          <path id="Trazado_912563" data-name="Trazado 912563" d="M69.713,45.148a4.4,4.4,0,0,0-6.226,0L56.434,52.2V48.779a1.04,1.04,0,0,0-2.08,0v5.5l-1.13,1.13h-5.58a4.4,4.4,0,0,0-2.418-6.523V43.155a6.056,6.056,0,0,0-1.508-4h6.634a4.007,4.007,0,0,1,4,4v.77a1.04,1.04,0,0,0,2.08,0v-.77a6.092,6.092,0,0,0-5-5.985A6.636,6.636,0,0,0,49.429,26.45a16.917,16.917,0,0,0,2.942-9.519A16.724,16.724,0,0,0,47.288,4.864a1.04,1.04,0,0,0-1.453,1.489A14.66,14.66,0,0,1,50.29,16.93a14.824,14.824,0,0,1-3.023,8.96c-.185-.016-.371-.025-.559-.025a6.643,6.643,0,0,0-5.6,3.082,6.692,6.692,0,0,0-2.294-2.2,2.468,2.468,0,0,0,.232-.519l.642-2.056,2.1.471a2.43,2.43,0,0,0,2.648-1.161l1.211-2.1a2.43,2.43,0,0,0-.318-2.874l-1.459-1.584,1.459-1.584a2.43,2.43,0,0,0,.318-2.874l-1.211-2.1a2.43,2.43,0,0,0-2.648-1.161l-2.1.471-.642-2.056a2.431,2.431,0,0,0-2.33-1.713H34.289a2.43,2.43,0,0,0-2.33,1.713l-.642,2.055-2.1-.471a2.43,2.43,0,0,0-2.648,1.161l-1.211,2.1a2.431,2.431,0,0,0,.318,2.874l1.459,1.584-1.459,1.584a2.431,2.431,0,0,0-.318,2.874l1.211,2.1a2.43,2.43,0,0,0,2.648,1.161l2.1-.471.642,2.055a2.462,2.462,0,0,0,.232.52,6.691,6.691,0,0,0-2.294,2.2,6.643,6.643,0,0,0-5.6-3.082c-.188,0-.375.01-.559.025A14.79,14.79,0,0,1,35.5,2.141a14.639,14.639,0,0,1,6.658,1.58A1.04,1.04,0,1,0,43.1,1.864,16.7,16.7,0,0,0,35.5.06,16.871,16.871,0,0,0,21.573,26.449,6.636,6.636,0,0,0,19.566,37.17a6.092,6.092,0,0,0-5,5.984v5.533H11.046v-1.2a1.04,1.04,0,0,0-1.04-1.04H1.04A1.04,1.04,0,0,0,0,47.486V69.9a1.04,1.04,0,0,0,1.04,1.04h8.965a1.04,1.04,0,0,0,1.04-1.04V68.7h3.977l13.64.856a1.04,1.04,0,1,0,.13-2.076l-12.7-.8V50.231L18.025,48.7a9.94,9.94,0,0,1,12.42.082l2.161,1.75a1.04,1.04,0,0,0,.655.232H43.906a2.322,2.322,0,0,1,0,4.644H31.859a1.04,1.04,0,0,0-.735.3l-1.471,1.471a1.04,1.04,0,1,0,1.471,1.471l1.166-1.166H53.655a1.04,1.04,0,0,0,.736-.3L64.958,46.619A2.322,2.322,0,1,1,68.242,49.9L56.686,61.459a4.578,4.578,0,0,1-1.881,1.133L39.04,67.461a10.117,10.117,0,0,1-3.635.433l-1.768-.111a1.04,1.04,0,1,0-.13,2.076l1.768.111q.387.024.773.024a12.171,12.171,0,0,0,3.607-.546l15.764-4.869a6.666,6.666,0,0,0,2.738-1.649L69.713,51.374a4.408,4.408,0,0,0,0-6.226Zm-23-17.2a4.563,4.563,0,1,1-4.563,4.563,4.569,4.569,0,0,1,4.563-4.563ZM34.29,25.865a.359.359,0,0,1-.344-.253l-.906-2.9a1.04,1.04,0,0,0-.473-.59l-.094-.054a1.04,1.04,0,0,0-.749-.115l-2.963.665a.36.36,0,0,1-.391-.172l-1.211-2.1a.359.359,0,0,1,.047-.425l2.058-2.235a1.04,1.04,0,0,0,.275-.7v-.108a1.04,1.04,0,0,0-.275-.7l-2.058-2.235a.359.359,0,0,1-.047-.425l1.211-2.1a.36.36,0,0,1,.391-.172l2.963.665a1.039,1.039,0,0,0,.749-.115l.094-.054a1.04,1.04,0,0,0,.473-.59l.906-2.9A.359.359,0,0,1,34.29,8h2.423a.359.359,0,0,1,.344.253l.906,2.9a1.039,1.039,0,0,0,.472.59l.095.055a1.04,1.04,0,0,0,.749.115l2.963-.665a.359.359,0,0,1,.391.172l1.212,2.1a.359.359,0,0,1-.047.425l-2.058,2.235a1.04,1.04,0,0,0-.275.7v.108a1.04,1.04,0,0,0,.275.7L43.8,19.923a.36.36,0,0,1,.047.425l-1.211,2.1a.36.36,0,0,1-.391.172l-2.964-.665a1.038,1.038,0,0,0-.747.114l-.1.055a1.04,1.04,0,0,0-.472.59l-.906,2.9a.359.359,0,0,1-.344.253H34.29Zm1.211,2.08a4.563,4.563,0,1,1-4.563,4.563A4.568,4.568,0,0,1,35.5,27.945Zm-11.208,0a4.563,4.563,0,1,1-4.563,4.563,4.569,4.569,0,0,1,4.563-4.563ZM8.965,68.86H2.08V48.526H8.965Zm2.08-18.092h2.963V66.618H11.046Zm9.2-5.617a11.99,11.99,0,0,0-3.505,1.92l-.088.07V43.154a4.007,4.007,0,0,1,4-4h6.634a6.056,6.056,0,0,0-1.508,4v1.438a11.962,11.962,0,0,0-5.535.557Zm11.514,2.019a12.026,12.026,0,0,0-3.9-2.105v-1.91a4.007,4.007,0,0,1,4-4h7.284a4.008,4.008,0,0,1,4,4v5.532H33.628Z"/>
        </g>
      </g>
    </g>
  </g>
</svg>
