<svg xmlns="http://www.w3.org/2000/svg" xmlns:xlink="http://www.w3.org/1999/xlink" width="295" height="194" viewBox="0 0 295 194">
  <defs>
    <clipPath id="clip-path">
      <rect id="Rectángulo_403254" data-name="Rectángulo 403254" width="162.113" height="166.501" fill="none"/>
    </clipPath>
  </defs>
  <g id="Grupo_1101501" data-name="Grupo 1101501" transform="translate(-600.051 -847)">
    <rect id="Rectángulo_403250" data-name="Rectángulo 403250" width="295" height="194" rx="10" transform="translate(600.051 847)" fill="#e0d4f0"/>
    <g id="Grupo_1101496" data-name="Grupo 1101496" transform="translate(666.494 874.5)">
      <g id="Grupo_1101495" data-name="Grupo 1101495" clip-path="url(#clip-path)">
        <path id="Trazado_912454" data-name="Trazado 912454" d="M162.113,80.949c0,44.766-39.625,82.07-84.391,82.07S0,125.715,0,80.949,40.489,0,85.255,0s76.857,36.183,76.857,80.949" fill="#c3aae2"/>
        <g id="Grupo_1101499" data-name="Grupo 1101499" transform="translate(96.974 13.53)">
          <g id="Grupo_1101498" data-name="Grupo 1101498">
            <path id="Trazado_912468" data-name="Trazado 912468" d="M233.432,194.4a.975.975,0,0,0,0,1.95h.205a.975.975,0,0,0,0-1.95Z" transform="translate(-216.099 -113.154)" fill="#692cb7"/>
            <path id="Trazado_912481" data-name="Trazado 912481" d="M211.081,189.286a3.578,3.578,0,0,0-1.214.632c-.5.317-.437.2-.929-.151a1.745,1.745,0,0,0-2.314-.128,2.118,2.118,0,0,0-.5,2.317,6.046,6.046,0,0,0,1.518,2.027c.408.41,1.546,1.94,2.084,1.824.305-.066.813-.792,1.033-1.019q.556-.574,1.086-1.173a5.243,5.243,0,0,0,1.181-1.819,1.825,1.825,0,0,0-1.948-2.51" transform="translate(-202.53 -110.512)" fill="#692cb7"/>
            <path id="Trazado_912486" data-name="Trazado 912486" d="M205.8,41.823a2.962,2.962,0,0,1,.352.926,3.017,3.017,0,0,1-.157,1.2L204.4,49.8l4.936-3.919a3.993,3.993,0,0,1,1.477-.859,4.607,4.607,0,0,1,1.669.043,9.935,9.935,0,0,0,5.946-.879,7.294,7.294,0,0,0,3.46-3.769c1.759-4.438-1.023-10.395-5.8-12.131a9.305,9.305,0,0,0-10.925,3.695,8.386,8.386,0,0,0-.834,6.571,18.662,18.662,0,0,0,1.469,3.273" transform="translate(-201.517 -27.752)" fill="#692cb7"/>
            <path id="Trazado_912498" data-name="Trazado 912498" d="M206.854,213.182h-.048a.507.507,0,0,1-.479-.359,3.326,3.326,0,0,0-.212-.506.492.492,0,0,1,.082-.578l.041-.041a.5.5,0,0,0,0-.706l-.246-.246a.5.5,0,0,0-.706,0l-.042.042a.493.493,0,0,1-.578.081,3.34,3.34,0,0,0-.506-.211.507.507,0,0,1-.359-.479v-.048a.5.5,0,0,0-.5-.5h-.348a.5.5,0,0,0-.5.5v.048a.507.507,0,0,1-.359.479,3.339,3.339,0,0,0-.506.211.493.493,0,0,1-.578-.081l-.041-.042a.5.5,0,0,0-.706,0l-.246.246a.5.5,0,0,0,0,.706l.041.041a.492.492,0,0,1,.082.578,3.279,3.279,0,0,0-.211.506.508.508,0,0,1-.479.359H199.4a.5.5,0,0,0-.5.5v.348a.5.5,0,0,0,.5.5h.048a.507.507,0,0,1,.479.359,3.274,3.274,0,0,0,.211.506.492.492,0,0,1-.082.578l-.041.042a.5.5,0,0,0,0,.706l.246.246a.5.5,0,0,0,.706,0l.041-.041a.492.492,0,0,1,.578-.082,3.34,3.34,0,0,0,.506.212.507.507,0,0,1,.359.479v.047a.5.5,0,0,0,.5.5h.348a.5.5,0,0,0,.5-.5v-.047a.507.507,0,0,1,.359-.479,3.341,3.341,0,0,0,.506-.212.492.492,0,0,1,.578.082l.042.041a.5.5,0,0,0,.706,0l.246-.246a.5.5,0,0,0,0-.706l-.041-.042a.492.492,0,0,1-.082-.578,3.321,3.321,0,0,0,.212-.506.507.507,0,0,1,.479-.359h.048a.5.5,0,0,0,.5-.5v-.348a.5.5,0,0,0-.5-.5m-3.725,2.462a1.789,1.789,0,1,1,1.789-1.789,1.789,1.789,0,0,1-1.789,1.789" transform="translate(-198.905 -120.958)" fill="#692cb7"/>
            <path id="Trazado_912511" data-name="Trazado 912511" d="M230.2,73.369v-.308a.975.975,0,1,0-1.95,0v.308a.975.975,0,0,0,1.95,0" transform="translate(-213.942 -50.472)" fill="#692cb7"/>
            <path id="Trazado_912512" data-name="Trazado 912512" d="M221.679,137.771a.976.976,0,0,0,0,1.95.976.976,0,0,0,0-1.95" transform="translate(-210.093 -84.133)" fill="#692cb7"/>
          </g>
          <g id="Grupo_1101497" data-name="Grupo 1101497" transform="translate(3.554 11.022)">
            <path id="Trazado_912459" data-name="Trazado 912459" d="M233.312,99.4a57.14,57.14,0,0,0-5.108-3.883.739.739,0,0,0-.886.115c-1.033,1-2.787,3.568-4.45,3.058a11.7,11.7,0,0,1-2.179-1.646c-.726-.548-1.456-1.094-2.179-1.646-.695-.53-2.226-1.437-2.47-2.316a3.562,3.562,0,0,1,1.215-3.237,5.792,5.792,0,0,0,1.487-2.137.711.711,0,0,0-.188-.711c-1.267-1.151-2.652-2.158-3.922-3.3-.846-.763-1.643-2.146-2.808-2.491-1.421-.421-2.561.826-3.3,1.855a12.037,12.037,0,0,0-.646,13.25.785.785,0,0,0,.083.15.77.77,0,0,0,.11.142c2.413,3.352,5.937,5.757,9.228,8.182,3.038,2.238,6.375,4.876,10.374,3.769,2.593-.718,6.416-3.423,7.294-6.1.454-1.386-.7-2.226-1.654-3.046m-.841,4.056c-2.07,2.4-5.136,4.623-8.467,3.68-2.731-.772-5.212-3.032-7.432-4.714-2.649-2.006-5.414-3.956-7.35-6.7a10.428,10.428,0,0,1-1.38-7.8,9.376,9.376,0,0,1,2.043-4.241c.74-.654.154-.728,1.477-.476,1.094.207,1.174.538,1.945,1.267s1.618,1.371,2.437,2.041c.23.188,1.146.728,1.212,1.01.167.71-.593,1.078-.95,1.491a8.26,8.26,0,0,0-1.41,1.647c-1.57,3.184,2.576,5.549,4.63,7.1,1.114.841,2.937,2.931,4.529,2.758,1.575-.17,3.047-2.167,4.179-3.412,1.16.8,2.3,1.636,3.391,2.529,1.494,1.22,2.71,2.01,1.147,3.823" transform="translate(-206.195 -66.12)" fill="#692cb7"/>
            <path id="Trazado_912461" data-name="Trazado 912461" d="M243.794,85.18q-.031-2.269-.061-4.539a12.989,12.989,0,0,0,2.064-.1c.011,1.445.022,2.89.051,4.336a.732.732,0,0,0,1.463,0q-.118-5.851-.041-11.7a.732.732,0,0,0-1.463,0q-.039,2.951-.027,5.9a11.283,11.283,0,0,1-2.067.109q-.042-3.159-.085-6.318a.732.732,0,0,0-1.463,0l.167,12.317a.732.732,0,0,0,1.463,0" transform="translate(-224.628 -61.53)" fill="#692cb7"/>
            <path id="Trazado_912462" data-name="Trazado 912462" d="M258.384,72.338q-1.9,6.024-3.4,12.159c-.223.914,1.188,1.3,1.41.389.32-1.312.658-2.619,1.006-3.922h2.505q.318,1.883.611,3.771c.142.927,1.552.533,1.41-.389q-.927-6.03-2.137-12.007c-.151-.744-1.207-.645-1.41,0M257.8,79.5q.548-1.99,1.135-3.969.378,1.981.723,3.969Z" transform="translate(-231.187 -61.355)" fill="#692cb7"/>
            <path id="Trazado_912463" data-name="Trazado 912463" d="M271.274,84.847a18.548,18.548,0,0,0,3.892-.091c.921-.117.933-1.581,0-1.463a18.492,18.492,0,0,1-3.183.13,84.658,84.658,0,0,1,.282-11.491c.088-.937-1.375-.931-1.463,0a84.69,84.69,0,0,0-.259,12.183.752.752,0,0,0,.731.731" transform="translate(-239.115 -61.056)" fill="#692cb7"/>
            <path id="Trazado_912464" data-name="Trazado 912464" d="M284.007,84.533c2.777.158,3.173-4.59,3.186-6.4.017-2.372.072-5.386-2.211-6.62a.743.743,0,0,0-.789-.361c-3.024.543-3.069,4.47-2.961,6.908.076,1.714.238,6.329,2.775,6.473m.139-11.83c.021.011.04.024.063.034,1.581.644,1.462,3.158,1.5,4.581.028.954.2,4.485-.882,5.072-.919.5-1.409-.619-1.663-1.133a8.471,8.471,0,0,1-.444-2.769c-.118-1.475-.329-4.974,1.422-5.785" transform="translate(-244.634 -61.008)" fill="#692cb7"/>
            <path id="Trazado_912465" data-name="Trazado 912465" d="M235.192,157.123c.247-2.674.608-8.669-2.783-9.7a.961.961,0,0,0-.73-.4c-3.875-.294-5.917,3.272-6.2,6.7-.278,3.323-.165,8.969,4.064,9.795,3.813.745,5.376-3.383,5.653-6.387m-5.534,4.068c-2.555-.968-2.4-4.3-2.279-6.674.122-2.354.912-5.261,3.549-5.533a.856.856,0,0,0,.454.2c2.372.342,2.026,5.054,1.942,6.744-.111,2.24-.551,6.443-3.667,5.263" transform="translate(-216.029 -99.884)" fill="#692cb7"/>
            <path id="Trazado_912466" data-name="Trazado 912466" d="M255.178,147.576q-2.024,2.4-4.113,4.748.039-2.244.077-4.488a.976.976,0,0,0-1.95,0q-.125,7.287-.25,14.574a.976.976,0,0,0,1.95,0q.045-2.674.092-5.348a36.246,36.246,0,0,0,4.2,6.793c.77.989,2.142-.4,1.379-1.379a32.983,32.983,0,0,1-4.658-8.159q2.364-2.649,4.655-5.362c.8-.954-.568-2.34-1.379-1.379" transform="translate(-228.102 -99.83)" fill="#692cb7"/>
            <path id="Trazado_912467" data-name="Trazado 912467" d="M274.4,118.841c-.95,5.471,2.133,10.944,7.827,11.9a10.669,10.669,0,0,0,8.137-18.9,1.1,1.1,0,0,0-.781-.6,12.2,12.2,0,0,0-2.347-1.292.885.885,0,0,0-.446-.068.936.936,0,0,0-.356-.127c-5.951-.885-11.019,3.239-12.033,9.08m3.767-3.832q-.055,5.7-.11,11.394c-2.47-3-2.231-8.029.11-11.394m1.813,12.984a1.05,1.05,0,0,0,.013-.121q.072-7.448.144-14.9a7.378,7.378,0,0,1,3.015-1.3q-.1,8.6-.207,17.207a7.758,7.758,0,0,1-2.965-.887m12.212-5.816a8.986,8.986,0,0,1-2.123,3.962q.04-2.938.08-5.877c.026-1.935-.09-3.963.051-5.928a8.742,8.742,0,0,1,1.992,7.843m-5.819-10.569a1.042,1.042,0,0,0,.345.228,9.447,9.447,0,0,1,1.7.921c-.725,4.789-.249,10.007-.314,14.815a1.073,1.073,0,0,0,.013.157,8.3,8.3,0,0,1-3.218,1.132q.1-8.651.209-17.3c.266.016.535.04.811.082a1.042,1.042,0,0,0,.458-.033" transform="translate(-241.061 -80.738)" fill="#692cb7"/>
            <path id="Trazado_912469" data-name="Trazado 912469" d="M251.995,195.931a.976.976,0,0,0,0-1.95.976.976,0,0,0,0,1.95" transform="translate(-229.183 -123.96)" fill="#692cb7"/>
            <path id="Trazado_912470" data-name="Trazado 912470" d="M244.183,210.421c.836-.932-.539-2.315-1.379-1.378a9.965,9.965,0,0,1-16.768-2.7c-.5-1.146-2.185-.155-1.684.984a11.9,11.9,0,0,0,19.831,3.1" transform="translate(-215.453 -130.032)" fill="#692cb7"/>
            <path id="Trazado_912471" data-name="Trazado 912471" d="M295.718,165.276a12.311,12.311,0,0,0-15.4-3.66,12.535,12.535,0,0,0-6.327,15.615,11.966,11.966,0,0,0,14.405,7.147,46.213,46.213,0,0,0,4.481,2.848c.577.322,1.567-.069,1.467-.842q-.329-2.538-.867-5.033c4.624-4.035,6-10.939,2.243-16.076m-19.964,11.1a10.568,10.568,0,0,1,5.754-13.166,10.313,10.313,0,0,1,12.894,3.57c2.932,4.426,1.458,9.886-2.327,13.2a1.027,1.027,0,0,0-.558.468.806.806,0,0,0,.056,1.31q.3,1.366.534,2.744-1.227-.755-2.407-1.587a.854.854,0,0,0-1.148-.634l-.058.017a.746.746,0,0,0-.255.075,10,10,0,0,1-12.485-6" transform="translate(-240.537 -106.713)" fill="#692cb7"/>
            <path id="Trazado_912472" data-name="Trazado 912472" d="M283.88,184.653a1.094,1.094,0,0,0-1.032.286,1.054,1.054,0,0,0,.185,1.694,1.067,1.067,0,0,0,.751.1,1.02,1.02,0,0,0,.517-.354.907.907,0,0,0,.314-.986,1.086,1.086,0,0,0-.735-.737m-.9,1.651-.013-.008-.01-.017.023.024" transform="translate(-245.303 -119.161)" fill="#692cb7"/>
            <path id="Trazado_912473" data-name="Trazado 912473" d="M292.837,183.876a.976.976,0,0,0,0,1.95.976.976,0,0,0,0-1.95" transform="translate(-250.113 -118.781)" fill="#692cb7"/>
            <path id="Trazado_912474" data-name="Trazado 912474" d="M302.942,183.876a.976.976,0,0,0,0,1.95.976.976,0,0,0,0-1.95" transform="translate(-255.291 -118.781)" fill="#692cb7"/>
            <path id="Trazado_912475" data-name="Trazado 912475" d="M311.784,185.826a.976.976,0,0,0,0-1.95.976.976,0,0,0,0,1.95" transform="translate(-259.823 -118.781)" fill="#692cb7"/>
            <path id="Trazado_912476" data-name="Trazado 912476" d="M247.541,230.265a.964.964,0,0,0-.485-.134c-5.487-.076-10.8,3.849-11.454,9.487a10.8,10.8,0,0,0,5.908,10.806,58.6,58.6,0,0,0-2.077,8.2c-.2,1.66,1.245,2.512,2.758,2.844a2.083,2.083,0,0,0,2.756-1.617c.838-2.854,1.307-5.785,2.221-8.632a10.35,10.35,0,0,0,8.531-8.4c1.071-5.736-1.879-12.057-8.157-12.551m-3.578,24.924c-.167.661-.512,4.2-1.254,4.4a2.888,2.888,0,0,1-1.144-.481q-.591-.233-.017-.924a16.391,16.391,0,0,1,.6-2.355l1.217-4.756c.187.043.371.094.563.126a10.412,10.412,0,0,0,1.159.125c-.411,1.279-.8,2.565-1.126,3.869m9.447-11.272A8.3,8.3,0,0,1,243.2,249.03a8.757,8.757,0,0,1-5.581-9.785c.837-4.354,5.059-7.164,9.313-7.159a1.022,1.022,0,0,0,.419.114c5.784.343,7.685,6.957,6.057,11.719" transform="translate(-221.231 -142.485)" fill="#692cb7"/>
            <path id="Trazado_912477" data-name="Trazado 912477" d="M250.291,237.918c-4.759.542-8.591,6.678-5.47,10.923.736,1,2.429.029,1.684-.984-2.146-2.919.328-7.595,3.786-7.989,1.232-.14,1.247-2.092,0-1.95" transform="translate(-225.41 -146.472)" fill="#692cb7"/>
            <path id="Trazado_912478" data-name="Trazado 912478" d="M277.714,218.948l1.974,1.037a.639.639,0,0,0,.927-.673l-.377-2.2a.638.638,0,0,1,.184-.565l1.6-1.557a.639.639,0,0,0-.354-1.09l-2.207-.32a.639.639,0,0,1-.481-.35l-.987-2a.639.639,0,0,0-1.146,0l-.987,2a.639.639,0,0,1-.481.35l-2.207.32a.639.639,0,0,0-.354,1.09l1.6,1.557a.639.639,0,0,1,.183.565l-.377,2.2a.639.639,0,0,0,.927.673l1.974-1.037a.639.639,0,0,1,.595,0" transform="translate(-240.236 -132.619)" fill="#692cb7"/>
            <path id="Trazado_912479" data-name="Trazado 912479" d="M252.264,55.1c.408.41,1.546,1.94,2.084,1.824.305-.066.813-.792,1.033-1.019q.557-.574,1.086-1.172a5.245,5.245,0,0,0,1.181-1.819A1.825,1.825,0,0,0,255.7,50.4a3.584,3.584,0,0,0-1.214.632c-.5.318-.437.2-.929-.151a1.744,1.744,0,0,0-2.313-.128,2.116,2.116,0,0,0-.5,2.317,6.054,6.054,0,0,0,1.518,2.027" transform="translate(-228.95 -50.36)" fill="#692cb7"/>
            <path id="Trazado_912499" data-name="Trazado 912499" d="M288.82,242.931h-.038a.405.405,0,0,1-.384-.287,2.689,2.689,0,0,0-.169-.405.394.394,0,0,1,.065-.462l.033-.034a.4.4,0,0,0,0-.565l-.2-.2a.4.4,0,0,0-.566,0l-.033.034a.4.4,0,0,1-.463.065,2.622,2.622,0,0,0-.405-.169.406.406,0,0,1-.287-.384v-.038a.4.4,0,0,0-.4-.4H285.7a.4.4,0,0,0-.4.4v.038a.406.406,0,0,1-.287.384,2.621,2.621,0,0,0-.405.169.4.4,0,0,1-.463-.065l-.033-.034a.4.4,0,0,0-.566,0l-.2.2a.4.4,0,0,0,0,.565l.034.034a.394.394,0,0,1,.065.462,2.69,2.69,0,0,0-.169.405.405.405,0,0,1-.384.287h-.038a.4.4,0,0,0-.4.4v.279a.4.4,0,0,0,.4.4h.038a.406.406,0,0,1,.384.287,2.668,2.668,0,0,0,.169.405.394.394,0,0,1-.065.462l-.034.034a.4.4,0,0,0,0,.566l.2.2a.4.4,0,0,0,.566,0l.033-.033a.4.4,0,0,1,.463-.066,2.62,2.62,0,0,0,.405.169.407.407,0,0,1,.287.384v.038a.4.4,0,0,0,.4.4h.279a.4.4,0,0,0,.4-.4v-.038a.407.407,0,0,1,.287-.384,2.62,2.62,0,0,0,.405-.169.4.4,0,0,1,.463.066l.033.033a.4.4,0,0,0,.566,0l.2-.2a.4.4,0,0,0,0-.566l-.033-.034a.394.394,0,0,1-.065-.462,2.668,2.668,0,0,0,.169-.405.406.406,0,0,1,.384-.287h.038a.4.4,0,0,0,.4-.4v-.279a.4.4,0,0,0-.4-.4m-2.982,1.972a1.432,1.432,0,1,1,1.432-1.432,1.432,1.432,0,0,1-1.432,1.432" transform="translate(-245.276 -147.589)" fill="#692cb7"/>
            <path id="Trazado_912506" data-name="Trazado 912506" d="M302.521,225.56a.976.976,0,0,0,0,1.95.976.976,0,0,0,0-1.95" transform="translate(-255.076 -140.143)" fill="#692cb7"/>
            <path id="Trazado_912507" data-name="Trazado 912507" d="M300.59,101.2h.308a.975.975,0,1,0,0-1.95h-.308a.975.975,0,0,0,0,1.95" transform="translate(-254.069 -75.412)" fill="#692cb7"/>
            <path id="Trazado_912513" data-name="Trazado 912513" d="M273.468,158.668a.976.976,0,0,0,0-1.95.976.976,0,0,0,0,1.95" transform="translate(-240.187 -104.864)" fill="#692cb7"/>
            <path id="Trazado_912514" data-name="Trazado 912514" d="M317.679,157.405a.976.976,0,0,0,0-1.95.976.976,0,0,0,0,1.95" transform="translate(-262.844 -104.217)" fill="#692cb7"/>
          </g>
        </g>
        <g id="Grupo_1101500" data-name="Grupo 1101500" transform="translate(7.619 9.012)">
          <path id="Trazado_912455" data-name="Trazado 912455" d="M135.177,31.331a.735.735,0,0,0,.148,1.149c2.482,1.145,4.958.077,7.537.528.92.161,1.316-1.248.389-1.41-1.963-.343-4.155.332-6.107-.043,2.311-2.044,5.317-5.09,4.28-8.161-1.116-3.306-4.329-2.246-6.145-.274-.637.691.395,1.728,1.034,1.034,1-1.083,3.182-2.371,3.786-.132.338,1.253-.417,2.4-1.108,3.345a24.162,24.162,0,0,1-3.814,3.966" transform="translate(-76.784 -19.909)" fill="#692cb7"/>
          <path id="Trazado_912456" data-name="Trazado 912456" d="M150.483,28.266a31.542,31.542,0,0,0,4.556.151c0,1.2,0,2.391-.034,3.587a.732.732,0,0,0,1.463,0q.143-5.753-.221-11.493c-.057-.893-1.392-.937-1.458-.117a39.554,39.554,0,0,0-4.936,6.771.741.741,0,0,0,.631,1.1m1.24-1.355a37.749,37.749,0,0,1,3.166-4.4q.107,2.224.138,4.449a31.641,31.641,0,0,1-3.3-.044" transform="translate(-84.359 -19.163)" fill="#692cb7"/>
          <path id="Trazado_912457" data-name="Trazado 912457" d="M170.178,32.267q2.757-6.37,5.678-12.668c.393-.848-.867-1.592-1.263-.738q-2.921,6.3-5.677,12.668c-.37.855.889,1.6,1.263.738" transform="translate(-94.147 -18.483)" fill="#692cb7"/>
          <path id="Trazado_912458" data-name="Trazado 912458" d="M187.833,22.137l4.782-.045L188.4,32.649c-.349.874,1.065,1.253,1.41.389L194.4,21.545a.736.736,0,0,0-.7-.926l-5.861.055a.732.732,0,0,0,0,1.463" transform="translate(-103.514 -19.578)" fill="#692cb7"/>
          <path id="Trazado_912460" data-name="Trazado 912460" d="M44.549,186.646c3.372-2.511,7.056-5.069,9.5-8.537a11.306,11.306,0,0,0,1.516-8.464c-.488-2.14-2.157-5.744-4.5-6.433-1.948-.573-4.221,1.84-5.577,2.919-2.164,1.721-3.27,3.07-1.405,5.553.677.9,2.291,2.16,1.473,3.536-.344.578-1.424,1.046-1.959,1.426-1.385.982-3.784,3.755-5.454,3.446-1.739-.321-2.172-2.974-4.015-3.22-1.334-.178-2.764,1.3-3.74,2-2.512,1.794-5.159,3.024-3.3,6.3a10.162,10.162,0,0,0,7.606,4.87c3.7.44,6.975-1.249,9.856-3.394m-11.538,1.528c-1.658-.566-4.452-2.171-4.834-4.046s1.091-2.649,2.226-3.476c.7-.513,2.071-1.906,2.922-2.049,2.9-.486,3.089,4.852,6.494,2.744,1.53-.946,2.852-2.252,4.316-3.3a9.84,9.84,0,0,0,2.794-2.217c1.968-3.028-3.69-4.8-1.291-7.972a12.756,12.756,0,0,1,2.684-2.1c1.9-1.338,3.248-.79,4.527,1.163a9.665,9.665,0,0,1-.065,10.445c-2.287,3.247-5.82,5.657-8.975,8.013-3.137,2.343-6.838,4.143-10.8,2.791" transform="translate(-21.181 -92.607)" fill="#692cb7"/>
          <path id="Trazado_912480" data-name="Trazado 912480" d="M70.238,55.436c.339.34,1.284,1.611,1.731,1.515.254-.055.675-.658.858-.847q.461-.477.9-.973a4.355,4.355,0,0,0,.981-1.511,1.516,1.516,0,0,0-1.617-2.085,2.972,2.972,0,0,0-1.009.525c-.414.264-.363.167-.771-.125a1.45,1.45,0,0,0-1.922-.107,1.759,1.759,0,0,0-.413,1.924,5.021,5.021,0,0,0,1.261,1.683" transform="translate(-42.904 -35.405)" fill="#692cb7"/>
          <path id="Trazado_912482" data-name="Trazado 912482" d="M134.23,57.61a3.578,3.578,0,0,0-1.214.632c-.5.317-.437.2-.929-.151a1.745,1.745,0,0,0-2.314-.128,2.118,2.118,0,0,0-.5,2.317,6.041,6.041,0,0,0,1.518,2.027c.408.41,1.546,1.94,2.084,1.824.305-.066.813-.792,1.033-1.019q.556-.574,1.086-1.172a5.25,5.25,0,0,0,1.181-1.819,1.825,1.825,0,0,0-1.948-2.51" transform="translate(-73.792 -38.514)" fill="#692cb7"/>
          <path id="Trazado_912483" data-name="Trazado 912483" d="M166.553,63.964a1.019,1.019,0,0,0-1.211-.275l-.117.054q-.135-4.95-.269-9.9a1,1,0,0,0-.975-.975q-8.841-.372-17.685-.032a.992.992,0,0,0-.975.975q.013,5.559-.514,11.085c-.273-.1-.547-.2-.821-.3a.857.857,0,0,0-1.163.722.993.993,0,0,0-.224.563,68.686,68.686,0,0,0-.309,10.24c.108,1.605.5,2.964,2.147,3.571,2.314.851,5.536.421,7.98.591a53.515,53.515,0,0,0,9.039.124c3.54-.354,5.516-1.688,6.131-5.329.574-3.394-.024-6.836-.3-10.227a.981.981,0,0,0-.735-.888m-19.291-9.205q7.886-.268,15.77.029.133,4.922.267,9.845c-1.165.552-2.321,1.123-3.461,1.727-1.65.874-3.6,2.582-5.437,2.6-1.771.015-3.78-1.6-5.423-2.358-.754-.346-1.516-.67-2.284-.98q.543-5.42.568-10.861m18.061,21.409c-.707,1.862-1.994,2.1-3.866,2.29-4.288.445-8.607-.166-12.889-.373a10.959,10.959,0,0,1-2.68-.09c-2.135-.743-1.687-3.045-1.682-4.667.008-2.163.109-4.321.271-6.476a51.529,51.529,0,0,1,5.82,2.558c1.254.652,2.905,2.143,4.394,2.022a6.778,6.778,0,0,0,2.321-1.247q1.5-.894,3.04-1.728c1.759-.953,3.553-1.834,5.369-2.669.194,2.056.45,4.107.449,6.177a11.962,11.962,0,0,1-.546,4.2" transform="translate(-80.492 -36.005)" fill="#692cb7"/>
          <path id="Trazado_912484" data-name="Trazado 912484" d="M157.224,64.109c3.276.265,6.588.128,9.872.115a.976.976,0,0,0,0-1.95c-3.285.013-6.6.15-9.872-.115-1.251-.1-1.244,1.849,0,1.95" transform="translate(-87.711 -40.864)" fill="#692cb7"/>
          <path id="Trazado_912485" data-name="Trazado 912485" d="M166.515,72.063l-8.618.265c-1.252.038-1.257,1.989,0,1.95l8.618-.265c1.252-.039,1.257-1.989,0-1.95" transform="translate(-88.053 -45.941)" fill="#692cb7"/>
          <path id="Trazado_912487" data-name="Trazado 912487" d="M100.084,38.761a.732.732,0,0,0,0-1.463.732.732,0,0,0,0,1.463" transform="translate(-58.546 -28.125)" fill="#692cb7"/>
          <path id="Trazado_912488" data-name="Trazado 912488" d="M112.715,38.34a.732.732,0,0,0,0-1.463.732.732,0,0,0,0,1.463" transform="translate(-65.019 -27.91)" fill="#692cb7"/>
          <path id="Trazado_912489" data-name="Trazado 912489" d="M98.363,48.981a4.289,4.289,0,0,1,7.125,0c.538.763,1.807.033,1.263-.739a5.777,5.777,0,0,0-9.651,0c-.544.77.724,1.5,1.263.738" transform="translate(-57.311 -32.402)" fill="#692cb7"/>
          <path id="Trazado_912490" data-name="Trazado 912490" d="M95.539,46.764a9.409,9.409,0,0,0,10.675-7.47c1.081-5.21-2.713-10.135-7.794-11.1a.729.729,0,0,0-.548.1c-5.068.1-9.495,3.027-10.11,8.446a9.211,9.211,0,0,0,7.778,10.019M89.258,36.51c.777-4.762,4.946-6.922,9.464-6.738,4.074,1.125,7.061,5.137,6.014,9.467a7.931,7.931,0,0,1-9.424,5.99,7.7,7.7,0,0,1-6.053-8.719" transform="translate(-52.564 -23.454)" fill="#692cb7"/>
          <path id="Trazado_912491" data-name="Trazado 912491" d="M111.642,104.388a.976.976,0,0,0,0,1.95.976.976,0,0,0,0-1.95" transform="translate(-64.349 -62.506)" fill="#692cb7"/>
          <path id="Trazado_912492" data-name="Trazado 912492" d="M111.766,98.075a5.68,5.68,0,0,0-7.58.974c-.79.962.582,2.35,1.379,1.379a3.778,3.778,0,0,1,5.217-.668c1.017.739,1.991-.953.984-1.684" transform="translate(-60.889 -58.745)" fill="#692cb7"/>
          <path id="Trazado_912493" data-name="Trazado 912493" d="M97.8,91.6c-.754,1,.939,1.977,1.684.984a7.409,7.409,0,0,1,10.967-1.135c.944.819,2.329-.554,1.379-1.379A9.4,9.4,0,0,0,97.8,91.6" transform="translate(-57.642 -53.908)" fill="#692cb7"/>
          <path id="Trazado_912494" data-name="Trazado 912494" d="M110.259,80.63a12.262,12.262,0,0,0-17.594.866c-.836.932.539,2.316,1.379,1.379a10.3,10.3,0,0,1,14.836-.866c.93.838,2.314-.537,1.379-1.379" transform="translate(-54.973 -48.636)" fill="#692cb7"/>
          <path id="Trazado_912495" data-name="Trazado 912495" d="M69.872,116.579A10.361,10.361,0,0,0,67.4,128.348c1.3,2.647,4.675,3.913,8.012,4.287a18.49,18.49,0,0,0,5.39-.161,3.071,3.071,0,0,1,1.164-.09,2.8,2.8,0,0,1,1.042.535l5.465,3.861a19.163,19.163,0,0,0-.518-7.152,8.342,8.342,0,0,0,2.744-11c-3.668-7.066-15.495-6.969-20.827-2.046" transform="translate(-41.697 -66.959)" fill="#692cb7"/>
          <path id="Trazado_912496" data-name="Trazado 912496" d="M104.966,182.639a3.693,3.693,0,0,0-2.131-.065c.021-.847-.161-1.8-.185-2.487l-.176-5.184-.159-4.714c-.038-1.1.3-3.084-.294-4.085-.923-1.564-3.6-.881-5.13-.619a.917.917,0,0,0-1.138.925l.448,17.214q-.782.083-1.567.146a1,1,0,0,0-.975.975c.008,2.8.011,5.608.024,8.411.008,1.647-.1,3.511.966,4.891,1.86,2.4,6.675,2.749,8.942.825,3.315-2.812,2.2-8.9,2.21-12.694,0-1.092.366-2.9-.834-3.539M100.4,171.146l.143,4.228.159,4.713c.028.832.273,2.034-.324,2.761l-2.24.229-.31-11.919,2.571-.012m-.112-3.314a2.786,2.786,0,0,1,.132,1.364l-2.641.013q-.024-.951-.049-1.9c.975-.193,1.965-.422,2.559.527m2.787,28.634c-1.041,1.7-3.015,1.853-4.784,1.437-2.021-.475-2.59-1.914-2.653-3.813-.094-2.814-.036-5.643-.03-8.461q1.461-.137,2.913-.337a8.766,8.766,0,0,0,2.593-.412c.161-.029.323-.054.485-.084a.947.947,0,0,0,.382-.156c.09-.012.18-.021.27-.033.184-.025,1.522-.387,1.609-.337a9.468,9.468,0,0,1-.008,2.386c-.009,2.82.752,7.322-.776,9.811" transform="translate(-55.615 -93.624)" fill="#692cb7"/>
          <path id="Trazado_912497" data-name="Trazado 912497" d="M45.905,78.371h.111a1.188,1.188,0,0,1,1.122.841,7.807,7.807,0,0,0,.494,1.184,1.152,1.152,0,0,1-.191,1.352l-.1.1a1.169,1.169,0,0,0,0,1.653l.577.577a1.169,1.169,0,0,0,1.654,0l.1-.1a1.152,1.152,0,0,1,1.352-.191,7.835,7.835,0,0,0,1.184.494,1.188,1.188,0,0,1,.841,1.122v.111a1.169,1.169,0,0,0,1.169,1.169h.815A1.169,1.169,0,0,0,56.2,85.515V85.4a1.188,1.188,0,0,1,.841-1.122,7.835,7.835,0,0,0,1.184-.494,1.152,1.152,0,0,1,1.352.191l.1.1a1.169,1.169,0,0,0,1.654,0l.577-.577a1.169,1.169,0,0,0,0-1.653l-.1-.1a1.152,1.152,0,0,1-.191-1.352,7.858,7.858,0,0,0,.495-1.184,1.187,1.187,0,0,1,1.122-.841h.112A1.169,1.169,0,0,0,64.516,77.2v-.816a1.169,1.169,0,0,0-1.169-1.169h-.112a1.187,1.187,0,0,1-1.122-.84,7.816,7.816,0,0,0-.495-1.184,1.153,1.153,0,0,1,.191-1.352l.1-.1a1.169,1.169,0,0,0,0-1.653l-.577-.577a1.169,1.169,0,0,0-1.654,0l-.1.1a1.152,1.152,0,0,1-1.352.192,7.787,7.787,0,0,0-1.184-.495,1.187,1.187,0,0,1-.841-1.122v-.112A1.169,1.169,0,0,0,55.033,66.9h-.815a1.169,1.169,0,0,0-1.169,1.169v.112a1.187,1.187,0,0,1-.841,1.122,7.787,7.787,0,0,0-1.184.495,1.152,1.152,0,0,1-1.352-.192l-.1-.1a1.169,1.169,0,0,0-1.654,0l-.577.577a1.169,1.169,0,0,0,0,1.653l.1.1a1.153,1.153,0,0,1,.191,1.352,7.766,7.766,0,0,0-.494,1.184,1.188,1.188,0,0,1-1.122.84h-.111a1.169,1.169,0,0,0-1.169,1.169V77.2a1.169,1.169,0,0,0,1.169,1.169m8.721-5.765a4.188,4.188,0,1,1-4.187,4.188,4.188,4.188,0,0,1,4.187-4.188" transform="translate(-30.545 -43.297)" fill="#692cb7"/>
          <path id="Trazado_912500" data-name="Trazado 912500" d="M32.393,120.842a.947.947,0,0,0,.433-.082,5.451,5.451,0,0,0,2.947-.411,5.89,5.89,0,0,0,3.226-6.4c-.193-1.236-2.072-.711-1.88.519a3.721,3.721,0,0,1-7.032,2.236l-.04-.093a3.543,3.543,0,0,1,4.895-4.456c1.114.574,2.1-1.108.984-1.684a5.546,5.546,0,0,0-6.719,1.1c.208-1.994,1.184-3.7,3.4-4.069,1.235-.207.711-2.086-.519-1.88-4.625.774-5.51,6.14-4.379,10.259a5.92,5.92,0,0,1-2.045-4.567c.045-1.255-1.905-1.253-1.95,0-.111,3.1,1.718,5.336,3.987,7.088a7.445,7.445,0,0,1-4.183-2.52c-.79-.975-2.163.412-1.379,1.379,2.521,3.11,6.518,3.463,10.253,3.589" transform="translate(-18.845 -63.127)" fill="#692cb7"/>
          <path id="Trazado_912501" data-name="Trazado 912501" d="M29.936,163.8c3.337-.89,4.841-3.206,4.938-6.564-.02-2.082-.94-5.173-.3-7.16.526-1.625,2.539-2.437,3.365-3.913a2.452,2.452,0,0,0-2.643-3.734c-1.812.286-3.217,1.756-5.055,2.144-2.226.469-4.552.138-6.8.256-2.426.126-5.462.527-6.961,2.682-.884,1.271-.772,2.7-.775,4.177,0,1.665-.148,3.337-.027,5,.218,2.992,1.3,5.542,4.166,6.807,2.915,1.288,7.082,1.108,10.094.3M18,158.848c-.713-2.155-.376-4.594-.356-6.823.013-1.492-.192-3.191,1.216-4.144a8.382,8.382,0,0,1,3.781-1.049c2.361-.216,4.739.083,7.1-.215a11.085,11.085,0,0,0,2.618-.629c.523-.2,1.025-.574,1.54-.754l.682-.428,1.418.7c.022.636-2.156,2.016-2.565,2.48a3.073,3.073,0,0,0-.748,1.5c-.535,2.428.213,5.292.236,7.754-.129,4.495-3.713,4.966-7.393,5.094-2.947.1-6.45-.235-7.526-3.485" transform="translate(-15.628 -81.981)" fill="#692cb7"/>
          <path id="Trazado_912502" data-name="Trazado 912502" d="M53.267,239.214a.976.976,0,0,0,0-1.95c-1.628.045-3.253.079-4.872-.019,2.179-1.856,4.52-4.433,4.3-6.953-.316-3.643-4.612-3.627-7.259-3.167-1.234.214-.711,2.094.519,1.88,1.2-.209,2.7-.544,3.816.132,1.566.945.689,2.6-.109,3.738a18.309,18.309,0,0,1-4.233,4.241c-.587.429-.687,1.642.233,1.782a42.216,42.216,0,0,0,7.6.314" transform="translate(-30.542 -125.296)" fill="#692cb7"/>
          <path id="Trazado_912503" data-name="Trazado 912503" d="M73.2,220.81a.976.976,0,0,0-1.684-.984l-5.94,10.034a.986.986,0,0,0,.842,1.467l6.636.474c.04.811.09,1.622.156,2.432.1,1.242,2.052,1.253,1.95,0a79.092,79.092,0,0,1-.238-8.208.976.976,0,0,0-1.95,0c-.029,1.275-.024,2.548.008,3.82l-4.92-.352L73.2,220.81" transform="translate(-41.153 -121.424)" fill="#692cb7"/>
          <path id="Trazado_912504" data-name="Trazado 912504" d="M69.8,259.709l-19.912-.081a.976.976,0,0,0,0,1.95l19.912.081a.976.976,0,0,0,0-1.95" transform="translate(-32.703 -142.061)" fill="#692cb7"/>
          <path id="Trazado_912505" data-name="Trazado 912505" d="M79.686,270.236A60.464,60.464,0,0,1,69.468,270c-1.246-.135-1.237,1.817,0,1.95a60.467,60.467,0,0,0,8.887.291l-2.685,8.843a.976.976,0,0,0,1.88.519l3.076-10.131a.983.983,0,0,0-.94-1.234" transform="translate(-42.742 -147.372)" fill="#692cb7"/>
          <path id="Trazado_912508" data-name="Trazado 912508" d="M89.679,69.561a.976.976,0,0,0,0,1.95.976.976,0,0,0,0-1.95" transform="translate(-53.093 -44.659)" fill="#692cb7"/>
          <path id="Trazado_912509" data-name="Trazado 912509" d="M65.679,113.771a.976.976,0,0,0,0,1.95.976.976,0,0,0,0-1.95" transform="translate(-40.794 -67.315)" fill="#692cb7"/>
          <path id="Trazado_912510" data-name="Trazado 912510" d="M132.626,103.034a.976.976,0,0,0,0,1.95.976.976,0,0,0,0-1.95" transform="translate(-75.102 -61.812)" fill="#692cb7"/>
          <path id="Trazado_912515" data-name="Trazado 912515" d="M128.837,214.192a.976.976,0,0,0,0,1.95.976.976,0,0,0,0-1.95" transform="translate(-73.16 -118.777)" fill="#692cb7"/>
          <path id="Trazado_912516" data-name="Trazado 912516" d="M35,224.3H34.7a.975.975,0,1,0,0,1.95H35a.975.975,0,1,0,0-1.95" transform="translate(-24.899 -123.955)" fill="#692cb7"/>
          <path id="Trazado_912517" data-name="Trazado 912517" d="M19.574,192.087a.976.976,0,0,0,0,1.95.976.976,0,0,0,0-1.95" transform="translate(-17.167 -107.449)" fill="#692cb7"/>
        </g>
        <path id="Trazado_912518" data-name="Trazado 912518" d="M110.387,229.318c-1.2.789-2.36,1.61-3.482,2.392a16.017,16.017,0,0,0-4.348,4.01,16.809,16.809,0,0,0-1.848,4.269c-3.16,9.83-5.009,19.87-6.815,30.013-.441,2.474-.8,5.294.765,7.259,1.186,1.489,3.16,2.052,5,2.532,2.639.688,7.751-1.35,10.39-.663,7.938,2.068,17.07.209,25.257,0,8.453-.216,14.588,1.841,22.768-.3,2.838-.743,6.091-.3,7.215-3.01.8-1.933.377-4.129-.059-6.175q-2.885-13.555-5.771-27.109c-.715-3.36-1.477-6.827-3.482-9.617a17.792,17.792,0,0,0-7.72-5.653,51.894,51.894,0,0,0-9.118-3.394c-7.191-1.489-15.112-.466-22,1.9a30.832,30.832,0,0,0-6.754,3.541" transform="translate(-47.923 -114.37)" fill="#3ba935"/>
        <path id="Trazado_912519" data-name="Trazado 912519" d="M147.575,231.878,157.912,272.8l8.127-40.923Z" transform="translate(-75.626 -118.829)" fill="#fbb040"/>
        <path id="Trazado_912520" data-name="Trazado 912520" d="M146.431,217.44a2.731,2.731,0,0,0,1.15.993c2.849,1.585,6.332,3.382,9.724,3.011,1.566-.172,3.039-1.135,4.438-1.787,1.078-.5,3.027-.862,3.76-1.843.884-1.182-.1-3.364-.306-4.634-.557-3.394-1.159-6.783-1.9-10.142a14.981,14.981,0,0,1-7.258.858c-2.02-.131-4.088-.616-6.1-.661-1.209-.027-1.114-.428-1.693.524-.321.527-.149,2.189-.207,2.8-.26,2.778-1.015,5.554-1.486,8.3-.207,1.207-.471,1.939-.124,2.581" transform="translate(-74.954 -104.049)" fill="#ffd9c9"/>
        <path id="Trazado_912521" data-name="Trazado 912521" d="M142.708,222.917l-4.695,7.135,5.536,7.132-2.768,6.113,12.231,24.911Z" transform="translate(-70.727 -114.237)" fill="#297524"/>
        <path id="Trazado_912522" data-name="Trazado 912522" d="M176.517,220.295l4.132,7.686-5.739,6.986,2.87,7.486-9,24.412Z" transform="translate(-86.493 -112.893)" fill="#297524"/>
        <path id="Trazado_912523" data-name="Trazado 912523" d="M165.842,209.283c-.373-2.089-.774-4.174-1.23-6.246a14.97,14.97,0,0,1-7.258.858c-2.02-.131-4.088-.616-6.1-.661-1.209-.027-1.114-.428-1.693.524-.321.526-.149,2.189-.207,2.8-.109,1.16-.305,2.319-.529,3.476,2.833,1.323,5.825,2.512,8.9,2.173a18.115,18.115,0,0,0,5.1-1.6q1.511-.65,3.012-1.322" transform="translate(-76.267 -104.049)" fill="#f0bfaa"/>
        <path id="Trazado_912524" data-name="Trazado 912524" d="M162.72,137.5c-.142,2.64-.567,5.284-.527,7.929a3.1,3.1,0,1,1-.481,6.177c-.55,3.28-.806,6.57-1.252,9.874a6.063,6.063,0,0,1-4.494,5.974q-3.289,1.525-6.619,2.959a18.1,18.1,0,0,1-5.1,1.6c-3.444.379-6.78-1.154-9.906-2.647-1.9-.91-3.884-1.882-5.137-3.579-1.535-2.077-1.692-4.832-1.79-7.414-.106-2.8-.109-5.7-.435-8.473a2.877,2.877,0,0,1-3.208.072,3.577,3.577,0,0,1-1.25-2.666,2.717,2.717,0,0,1,.464-1.824,2.48,2.48,0,0,1,.852-.662,3.84,3.84,0,0,1,3.106-.133c-.448-5.685-.837-10.62,5-13.54,3.033-1.513,6.516-1.817,9.9-1.9a88.124,88.124,0,0,1,13.837.754,11.677,11.677,0,0,1,5.384,1.711c1.544,1.114,1.751,3.888,1.648,5.788" transform="translate(-62.784 -66.222)" fill="#ffd9c9"/>
        <path id="Trazado_912525" data-name="Trazado 912525" d="M152.6,163.656a1.143,1.143,0,1,1-1.143-1.143,1.143,1.143,0,0,1,1.143,1.143" transform="translate(-77.03 -83.282)" fill="#231f20"/>
        <path id="Trazado_912526" data-name="Trazado 912526" d="M180.894,161.952a1.143,1.143,0,1,1-1.143-1.143,1.143,1.143,0,0,1,1.143,1.143" transform="translate(-91.529 -82.408)" fill="#231f20"/>
        <path id="Trazado_912527" data-name="Trazado 912527" d="M163.93,161.142a68.638,68.638,0,0,0-.76,8.685c-.085,1.494.562,3.688,2.5,2.855.492-.212.14-1.052-.367-.87-1.558.557-1.162-2.1-1.123-2.7q.087-1.313.17-2.626a47.548,47.548,0,0,0,.232-5.253c-.017-.356-.582-.476-.655-.089" transform="translate(-83.615 -82.456)" fill="#231f20"/>
        <path id="Trazado_912528" data-name="Trazado 912528" d="M152.732,190.735c3.348,3.383,9.132,3.77,13.356,2.087.5-.2.275-1.012-.223-.808a12.782,12.782,0,0,1-6.748.818,16.344,16.344,0,0,1-6.071-2.5.26.26,0,0,0-.314.407" transform="translate(-78.232 -97.517)" fill="#231f20"/>
        <path id="Trazado_912529" data-name="Trazado 912529" d="M127.143,126.154a16.111,16.111,0,0,0-.219,6.911,67.641,67.641,0,0,0,1.924,9.427c.492-.068.686-.665.764-1.156.483-3.071.922-6.152,1.389-9.225.18-1.184-.161-3.1,1.032-3.773.86-.486,1.944-.712,2.845-1.151a22.218,22.218,0,0,0,2.656-1.53.307.307,0,0,0,.165-.432c-.72-2.347-2.356-4.5-5.094-3.916a7.876,7.876,0,0,0-5.461,4.845" transform="translate(-64.908 -62.117)" fill="#d16f2a"/>
        <path id="Trazado_912530" data-name="Trazado 912530" d="M132.38,113.336c-.5,2.9,4.017,4.667,6.119,5.322a76.312,76.312,0,0,0,24.919,3.419,2.471,2.471,0,0,1,1.36.215c1.379.83.874,5.251,1.005,6.676q.431,4.661,1.04,9.3a11.425,11.425,0,0,0,1.476-4.049,58.18,58.18,0,0,0,1.26-10.67c.066-2.606.513-6.53-1.026-8.833a22.85,22.85,0,0,0-3.6-4.773c-3.333-2.914-9.611-2.928-13.791-2.866A39.87,39.87,0,0,0,134.9,110.71a4.31,4.31,0,0,0-2.281,1.868,3.113,3.113,0,0,0-.237.758" transform="translate(-67.82 -54.868)" fill="#db742c"/>
        <path id="Trazado_912531" data-name="Trazado 912531" d="M115.868,320.709a5.214,5.214,0,0,1,1.234.53c1.213.687,5.7,3.9,4.848,5.656-.581,1.2-3.572,1.685-4.711,1.8a23.108,23.108,0,0,1-5.224-.233q-2.171-.275-4.333-.605c-1.287-.195-2.776-.549-3.3-1.74a2.927,2.927,0,0,1-.116-1.7c.337-1.833,1.746-3.346,3.6-2.861,1.929.505,3.636.812,5.5-.216a5.655,5.655,0,0,1,1.35-.663,2.364,2.364,0,0,1,1.15.035" transform="translate(-53.396 -164.305)" fill="#ffd9c9"/>
        <path id="Trazado_912532" data-name="Trazado 912532" d="M198.76,320.709a5.214,5.214,0,0,0-1.234.53c-1.213.687-5.7,3.9-4.848,5.656.581,1.2,3.572,1.685,4.711,1.8a23.108,23.108,0,0,0,5.224-.233q2.171-.275,4.333-.605c1.287-.195,2.776-.549,3.3-1.74a2.927,2.927,0,0,0,.116-1.7c-.337-1.833-1.746-3.346-3.6-2.861-1.93.505-3.637.812-5.5-.216a5.655,5.655,0,0,0-1.35-.663,2.364,2.364,0,0,0-1.15.035" transform="translate(-98.685 -164.305)" fill="#ffd9c9"/>
        <rect id="Rectángulo_403251" data-name="Rectángulo 403251" width="15.909" height="3.182" transform="translate(72.957 141.12)" fill="#808285"/>
        <path id="Trazado_912533" data-name="Trazado 912533" d="M123.892,153.929a2.21,2.21,0,0,0-.959.779,3.28,3.28,0,0,0-.326,1.558,50.474,50.474,0,0,0,.154,6.311,3.5,3.5,0,0,0,.2,1.035,2.361,2.361,0,0,0,.938,1.024,6.222,6.222,0,0,0,3.371,1.072.556.556,0,0,0,.412-.115.945.945,0,0,0,.176-.656q.094-5.1-.014-10.2c-.069-3.245-2.3-1.647-3.953-.808" transform="translate(-62.812 -78.298)" fill="#231f20"/>
        <path id="Trazado_912534" data-name="Trazado 912534" d="M207.582,153.929a2.21,2.21,0,0,1,.959.779,3.28,3.28,0,0,1,.326,1.558,50.477,50.477,0,0,1-.154,6.311,3.494,3.494,0,0,1-.2,1.035,2.361,2.361,0,0,1-.939,1.024,6.222,6.222,0,0,1-3.371,1.072.556.556,0,0,1-.412-.115.944.944,0,0,1-.176-.656q-.094-5.1.014-10.2c.069-3.245,2.3-1.647,3.953-.808" transform="translate(-104.322 -78.298)" fill="#231f20"/>
        <path id="Trazado_912535" data-name="Trazado 912535" d="M129.508,176.147c.055,1.968.292,3.926.511,5.88.151,1.346.244,2.61,1.3,3.577a17.264,17.264,0,0,0,4,2.379,38.749,38.749,0,0,0,5.026,2.082c.385.129.548-.476.167-.606-2.863-.978-6.118-2.158-8.5-4.088-1.408-1.14-1.262-3.1-1.42-4.755-.145-1.517-.308-3.035-.576-4.536-.051-.283-.506-.215-.5.067" transform="translate(-66.368 -90.141)" fill="#231f20"/>
        <path id="Trazado_912536" data-name="Trazado 912536" d="M150.805,200.539a4.243,4.243,0,0,1,2.117.616,2.338,2.338,0,0,1,1.1.87,1.42,1.42,0,0,1-.333,1.639,2.189,2.189,0,0,1-1.666.523,4.979,4.979,0,0,1-1.712-.515,2.267,2.267,0,0,1-1.034-.773c-.619-1,.552-2.293,1.531-2.36" transform="translate(-76.409 -102.766)" fill="#231f20"/>
        <path id="Trazado_912537" data-name="Trazado 912537" d="M176.393,149.86a5.145,5.145,0,0,1,3.568.531c1.379.748,2.611-1.356,1.23-2.1a7.8,7.8,0,0,0-5.446-.777c-1.534.324-.885,2.675.648,2.35" transform="translate(-89.614 -75.5)" fill="#db742c"/>
        <path id="Trazado_912538" data-name="Trazado 912538" d="M147.007,151.249a6.153,6.153,0,0,1,4.11-1.19c1.566.1,1.561-2.342,0-2.438a8.294,8.294,0,0,0-5.34,1.523c-1.265.9-.049,3.019,1.231,2.1" transform="translate(-74.431 -75.642)" fill="#db742c"/>
        <path id="Trazado_912539" data-name="Trazado 912539" d="M126.178,123.649c-3.564-10.892-.632-22.75,10.113-28.147,8.723-4.382,20.191-2.78,25.643,5.861,4.209,6.673,4.008,15.162,2.649,22.644-.139.767,1.035,1.1,1.175.324,2.186-12.035.364-27.4-13.208-31.554-9.927-3.036-21.518,1.758-26.5,10.831-3.459,6.3-3.236,13.68-1.05,20.365.243.742,1.421.424,1.176-.324" transform="translate(-63.237 -47.078)" fill="#231f20"/>
        <path id="Trazado_912540" data-name="Trazado 912540" d="M182.871,174.774a1.637,1.637,0,0,0,1.548,2.075,1.571,1.571,0,0,0,1.517-2.1,1.758,1.758,0,0,0-2.566-.94,1.91,1.91,0,0,0-.485,2.65,1.254,1.254,0,0,0,1.668.437c1.731-.927,1.118-3.886-.908-3.889a2.086,2.086,0,0,0-.651,4.022,3.349,3.349,0,0,0,2.749-.291,1.876,1.876,0,0,0,.574-2.613,3.115,3.115,0,0,0-2.463-1.113,2.69,2.69,0,0,0-2.769,1.252c-1.326,2.464,2.312,3.653,4.069,2.849a2.4,2.4,0,0,0-.3-4.545c-1.876-.466-4.563,1.405-4.049,3.482a2.571,2.571,0,0,0,4.657.69c1.347-1.967-.382-4.907-2.808-4.338a2.509,2.509,0,0,0-1.99,2.368,2.483,2.483,0,0,0,1.89,2.417c1.529.33,2.183-2.02.648-2.35-.338-.073.028-.033-.11.014.015-.005.068-.1.155-.085.279.053.336.441.178.643-.09.114-.338.212-.185.147-.126.053.046-.232-.07.012a1.768,1.768,0,0,1,.728-.561,1.4,1.4,0,0,1,.421-.077c.161-.224-.192-.015-.185-.016a4.893,4.893,0,0,1-.836-.029.319.319,0,0,1-.2-.071q-.28-.222.132.6l-.07.053a.283.283,0,0,1,.156-.038,8.173,8.173,0,0,0,.945.1c.28,0,.081.255.053-.159,0,.039-.528-1.083.152-.685a1.805,1.805,0,0,1-.329.066c-.323.022-.24-.115-.14.172.329.944-1.407.261-.67-.134l1.668.437a.9.9,0,0,0-.4.7h-.648l-.362-.762.313-.538-.094.091.538-.313.732.306.166.615c-.005.029-.011.059-.017.088.519-1.484-1.835-2.122-2.35-.648" transform="translate(-92.581 -88.315)" fill="#f0bfaa"/>
        <path id="Trazado_912541" data-name="Trazado 912541" d="M144.275,178q-.02-.516-.04-1.032a1.24,1.24,0,0,0-.9-1.175c-.985-.19-2.172-.128-2.5,1.013a2.576,2.576,0,0,0,.479,2.349,2.042,2.042,0,0,0,3.55-.836c.543-2.051-2.2-2.942-3.7-2.153a2.008,2.008,0,0,0,.379,3.747,2.138,2.138,0,0,0,2.353-3.091,2.619,2.619,0,0,0-4.171-.534,2.369,2.369,0,0,0,1.061,4.054c1.573.373,3.533-.7,3.543-2.46.011-1.85-2.4-3.412-3.832-1.841a2.134,2.134,0,0,0,1.449,3.546,1.22,1.22,0,0,0,0-2.438c.23,0,.34.178.459.321q0,.2,0-.027l-.013.091a1.586,1.586,0,0,1-.489.348c0,.01,0,.01-.009,0q.1-.3-.038-.017a1.5,1.5,0,0,0-.159.084c-.023.01-.328.03-.338.035-.1.052.047-.087-.028.029-.039.059.428-.144.378-.108.132-.1.078-.453.425-.36.153.041.163.122.219.282a.362.362,0,0,1,0,.456q-.163.072,0,.025a4.651,4.651,0,0,0,.812.221l-.538-.313a.522.522,0,0,1-.038-.639c.179-.168.372.019.519-.04.016-.006.056.028.068.024-.065.019.059-.216.072-.248l-.851.851a.7.7,0,0,1,.3-.02l-.895-1.175q.02.516.04,1.032c.061,1.564,2.5,1.571,2.438,0" transform="translate(-71.214 -89.881)" fill="#f0bfaa"/>
        <path id="Trazado_912542" data-name="Trazado 912542" d="M157.426,273.177H109.642c-3.35,0-6.091-2.3-6.122-5.146l-.316-29.179a2.12,2.12,0,0,1,2.279-1.951H160.8a2.175,2.175,0,0,1,2.321,1.951l.316,29.179c.031,2.842-2.66,5.146-6.01,5.146" transform="translate(-52.888 -121.403)" fill="#fff"/>
        <path id="Trazado_912543" data-name="Trazado 912543" d="M165.072,295.572H151.637l3.043-31.777h7.349Z" transform="translate(-77.708 -135.185)" fill="#d1d3d4"/>
        <path id="Trazado_912544" data-name="Trazado 912544" d="M0,0H78.211V3.482H0Z" transform="translate(42.133 163.019)" fill="#692cb7"/>
        <rect id="Rectángulo_403253" data-name="Rectángulo 403253" width="22.786" height="4.751" transform="translate(69.295 158.253)" fill="#454647"/>
      </g>
    </g>
  </g>
</svg>
