<svg xmlns="http://www.w3.org/2000/svg" xmlns:xlink="http://www.w3.org/1999/xlink" width="295.051" height="187" viewBox="0 0 295.051 187">
  <defs>
    <clipPath id="clip-path">
      <rect id="Rectángulo_401573" data-name="Rectángulo 401573" width="28.836" height="187" fill="none"/>
    </clipPath>
    <clipPath id="clip-path-2">
      <rect id="Rectángulo_401572" data-name="Rectángulo 401572" width="72.283" height="288.895" fill="none"/>
    </clipPath>
  </defs>
  <g id="Grupo_1101619" data-name="Grupo 1101619" transform="translate(-1125 -1625)">
    <rect id="Rectángulo_403290" data-name="Rectángulo 403290" width="295" height="187" transform="translate(1125.051 1625)" fill="#c6e9f3"/>
    <g id="Grupo_1101614" data-name="Grupo 1101614" transform="translate(1210 1655.633)">
      <g id="Grupo_1101611" data-name="Grupo 1101611" transform="translate(1.828 2.141)">
        <g id="Grupo_1101610" data-name="Grupo 1101610" transform="translate(0 0)">
          <g id="Grupo_1101602" data-name="Grupo 1101602">
            <g id="Grupo_1101590" data-name="Grupo 1101590" transform="translate(79.764)">
              <path id="Trazado_912597" data-name="Trazado 912597" d="M370.8,7.812H340.052a5.316,5.316,0,0,0-5.316,5.316V28.506a5.316,5.316,0,0,0,5.316,5.316,3.1,3.1,0,0,1,3.1,3.1v9.51a1.19,1.19,0,0,0,2.211.612L352.4,35.331a3.105,3.105,0,0,1,2.663-1.508H370.8a5.316,5.316,0,0,0,5.316-5.316V13.129A5.316,5.316,0,0,0,370.8,7.812Z" transform="translate(-334.736 -7.812)" fill="#b3e59f"/>
              <path id="Trazado_912598" data-name="Trazado 912598" d="M387.294,7.812H371.369a5.316,5.316,0,0,1,5.316,5.316V28.506a5.316,5.316,0,0,1-5.316,5.316H356.547a3.1,3.1,0,0,1,3.1,3.1v9.51a1.19,1.19,0,0,0,2.211.612L368.89,35.33a3.105,3.105,0,0,1,2.663-1.508h15.741a5.316,5.316,0,0,0,5.316-5.316V13.129a5.317,5.317,0,0,0-5.316-5.317Z" transform="translate(-351.231 -7.812)" fill="#95d6a4"/>
            </g>
            <g id="Grupo_1101601" data-name="Grupo 1101601" transform="translate(0 54.536)">
              <g id="Grupo_1101600" data-name="Grupo 1101600">
                <g id="Grupo_1101599" data-name="Grupo 1101599">
                  <g id="Grupo_1101594" data-name="Grupo 1101594" transform="translate(32.604)">
                    <g id="Grupo_1101593" data-name="Grupo 1101593">
                      <g id="Grupo_1101592" data-name="Grupo 1101592">
                        <g id="Grupo_1101591" data-name="Grupo 1101591">
                          <path id="Trazado_912599" data-name="Trazado 912599" d="M170.248,251.4a5.324,5.324,0,0,1-4.318-5.228V231.551H145.579v14.621a5.335,5.335,0,0,1-4.318,5.227S171.624,251.665,170.248,251.4Z" transform="translate(-141.261 -231.551)" fill="#ffddce"/>
                        </g>
                      </g>
                    </g>
                  </g>
                  <g id="Grupo_1101598" data-name="Grupo 1101598" transform="translate(1.463 20.811)">
                    <g id="Grupo_1101597" data-name="Grupo 1101597">
                      <g id="Grupo_1101596" data-name="Grupo 1101596">
                        <g id="Grupo_1101595" data-name="Grupo 1101595">
                          <path id="Trazado_912600" data-name="Trazado 912600" d="M79.272,317.053c-1.449-.279-40.273,0-40.273,0a31.44,31.44,0,0,0-25.5,30.874V358.3a4.259,4.259,0,0,0,4.259,4.259h82.753a4.259,4.259,0,0,0,4.259-4.259V347.927A31.44,31.44,0,0,0,79.272,317.053Z" transform="translate(-13.501 -316.93)" fill="#ffd064"/>
                        </g>
                      </g>
                    </g>
                  </g>
                  <path id="Trazado_912601" data-name="Trazado 912601" d="M116.521,352.925H42.264l-1.969-36.287a5.612,5.612,0,0,1,5.6-5.916h66.989a5.612,5.612,0,0,1,5.6,5.916Z" transform="translate(-32.295 -291.424)" fill="#eaf2ff"/>
                  <path id="Trazado_912602" data-name="Trazado 912602" d="M288.728,310.722H272.8a5.612,5.612,0,0,1,5.6,5.916l-1.97,36.287h15.925l1.97-36.287A5.611,5.611,0,0,0,288.728,310.722Z" transform="translate(-208.136 -291.424)" fill="#dbe8f9"/>
                  <path id="Trazado_912603" data-name="Trazado 912603" d="M97.765,471.934H11.431a3.931,3.931,0,0,0,0,7.862H97.765a3.931,3.931,0,0,0,0-7.862Z" transform="translate(-7.5 -413.341)" fill="#9bc4f9"/>
                  <path id="Trazado_912604" data-name="Trazado 912604" d="M328.053,471.934H315.944v3.931a3.931,3.931,0,0,1-3.931,3.931h16.04a3.931,3.931,0,0,0,0-7.862Z" transform="translate(-237.788 -413.341)" fill="#7fb2f9"/>
                </g>
              </g>
              <path id="Trazado_912605" data-name="Trazado 912605" d="M171.034,391.2a13.026,13.026,0,0,1,3.362-8.713l.048-.054a11.152,11.152,0,0,0-2.816-17.128.959.959,0,0,0-1.435.83v8.295a2.517,2.517,0,0,1-2.517,2.517h-3.095a2.517,2.517,0,0,1-2.517-2.517v-8.295a.959.959,0,0,0-1.435-.83,11.151,11.151,0,0,0-2.815,17.128l.048.054a13.026,13.026,0,0,1,3.362,8.713Z" transform="translate(-119.031 -332.606)" fill="#7fb2f9"/>
            </g>
          </g>
          <g id="Grupo_1101609" data-name="Grupo 1101609" transform="translate(19.08 6.857)">
            <g id="Grupo_1101608" data-name="Grupo 1101608">
              <g id="Grupo_1101607" data-name="Grupo 1101607">
                <g id="Grupo_1101606" data-name="Grupo 1101606">
                  <path id="Trazado_912606" data-name="Trazado 912606" d="M144.674,74.69l-1.36.006-.023-5.48c-.048-11.482-9.523-19.437-20.028-19.511-10.46.163-19.913,8.155-19.865,19.681l.016,3.864.007,1.617-1.36.006a3.633,3.633,0,0,0-3.595,3.669l.017,4.049a3.632,3.632,0,0,0,3.625,3.639l1.365-.006a18.881,18.881,0,0,0,6.349,13.847,20.243,20.243,0,0,0,27.3-.117,18.885,18.885,0,0,0,6.234-13.9l1.365-.006a3.633,3.633,0,0,0,3.595-3.669l-.017-4.049a3.632,3.632,0,0,0-3.625-3.639Z" transform="translate(-95.373 -46.351)" fill="#ffddce"/>
                  <path id="Trazado_912607" data-name="Trazado 912607" d="M208.317,81.383a3.632,3.632,0,0,0-3.625-3.639l-1.36.006-.023-5.48a19.384,19.384,0,0,0-13.84-18.526,19.156,19.156,0,0,1,2.644,9.751l.065,25.613a18.885,18.885,0,0,1-6.234,13.9,21.344,21.344,0,0,1-8.115,4.533,20.048,20.048,0,0,0,19.312-4.532,18.885,18.885,0,0,0,6.234-13.9l1.365-.006a3.633,3.633,0,0,0,3.595-3.669Z" transform="translate(-155.391 -49.405)" fill="#ffcbbe"/>
                  <g id="Grupo_1101605" data-name="Grupo 1101605" transform="translate(0 25.039)">
                    <g id="Grupo_1101603" data-name="Grupo 1101603" transform="translate(47.969)">
                      <path id="Trazado_912608" data-name="Trazado 912608" d="M282.575,138.669V153.74h4a4.064,4.064,0,0,0,4.064-4.064v-6.944a4.064,4.064,0,0,0-4.064-4.064Z" transform="translate(-282.575 -138.669)" fill="#9bc4f9"/>
                    </g>
                    <g id="Grupo_1101604" data-name="Grupo 1101604">
                      <path id="Trazado_912609" data-name="Trazado 912609" d="M93.844,138.669V153.74h-4a4.064,4.064,0,0,1-4.064-4.064v-6.944a4.064,4.064,0,0,1,4.064-4.064Z" transform="translate(-85.778 -138.669)" fill="#9bc4f9"/>
                    </g>
                  </g>
                  <path id="Trazado_912610" data-name="Trazado 912610" d="M142.72,44.08h-.205a2.054,2.054,0,0,1-2.054-2.054,6.083,6.083,0,0,0-6.083-6.083H115.017a15.6,15.6,0,0,0-15.6,15.6v10.31a3.559,3.559,0,0,0,2.388,3.361l3.843,1.338a2.065,2.065,0,0,0,2.744-1.953l-.008-7.27a6.364,6.364,0,0,1,6.3-6.429h.076a10.1,10.1,0,0,1,3.137.486,17.826,17.826,0,0,0,5.524.916H124.8a17.818,17.818,0,0,0,5.524-.916,10.11,10.11,0,0,1,3.137-.486h.076a6.364,6.364,0,0,1,6.3,6.429l-.007,7.271a2.065,2.065,0,0,0,2.744,1.953l3.842-1.338a3.559,3.559,0,0,0,2.388-3.361V50.163a6.083,6.083,0,0,0-6.083-6.083Z" transform="translate(-96.092 -35.943)" fill="#756e78"/>
                  <path id="Trazado_912611" data-name="Trazado 912611" d="M227.236,44.08h-.205a2.054,2.054,0,0,1-2.054-2.054,6.083,6.083,0,0,0-6.083-6.083h-7.721a19.013,19.013,0,0,1,6.156,14.09l0,.887c.215-.013.431-.021.647-.02h.076a6.364,6.364,0,0,1,6.3,6.429l-.007,7.271a2.065,2.065,0,0,0,2.744,1.953l3.842-1.338a3.559,3.559,0,0,0,2.388-3.361V50.163a6.083,6.083,0,0,0-6.083-6.083Z" transform="translate(-180.608 -35.943)" fill="#665e66"/>
                  <path id="Trazado_912612" data-name="Trazado 912612" d="M233.255,226.409h-4.588a3.169,3.169,0,1,1,0-6.339h4.588a3.169,3.169,0,1,1,0,6.339Z" transform="translate(-191.441 -175.189)" fill="#db636e"/>
                </g>
              </g>
            </g>
          </g>
        </g>
      </g>
      <g id="Grupo_1101613" data-name="Grupo 1101613" transform="translate(0 0.313)">
        <g id="Grupo_1101612" data-name="Grupo 1101612" transform="translate(0 0)">
          <path id="Trazado_912613" data-name="Trazado 912613" d="M415.757,37.252H399.806a1.828,1.828,0,0,0,0,3.656h15.951a1.828,1.828,0,1,0,0-3.656Z" transform="translate(-300.971 -28.248)"/>
          <path id="Trazado_912614" data-name="Trazado 912614" d="M362.644,40.908h1.944a1.828,1.828,0,1,0,0-3.656h-1.944a1.828,1.828,0,1,0,0,3.656Z" transform="translate(-272.867 -28.248)"/>
          <path id="Trazado_912615" data-name="Trazado 912615" d="M362.644,76.14h25.01a1.828,1.828,0,1,0,0-3.656h-25.01a1.828,1.828,0,1,0,0,3.656Z" transform="translate(-272.867 -54.892)"/>
          <path id="Trazado_912616" data-name="Trazado 912616" d="M96.389,129.758A33.389,33.389,0,0,0,89.51,109.5l.339-6.241a7.435,7.435,0,0,0-7.429-7.843H62.409A3.487,3.487,0,0,1,60.93,92.57v-5.1a20.713,20.713,0,0,0,6.881-7.018h3.538a7.431,7.431,0,0,0,7.422-7.422V59.372a5.889,5.889,0,0,0-3.324-5.3V44.489a7.92,7.92,0,0,0-7.911-7.911h-.2a.227.227,0,0,1-.226-.226,7.92,7.92,0,0,0-7.911-7.911H39.833A17.449,17.449,0,0,0,22.4,45.87v8.2a5.889,5.889,0,0,0-3.324,5.3v6.943a5.9,5.9,0,0,0,5.892,5.892h2.36a20.531,20.531,0,0,0,6.831,13.165,25.071,25.071,0,0,0,2.759,2.072V92.57a3.491,3.491,0,0,1-1.485,2.848h-20A7.435,7.435,0,0,0,8,103.261l.339,6.241a33.389,33.389,0,0,0-6.879,20.255v6.886a5.755,5.755,0,0,0,4.3,9.589H92.093a5.755,5.755,0,0,0,4.3-9.588Zm-3.656,0v4.993a5.782,5.782,0,0,0-.64-.036H88.142l1.032-19.01A29.705,29.705,0,0,1,92.733,129.758ZM74.928,58.48a2.224,2.224,0,0,1,.188.893v6.943a2.238,2.238,0,0,1-2.235,2.235H70.706V61.66l1.127-.392A5.386,5.386,0,0,0,74.928,58.48ZM62.722,79.661H58.134a1.341,1.341,0,1,1,0-2.682h4.588a1.341,1.341,0,1,1,0,2.682Zm8.627-2.869H69.5a21.517,21.517,0,0,0,1.058-4.584H72.88a5.859,5.859,0,0,0,2.235-.442v1.26A3.77,3.77,0,0,1,71.349,76.792ZM26.061,45.871A13.789,13.789,0,0,1,39.833,32.1H59.194a4.26,4.26,0,0,1,4.255,4.255,3.887,3.887,0,0,0,3.882,3.882h.2a4.26,4.26,0,0,1,4.255,4.255V56.181a1.732,1.732,0,0,1-1.161,1.634l-3.842,1.338a.235.235,0,0,1-.314-.224l.007-7.265c.022-5.3-4.942-9.926-11.9-7.692a19.432,19.432,0,0,1-11.314,0c-6.883-2.212-11.92,2.33-11.9,7.686l.009,7.271a.235.235,0,0,1-.314.224l-3.843-1.338a1.732,1.732,0,0,1-1.161-1.634V45.871ZM22.736,66.316V59.373a2.225,2.225,0,0,1,.188-.893,5.386,5.386,0,0,0,3.1,2.788l1.126.392v6.892H24.972A2.238,2.238,0,0,1,22.736,66.316Zm8.1,3.78c-.061-2.4-.023-4.954-.034-7.29.113.01.225.015.338.015a3.893,3.893,0,0,0,3.895-3.9l-.009-7.275c-.012-2.968,2.65-5.633,7.123-4.2a23.014,23.014,0,0,0,13.551,0c4.261-1.369,7.136,1.041,7.123,4.2l-.007,7.27a3.892,3.892,0,0,0,4.232,3.882v7.438a18.032,18.032,0,0,1-.754,4.588,4.98,4.98,0,0,0-3.573-1.51H58.134a5,5,0,1,0,0,9.995h2.323A18.708,18.708,0,0,1,49.022,87.4C39.792,87.323,31.1,80.5,30.836,70.1ZM40.578,92.57v-3.2a22.283,22.283,0,0,0,8.439,1.682h.041a22.307,22.307,0,0,0,8.216-1.667V92.57a7.133,7.133,0,0,0,.594,2.848H39.982a7.116,7.116,0,0,0,.6-2.848ZM8.678,115.7l.289,5.319a1.828,1.828,0,1,0,3.651-.2l-.964-17.761a3.781,3.781,0,0,1,3.778-3.988H82.42a3.781,3.781,0,0,1,3.778,3.988l-1.718,31.651H55.814a11.228,11.228,0,0,1,2.738-5.662l.052-.058a12.989,12.989,0,0,0-3.275-19.936,2.788,2.788,0,0,0-4.166,2.419v8.295a.69.69,0,0,1-.69.689H47.379a.69.69,0,0,1-.69-.689v-8.295a2.788,2.788,0,0,0-4.166-2.419A12.988,12.988,0,0,0,39.253,129l.047.052a11.226,11.226,0,0,1,2.738,5.661H13.371l-.293-5.4a1.828,1.828,0,1,0-3.651.2l.283,5.207H5.759a5.842,5.842,0,0,0-.64.036v-4.993A29.709,29.709,0,0,1,8.678,115.7Zm37.054,19.01a14.863,14.863,0,0,0-3.714-8.107l-.044-.049a9.324,9.324,0,0,1,1.06-13.431v6.646a4.351,4.351,0,0,0,4.346,4.346h3.095a4.351,4.351,0,0,0,4.346-4.346v-6.646a9.325,9.325,0,0,1,1.055,13.436l-.039.044a14.863,14.863,0,0,0-3.715,8.108Zm46.361,7.862H5.759a2.1,2.1,0,1,1,0-4.205H92.093a2.1,2.1,0,1,1,0,4.205Z" transform="translate(0 -21.585)"/>
          <path id="Trazado_912617" data-name="Trazado 912617" d="M370.443,12.824A1.828,1.828,0,0,0,372.271,11V7.458A7.153,7.153,0,0,0,365.127.313H334.38a7.153,7.153,0,0,0-7.145,7.145V22.835a7.153,7.153,0,0,0,7.145,7.145,1.278,1.278,0,0,1,1.277,1.277v9.51a3.018,3.018,0,0,0,5.607,1.552L348.291,30.6a1.284,1.284,0,0,1,1.1-.62h15.741a7.153,7.153,0,0,0,7.145-7.145V19.543a1.828,1.828,0,1,0-3.656,0v3.293a3.492,3.492,0,0,1-3.489,3.489H349.386a4.958,4.958,0,0,0-4.231,2.4l-5.842,9.743V31.257a4.939,4.939,0,0,0-4.933-4.933,3.492,3.492,0,0,1-3.489-3.489V7.458a3.492,3.492,0,0,1,3.489-3.488h30.747a3.492,3.492,0,0,1,3.489,3.488V11a1.828,1.828,0,0,0,1.828,1.828Z" transform="translate(-247.472 -0.313)"/>
        </g>
      </g>
    </g>
    <g id="Grupo_1099687" data-name="Grupo 1099687" transform="translate(1125 1625)" clip-path="url(#clip-path)">
      <g id="Grupo_1099686" data-name="Grupo 1099686" transform="translate(-6.669 -60.656)" opacity="0.45" style="mix-blend-mode: multiply;isolation: isolate">
        <g id="Grupo_1099685" data-name="Grupo 1099685">
          <g id="Grupo_1099684" data-name="Grupo 1099684" clip-path="url(#clip-path-2)">
            <path id="Trazado_873516" data-name="Trazado 873516" d="M1.406,28.926,94.2.2,92.868,6.563.074,35.291Z" transform="matrix(0.898, -0.44, 0.44, 0.898, -13.994, 221.246)" fill="#2d0464"/>
            <path id="Trazado_912618" data-name="Trazado 912618" d="M1.406,28.926,94.2.2,92.868,6.563.074,35.291Z" transform="matrix(0.898, -0.44, 0.44, 0.898, -13.994, 239.72)" fill="#2d0464"/>
            <path id="Trazado_873517" data-name="Trazado 873517" d="M1.406,28.926,94.2.2,92.868,6.563.074,35.291Z" transform="matrix(0.898, -0.44, 0.44, 0.898, -13.994, 203.25)" fill="#2d0464"/>
            <path id="Trazado_873518" data-name="Trazado 873518" d="M1.406,28.926,94.2.2,92.868,6.563.074,35.291Z" transform="matrix(0.898, -0.44, 0.44, 0.898, -13.994, 185.254)" fill="#2d0464"/>
            <path id="Trazado_873519" data-name="Trazado 873519" d="M1.406,28.926,94.2.2,92.868,6.563.074,35.291Z" transform="matrix(0.898, -0.44, 0.44, 0.898, -13.994, 167.258)" fill="#2d0464"/>
            <path id="Trazado_873520" data-name="Trazado 873520" d="M1.406,28.926,94.2.2,92.868,6.563.074,35.291Z" transform="matrix(0.898, -0.44, 0.44, 0.898, -13.994, 149.261)" fill="#2d0464"/>
            <path id="Trazado_873521" data-name="Trazado 873521" d="M1.406,28.926,94.2.2,92.868,6.563.074,35.291Z" transform="matrix(0.898, -0.44, 0.44, 0.898, -13.994, 131.265)" fill="#2d0464"/>
            <path id="Trazado_873522" data-name="Trazado 873522" d="M1.406,28.926,94.2.2,92.868,6.563.074,35.291Z" transform="matrix(0.898, -0.44, 0.44, 0.898, -13.994, 113.269)" fill="#2d0464"/>
            <path id="Trazado_873523" data-name="Trazado 873523" d="M1.406,28.926,94.2.2,92.868,6.563.074,35.291Z" transform="matrix(0.898, -0.44, 0.44, 0.898, -13.994, 95.273)" fill="#2d0464"/>
            <path id="Trazado_873524" data-name="Trazado 873524" d="M1.406,28.926,94.2.2,92.868,6.563.074,35.291Z" transform="matrix(0.898, -0.44, 0.44, 0.898, -13.994, 77.277)" fill="#2d0464"/>
            <path id="Trazado_873525" data-name="Trazado 873525" d="M1.406,28.926,94.2.2,92.868,6.563.074,35.291Z" transform="matrix(0.898, -0.44, 0.44, 0.898, -13.994, 59.28)" fill="#2d0464"/>
            <path id="Trazado_873526" data-name="Trazado 873526" d="M1.406,28.926,94.2.2,92.868,6.563.074,35.291Z" transform="translate(-13.994 41.284) rotate(-26.114)" fill="#2d0464"/>
          </g>
        </g>
      </g>
    </g>
  </g>
</svg>
