<svg xmlns="http://www.w3.org/2000/svg" xmlns:xlink="http://www.w3.org/1999/xlink" width="190" height="187.001" viewBox="0 0 190 187.001">
  <defs>
    <clipPath id="clip-path">
      <rect id="Rectángulo_401573" data-name="Rectángulo 401573" width="28.836" height="183.333" fill="none"/>
    </clipPath>
    <clipPath id="clip-path-2">
      <rect id="Rectángulo_401572" data-name="Rectángulo 401572" width="72.283" height="432.955" fill="none"/>
    </clipPath>
    <clipPath id="clip-path-3">
      <rect id="Rectángulo_401571" data-name="Rectángulo 401571" width="101" height="101" transform="translate(239 868)" fill="#fff" stroke="#707070" stroke-width="1"/>
    </clipPath>
    <clipPath id="clip-path-4">
      <path id="path3051" d="M0-101H101V0H0Z"/>
    </clipPath>
  </defs>
  <g id="Grupo_1101553" data-name="Grupo 1101553" transform="translate(-180 -825.999)">
    <g id="Grupo_1099688" data-name="Grupo 1099688" transform="translate(180 825.999)">
      <g id="Grupo_1099687" data-name="Grupo 1099687" clip-path="url(#clip-path)">
        <g id="Grupo_1099686" data-name="Grupo 1099686" transform="translate(-6.669 -90.903)" opacity="0.45" style="mix-blend-mode: multiply;isolation: isolate">
          <g id="Grupo_1099685" data-name="Grupo 1099685">
            <g id="Grupo_1099684" data-name="Grupo 1099684" clip-path="url(#clip-path-2)">
              <path id="Trazado_873516" data-name="Trazado 873516" d="M1.431,56.367,108.851-2.2l-2.715,9.186L-1.284,65.554Z" transform="matrix(0.898, -0.44, 0.44, 0.898, -26.095, 319.587)" fill="#2d0464"/>
              <path id="Trazado_873517" data-name="Trazado 873517" d="M1.431,56.367,108.851-2.2l-2.715,9.186L-1.284,65.554Z" transform="matrix(0.898, -0.44, 0.44, 0.898, -26.095, 292.616)" fill="#2d0464"/>
              <path id="Trazado_873518" data-name="Trazado 873518" d="M1.431,56.367,108.851-2.2l-2.715,9.186L-1.284,65.554Z" transform="matrix(0.898, -0.44, 0.44, 0.898, -26.095, 265.646)" fill="#2d0464"/>
              <path id="Trazado_873519" data-name="Trazado 873519" d="M1.431,56.367,108.851-2.2l-2.715,9.186L-1.284,65.554Z" transform="matrix(0.898, -0.44, 0.44, 0.898, -26.095, 238.676)" fill="#2d0464"/>
              <path id="Trazado_873520" data-name="Trazado 873520" d="M1.431,56.367,108.851-2.2l-2.715,9.186L-1.284,65.554Z" transform="matrix(0.898, -0.44, 0.44, 0.898, -26.095, 211.706)" fill="#2d0464"/>
              <path id="Trazado_873521" data-name="Trazado 873521" d="M1.431,56.367,108.851-2.2l-2.715,9.186L-1.284,65.554Z" transform="matrix(0.898, -0.44, 0.44, 0.898, -26.095, 184.735)" fill="#2d0464"/>
              <path id="Trazado_873522" data-name="Trazado 873522" d="M1.431,56.367,108.851-2.2l-2.715,9.186L-1.284,65.554Z" transform="matrix(0.898, -0.44, 0.44, 0.898, -26.095, 157.765)" fill="#2d0464"/>
              <path id="Trazado_873523" data-name="Trazado 873523" d="M1.431,56.367,108.851-2.2l-2.715,9.186L-1.284,65.554Z" transform="matrix(0.898, -0.44, 0.44, 0.898, -26.095, 130.796)" fill="#2d0464"/>
              <path id="Trazado_873524" data-name="Trazado 873524" d="M1.431,56.367,108.851-2.2l-2.715,9.186L-1.284,65.554Z" transform="matrix(0.898, -0.44, 0.44, 0.898, -26.095, 103.826)" fill="#2d0464"/>
              <path id="Trazado_873525" data-name="Trazado 873525" d="M1.431,56.367,108.851-2.2l-2.715,9.186L-1.284,65.554Z" transform="matrix(0.898, -0.44, 0.44, 0.898, -26.095, 76.855)" fill="#2d0464"/>
              <path id="Trazado_873526" data-name="Trazado 873526" d="M1.431,56.367,108.851-2.2l-2.715,9.186L-1.284,65.554Z" transform="translate(-26.095 49.885) rotate(-26.114)" fill="#2d0464"/>
            </g>
          </g>
        </g>
      </g>
      <rect id="Rectángulo_401574" data-name="Rectángulo 401574" width="161" height="187" transform="translate(29 0.001)" fill="#efe8f7"/>
    </g>
    <g id="Enmascarar_grupo_1098667" data-name="Enmascarar grupo 1098667" clip-path="url(#clip-path-3)">
      <g id="g3045" transform="translate(239 969)">
        <g id="g3047">
          <g id="g3049" clip-path="url(#clip-path-4)">
            <g id="g3055" transform="translate(63.54 -99.521)">
              <path id="path3057" d="M0,0H-42.338A3.961,3.961,0,0,0-46.3,3.961v47.93a3.961,3.961,0,0,0,3.961,3.961H0a3.96,3.96,0,0,0,3.749-2.689H6.489V2.86H3.8A3.96,3.96,0,0,0,0,0" fill="#3ba935"/>
            </g>
            <g id="g3059" transform="translate(69.132 -99.521)">
              <path id="path3061" d="M0,0H-5.592A3.961,3.961,0,0,1-1.631,3.961v47.93a3.961,3.961,0,0,1-3.961,3.961H0a3.961,3.961,0,0,0,3.961-3.961V3.961A3.961,3.961,0,0,0,0,0" fill="#297524"/>
            </g>
            <g id="g3063" transform="translate(33.607 -89.361)">
              <path id="path3065" d="M0,0-1.739-2.3H-7.331a3.961,3.961,0,0,0-3.961,3.961V45.693H35.524a3.961,3.961,0,0,0,3.961-3.961V0Z" fill="#297524"/>
            </g>
            <g id="g3067" transform="translate(81.328 -87.699)">
              <path id="path3069" d="M0,0H-3.16A3.961,3.961,0,0,0-7.121-3.961H-49.459A3.961,3.961,0,0,0-53.421,0V47.93a3.961,3.961,0,0,0,3.961,3.961H-7.121a3.957,3.957,0,0,0,3.553-2.22H0Z" fill="#ebf6ea"/>
            </g>
            <g id="g3071" transform="translate(79.799 -91.661)">
              <path id="path3073" d="M0,0H-5.592A3.961,3.961,0,0,1-1.631,3.961v47.93a3.961,3.961,0,0,1-3.961,3.961H0a3.961,3.961,0,0,0,3.961-3.961V3.961A3.961,3.961,0,0,0,0,0" fill="#d7eed6"/>
            </g>
            <g id="g3075" transform="translate(90.462 -48.677)">
              <path id="path3077" d="M0,0A3.961,3.961,0,0,0-3.961-3.961H-54.749l-4.48-8.226H-61.95a2.97,2.97,0,0,0-2.632-1.594H-82.544a2.971,2.971,0,0,0-2.971,2.971V43.236A3.961,3.961,0,0,0-81.554,47.2H-3.961A3.961,3.961,0,0,0,0,43.236H2.713V0Z" fill="#fac22d"/>
            </g>
            <g id="g3079" transform="translate(28.512 -60.864)">
              <path id="path3081" d="M0,0,4.3,8.226H9.9L5.592,0A2.971,2.971,0,0,0,2.959-1.594H-2.632A2.971,2.971,0,0,1,0,0" fill="#fea713"/>
            </g>
            <g id="g3083" transform="translate(92.092 -52.638)">
              <path id="path3085" d="M0,0H-5.592A3.961,3.961,0,0,1-1.631,3.961V47.2a3.961,3.961,0,0,1-3.961,3.961H0A3.961,3.961,0,0,0,3.961,47.2V3.961A3.961,3.961,0,0,0,0,0" fill="#fea713"/>
            </g>
            <g id="g3087" transform="translate(73.772 -7.397)">
              <path id="path3089" d="M0,0H-46.544a3.367,3.367,0,0,1-3.367-3.367V-35.5a3.367,3.367,0,0,1,3.367-3.367H0A3.367,3.367,0,0,1,3.367-35.5V-3.367A3.367,3.367,0,0,1,0,0" fill="#fddba6"/>
            </g>
            <g id="g3091" transform="translate(62.718 -7.397)">
              <path id="path3093" d="M0,0H-24.437V-1.6A12.218,12.218,0,0,1-12.218-13.823,12.218,12.218,0,0,1,0-1.6Z" fill="#692cb7"/>
            </g>
            <g id="g3095" transform="translate(59.859 -30.579)">
              <path id="path3097" d="M0,0A9.359,9.359,0,0,1-9.359,9.359,9.359,9.359,0,0,1-18.719,0,9.359,9.359,0,0,1-9.359-9.359,9.359,9.359,0,0,1,0,0" fill="#c3aae2"/>
            </g>
            <g id="g3099" transform="translate(92.092 -52.638)">
              <path id="path3101" d="M0,0H-53.684l-4.3-8.226A2.971,2.971,0,0,0-60.621-9.82H-84.175a2.971,2.971,0,0,0-2.971,2.971V47.2a3.961,3.961,0,0,0,3.961,3.961H0A3.961,3.961,0,0,0,3.961,47.2V3.961A3.961,3.961,0,0,0,0,0Z" fill="none" stroke="#000" stroke-linecap="round" stroke-linejoin="round" stroke-miterlimit="10" stroke-width="2.959" stroke-dasharray="602 35 600 0"/>
            </g>
            <g id="g3103" transform="translate(62.718 -7.397)">
              <path id="path3105" d="M0,0H-24.437V-1.6A12.218,12.218,0,0,1-12.218-13.823,12.218,12.218,0,0,1,0-1.6Z" fill="none" stroke="#000" stroke-linecap="round" stroke-linejoin="round" stroke-miterlimit="10" stroke-width="2.959"/>
            </g>
            <g id="g3107" transform="translate(59.859 -30.579)">
              <path id="path3109" d="M0,0A9.359,9.359,0,0,1-9.359,9.359,9.359,9.359,0,0,1-18.719,0,9.359,9.359,0,0,1-9.359-9.359,9.359,9.359,0,0,1,0,0Z" fill="none" stroke="#000" stroke-linecap="round" stroke-linejoin="round" stroke-miterlimit="10" stroke-width="2.959"/>
            </g>
            <g id="g3111" transform="translate(73.772 -7.397)">
              <path id="path3113" d="M0,0H-46.544a3.367,3.367,0,0,1-3.367-3.367V-35.5a3.367,3.367,0,0,1,3.367-3.367H0A3.367,3.367,0,0,1,3.367-35.5V-3.367A3.367,3.367,0,0,1,0,0Z" fill="none" stroke="#000" stroke-linecap="round" stroke-linejoin="round" stroke-miterlimit="10" stroke-width="2.959"/>
            </g>
            <g id="g3115" transform="translate(35.087 -83.345)">
              <path id="path3117" d="M0,0H16.043" fill="none" stroke="#000" stroke-linecap="round" stroke-linejoin="round" stroke-miterlimit="10" stroke-width="2.959"/>
            </g>
            <g id="g3119" transform="translate(35.087 -74.362)">
              <path id="path3121" d="M0,0H8.021" fill="none" stroke="#000" stroke-linecap="round" stroke-linejoin="round" stroke-miterlimit="10" stroke-width="2.959"/>
            </g>
            <g id="g3123" transform="translate(35.087 -67.064)">
              <path id="path3125" d="M0,0H8.021" fill="none" stroke="#000" stroke-linecap="round" stroke-linejoin="round" stroke-miterlimit="10" stroke-width="2.959"/>
            </g>
            <g id="g3127" transform="translate(76.58 -74.362)">
              <path id="path3129" d="M0,0H-25.45" fill="none" stroke="#000" stroke-linecap="round" stroke-linejoin="round" stroke-miterlimit="10" stroke-width="2.959"/>
            </g>
            <g id="g3131" transform="translate(76.58 -67.064)">
              <path id="path3133" d="M0,0H-25.45" fill="none" stroke="#000" stroke-linecap="round" stroke-linejoin="round" stroke-miterlimit="10" stroke-width="2.959"/>
            </g>
            <g id="g3135" transform="translate(35.087 -59.765)">
              <path id="path3137" d="M0,0H8.021" fill="none" stroke="#000" stroke-linecap="round" stroke-linejoin="round" stroke-miterlimit="10" stroke-width="2.959"/>
            </g>
            <g id="g3139" transform="translate(76.58 -59.765)">
              <path id="path3141" d="M0,0H-25.45" fill="none" stroke="#000" stroke-linecap="round" stroke-linejoin="round" stroke-miterlimit="10" stroke-width="2.959"/>
            </g>
            <g id="g3143" transform="translate(92.092 -52.638)">
              <path id="path3145" d="M0,0H-53.684l-4.3-8.226A2.971,2.971,0,0,0-60.621-9.82H-84.175a2.971,2.971,0,0,0-2.971,2.971V47.2a3.961,3.961,0,0,0,3.961,3.961H0A3.961,3.961,0,0,0,3.961,47.2V3.961A3.961,3.961,0,0,0,0,0Z" fill="none" stroke="#000" stroke-linecap="round" stroke-linejoin="round" stroke-miterlimit="10" stroke-width="2.959" stroke-dasharray="602 35 600 0"/>
            </g>
            <g id="g3147" transform="translate(31.471 -62.458)">
              <path id="path3149" d="M0,0A2.971,2.971,0,0,1,2.632,1.594l4.3,8.226H52.288V-25.242A3.961,3.961,0,0,0,48.327-29.2H.4a3.961,3.961,0,0,0-3.961,3.961V0Z" fill="none" stroke="#000" stroke-linecap="round" stroke-linejoin="round" stroke-miterlimit="10" stroke-width="2.959" stroke-dasharray="375 35 300 0"/>
            </g>
            <g id="g3151" transform="translate(27.907 -62.458)">
              <path id="path3153" d="M0,0V-25.242A3.961,3.961,0,0,1,3.961-29.2H45.185v-3.9a3.961,3.961,0,0,0-3.961-3.961H-6.706A3.961,3.961,0,0,0-10.667-33.1V0Z" fill="none" stroke="#000" stroke-linecap="round" stroke-linejoin="round" stroke-miterlimit="10" stroke-width="2.959"/>
            </g>
          </g>
        </g>
      </g>
    </g>
  </g>
</svg>
