<svg xmlns="http://www.w3.org/2000/svg" width="74" height="74" viewBox="0 0 74 74">
  <g id="Grupo_1101618" data-name="Grupo 1101618" transform="translate(-203 -635)">
    <circle id="Elipse_11521" data-name="Elipse 11521" cx="37" cy="37" r="37" transform="translate(203 635)" fill="#b0dcad"/>
    <g id="Grupo_1101617" data-name="Grupo 1101617" transform="translate(213.357 645.639)">
      <path id="Trazado_912592" data-name="Trazado 912592" d="M49.085,23.2a22.65,22.65,0,0,0-45.272,0,5.327,5.327,0,0,0-3.17,4.864v5.976a5.329,5.329,0,0,0,5.323,5.323A3.448,3.448,0,0,0,9.41,35.924V26.189A3.437,3.437,0,0,0,6.3,22.778a20.181,20.181,0,0,1,40.287,0,3.437,3.437,0,0,0-3.1,3.41v9.734a3.436,3.436,0,0,0,3.149,3.414V41.8a5.029,5.029,0,0,1-5.024,5.023H37.892a3.7,3.7,0,0,0-3.512-2.5H30.545a3.682,3.682,0,0,0-1.563.342,3.742,3.742,0,0,0-2.173,3.392,3.74,3.74,0,0,0,3.735,3.735H34.38a3.75,3.75,0,0,0,3.514-2.5h3.718A7.5,7.5,0,0,0,49.105,41.8V38.9a5.327,5.327,0,0,0,3.149-4.854V28.067A5.327,5.327,0,0,0,49.085,23.2ZM6.94,26.189v9.734a.976.976,0,0,1-.975.975,2.858,2.858,0,0,1-2.854-2.854V28.068a2.857,2.857,0,0,1,2.854-2.854.976.976,0,0,1,.975.975Zm28.678,22.13a1.272,1.272,0,0,1-1.239,1H30.544a1.266,1.266,0,0,1-.525-2.418,1.227,1.227,0,0,1,.525-.114h3.835a1.272,1.272,0,0,1,1.239,1.529ZM49.785,34.044A2.858,2.858,0,0,1,46.931,36.9a.976.976,0,0,1-.975-.975V26.189a.976.976,0,0,1,.975-.975,2.858,2.858,0,0,1,2.854,2.854Z" fill="#692cb7"/>
      <path id="Trazado_912593" data-name="Trazado 912593" d="M37.148,37.049a5.237,5.237,0,0,0,5.231-5.231V21.16a5.237,5.237,0,0,0-5.231-5.231H21.162a5.236,5.236,0,0,0-5.231,5.231V31.818a5.236,5.236,0,0,0,5.231,5.231h.1V39.81a2.564,2.564,0,0,0,2.561,2.571,2.51,2.51,0,0,0,1.807-.763l4.595-4.57Zm-8.3-2.11-4.972,4.945a.062.062,0,0,1-.086.02.083.083,0,0,1-.057-.093v-4a1.234,1.234,0,0,0-1.234-1.234H21.163A2.765,2.765,0,0,1,18.4,31.818V21.16A2.764,2.764,0,0,1,21.163,18.4H37.149a2.768,2.768,0,0,1,2.762,2.762V31.818a2.765,2.765,0,0,1-2.762,2.762H29.715a1.235,1.235,0,0,0-.871.359Z" transform="translate(-2.707 -2.579)" fill="#692cb7"/>
      <path id="Trazado_912594" data-name="Trazado 912594" d="M24.321,26.787a1.821,1.821,0,1,0,1.823,1.821A1.824,1.824,0,0,0,24.321,26.787Z" transform="translate(-3.87 -4.502)" fill="#692cb7"/>
      <path id="Trazado_912595" data-name="Trazado 912595" d="M31.607,26.787a1.821,1.821,0,1,0,1.823,1.821A1.824,1.824,0,0,0,31.607,26.787Z" transform="translate(-5.16 -4.502)" fill="#692cb7"/>
      <path id="Trazado_912596" data-name="Trazado 912596" d="M38.893,26.787a1.821,1.821,0,1,0,1.823,1.821A1.824,1.824,0,0,0,38.893,26.787Z" transform="translate(-6.45 -4.502)" fill="#692cb7"/>
    </g>
  </g>
</svg>
